<svg width="48" height="48" viewBox="0 0 48 48" fill="none" xmlns="http://www.w3.org/2000/svg">
<g clip-path="url(#clip0_4_6117)">
<mask id="mask0_4_6117" style="mask-type:luminance" maskUnits="userSpaceOnUse" x="0" y="0" width="48" height="48">
<path d="M48 0H0V48H48V0Z" fill="white"/>
</mask>
<g mask="url(#mask0_4_6117)">
<path d="M27.3833 25.5H7.91667C5.2 25.5 3 27.7 3 30.4167V43.5L7.5 42V30.4167C7.5 30.1833 7.68333 30 7.91667 30H27.3833C27.6167 30 27.8 30.1833 27.8 30.4167V43.5L32.3 42V30.4167C32.3 27.7 30.1 25.5 27.3833 25.5Z" fill="#200000"/>
<path d="M40.1333 25.5H34.5V30H40.1333C40.3667 30 40.55 30.1833 40.55 30.4167V43.5L45.05 42V30.4167C45.05 27.7 42.85 25.5 40.1333 25.5Z" fill="#200000"/>
<path d="M18.8 22.5C24.1767 22.5 28.55 18.1267 28.55 12.75C28.55 7.37333 24.1767 3 18.8 3C13.4234 3 9.05005 7.37333 9.05005 12.75C9.05005 18.1267 13.4234 22.5 18.8 22.5ZM18.8 7.5C21.6951 7.5 24.05 9.855 24.05 12.75C24.05 15.645 21.6951 18 18.8 18C15.905 18 13.55 15.645 13.55 12.75C13.55 9.855 15.905 7.5 18.8 7.5Z" fill="#200000"/>
<path d="M33.75 12.75C33.75 15.645 31.395 18 28.5 18V22.5C33.8767 22.5 38.25 18.1267 38.25 12.75C38.25 7.37333 33.8767 3 28.5 3V7.5C31.395 7.5 33.75 9.855 33.75 12.75Z" fill="#200000"/>
</g>
</g>
<defs>
<clipPath id="clip0_4_6117">
<rect width="48" height="48" fill="white"/>
</clipPath>
</defs>
</svg>
