<svg width="48" height="48" viewBox="0 0 48 48" fill="none" xmlns="http://www.w3.org/2000/svg">
<g clip-path="url(#clip0_4_6118)">
<mask id="mask0_4_6118" style="mask-type:luminance" maskUnits="userSpaceOnUse" x="0" y="0" width="48" height="48">
<path d="M48 0H0V48H48V0Z" fill="white"/>
</mask>
<g mask="url(#mask0_4_6118)">
<path d="M24 22.4534C28.9633 22.4534 33 18.4167 33 13.4534C33 8.49004 28.9633 4.45337 24 4.45337C19.0367 4.45337 15 8.49004 15 13.4534C15 18.4167 19.0367 22.4534 24 22.4534ZM24 8.95337C26.4817 8.95337 28.5 10.9717 28.5 13.4534C28.5 15.935 26.4817 17.9534 24 17.9534C21.5183 17.9534 19.5 15.935 19.5 13.4534C19.5 10.9717 21.5183 8.95337 24 8.95337Z" fill="#200000"/>
<path d="M31.0833 25.5H16.9167C14.2 25.5 12 27.7 12 30.4167V43.5L16.5 42V30.4167C16.5 30.1833 16.6833 30 16.9167 30H31.0833C31.3167 30 31.5 30.1833 31.5 30.4167V43.5L36 42V30.4167C36 27.7 33.8 25.5 31.0833 25.5Z" fill="#200000"/>
<path d="M40.0833 27H37.5V31.5H40.0833C40.3167 31.5 40.5 31.6833 40.5 31.9167V43.5L45 42V31.9167C45 29.2 42.8 27 40.0833 27Z" fill="#200000"/>
<path d="M42.75 15.75C42.75 11.2017 39.0483 7.5 34.5 7.5V12C36.5683 12 38.25 13.6817 38.25 15.75C38.25 17.8183 36.5683 19.5 34.5 19.5V24C39.0483 24 42.75 20.2983 42.75 15.75Z" fill="#200000"/>
<path d="M3 31.9167V43.5L7.5 42V31.9167C7.5 31.6833 7.68333 31.5 7.91667 31.5H10.5V27H7.91667C5.2 27 3 29.2 3 31.9167Z" fill="#200000"/>
<path d="M13.5 24V19.5C11.4317 19.5 9.75 17.8183 9.75 15.75C9.75 13.6817 11.4317 12 13.5 12V7.5C8.95167 7.5 5.25 11.2017 5.25 15.75C5.25 20.2983 8.95167 24 13.5 24Z" fill="#200000"/>
</g>
</g>
<defs>
<clipPath id="clip0_4_6118">
<rect width="48" height="48" fill="white"/>
</clipPath>
</defs>
</svg>
