<svg width="48" height="48" viewBox="0 0 48 48" fill="none" xmlns="http://www.w3.org/2000/svg">
<g clip-path="url(#clip0_4_5981)">
<mask id="mask0_4_5981" style="mask-type:luminance" maskUnits="userSpaceOnUse" x="0" y="0" width="48" height="48">
<path d="M48 0H0V48H48V0Z" fill="white"/>
</mask>
<g mask="url(#mask0_4_5981)">
<path d="M22.8 23.8235C22.6467 23.9585 22.4217 23.9635 22.2633 23.8369L16.3683 19.1019L13.55 22.6102L19.445 27.3452C20.35 28.0719 21.4367 28.4319 22.5233 28.4319C23.6883 28.4319 24.8533 28.0169 25.7833 27.1919L35.95 18.1835L32.965 14.8152L22.7983 23.8235H22.8Z" fill="#200000"/>
<path d="M41.805 4.60843C40.7283 3.6751 39.3 3.2551 37.89 3.45676L8.72167 7.62343C6.315 7.96843 4.5 10.0601 4.5 12.4901V25.8084C4.5 30.6534 6.92167 35.1801 10.82 37.6234L21.3883 44.2484C22.1817 44.7451 23.09 44.9951 24 44.9951C24.9083 44.9951 25.8183 44.7468 26.6117 44.2484L37.18 37.6234C41.0783 35.1784 43.5 30.6518 43.5 25.8084V8.32343C43.5 6.89676 42.8817 5.54176 41.805 4.60843ZM39 25.8084C39 29.1151 37.3867 32.1818 34.79 33.8101L24.2217 40.4351C24.085 40.5201 23.915 40.5201 23.7783 40.4351L13.21 33.8101C10.6133 32.1834 9 29.1168 9 25.8084V12.4901C9 12.2801 9.15167 12.1068 9.35833 12.0768L38.525 7.9101C38.5467 7.90676 38.5683 7.9051 38.5883 7.9051C38.71 7.9051 38.8 7.95843 38.8567 8.00676C38.9217 8.06343 39 8.1651 39 8.32176V25.8068V25.8084Z" fill="#200000"/>
</g>
</g>
<defs>
<clipPath id="clip0_4_5981">
<rect width="48" height="48" fill="white"/>
</clipPath>
</defs>
</svg>
