<svg width="48" height="48" viewBox="0 0 48 48" fill="none" xmlns="http://www.w3.org/2000/svg">
<g clip-path="url(#clip0_4_6022)">
<mask id="mask0_4_6022" style="mask-type:luminance" maskUnits="userSpaceOnUse" x="0" y="0" width="48" height="48">
<path d="M48 0H0V48H48V0Z" fill="white"/>
</mask>
<g mask="url(#mask0_4_6022)">
<path d="M7.5 34.0901V13.9101C7.5 13.7667 7.56667 13.6717 7.62167 13.6151C7.67667 13.5601 7.77334 13.4934 7.91667 13.4934L40.0833 13.5201C40.3133 13.5201 40.5 13.7067 40.5 13.9367V22.5001L45 24.5001V13.9367C45 11.2284 42.7967 9.02174 40.0867 9.02007L7.92 8.99341H7.915C6.60334 8.99341 5.36834 9.50341 4.44 10.4317C3.51 11.3601 2.99834 12.5951 2.99834 13.9101V34.0901C2.99834 36.8017 5.20334 39.0067 7.915 39.0067H25.995V34.5067H7.91667C7.68667 34.5067 7.5 34.3201 7.5 34.0901Z" fill="#200000"/>
<path d="M18 25.5L19.5 21H12L10.5 25.5H18Z" fill="#200000"/>
<path d="M47.5 32.5H41V26L36.5 27.5V32.5H30V37H36.5V43.5L41 42V37H47.5V32.5Z" fill="#200000"/>
</g>
</g>
<defs>
<clipPath id="clip0_4_6022">
<rect width="48" height="48" fill="white"/>
</clipPath>
</defs>
</svg>
