<svg width="48" height="48" viewBox="0 0 48 48" fill="none" xmlns="http://www.w3.org/2000/svg">
<path d="M12.9183 8.85667L13.1067 10.5L13.1158 10.5L13.957 18L14.79 25.2033L38.2433 22.035C38.425 22.01 38.5683 21.87 38.5983 21.6883L38.6 21.6867L39.199 18H39.2031L39.345 17.1015L39.6867 14.9983L40.3873 10.4986L44.975 10.4983L43.0383 22.41C42.69 24.5583 41.005 26.2 38.8467 26.4933L15.3 29.675L15.38 30.38C15.405 30.59 15.5833 30.7483 15.795 30.7483H32.5833C35.295 30.7483 37.5 32.9533 37.5 35.665V37.4983H33V35.665C33 35.435 32.8133 35.2483 32.5833 35.2483H15.795C13.2933 35.2483 11.1933 33.375 10.91 30.89L8.44833 9.36833C8.42333 9.16 8.245 9 8.03333 9H4.5L3 4.5H8.03333C10.5317 4.5 12.6333 6.37333 12.9183 8.85667Z" fill="#200000"/>
<path d="M16.4133 43.5C18.0702 43.5 19.4133 42.1569 19.4133 40.5C19.4133 38.8431 18.0702 37.5 16.4133 37.5C14.7565 37.5 13.4133 38.8431 13.4133 40.5C13.4133 42.1569 14.7565 43.5 16.4133 43.5Z" fill="#200000"/>
<path d="M29.9133 43.5C31.5702 43.5 32.9133 42.1569 32.9133 40.5C32.9133 38.8431 31.5702 37.5 29.9133 37.5C28.2565 37.5 26.9133 38.8431 26.9133 40.5C26.9133 42.1569 28.2565 43.5 29.9133 43.5Z" fill="#200000"/>
<path d="M34.9275 10.5042H28.9275V4.92727L24.4275 6.48753V10.5042H18.4275V15.0042H24.4275V20.5248L28.9275 19.0209V15.0042H34.9275V10.5042Z" fill="#200000"/>
</svg>
