<svg width="48" height="48" viewBox="0 0 48 48" fill="none" xmlns="http://www.w3.org/2000/svg">
<g clip-path="url(#clip0_4_5985)">
<mask id="mask0_4_5985" style="mask-type:luminance" maskUnits="userSpaceOnUse" x="0" y="0" width="48" height="48">
<path d="M48 0H0V48H48V0Z" fill="white"/>
</mask>
<g mask="url(#mask0_4_5985)">
<path d="M38.5833 4.5H9.41667C6.705 4.5 4.5 6.705 4.5 9.41667V38.355C4.5 39.725 5.07833 41.0433 6.085 41.9717C6.995 42.81 8.19167 43.2717 9.42 43.2717C9.55333 43.2717 9.68667 43.2667 9.82 43.255L38.9867 40.86C41.5183 40.6517 43.5017 38.5 43.5017 35.96V9.41667C43.5017 6.705 41.2967 4.5 38.585 4.5H38.5833ZM39 35.9617C39 36.1767 38.8317 36.36 38.6167 36.3767L9.45 38.7717C9.3 38.7833 9.195 38.72 9.13333 38.6633C9.07167 38.6067 8.99833 38.5083 8.99833 38.3567V9.41667C8.99833 9.18667 9.185 9 9.415 9H38.5817C38.8117 9 38.9983 9.18667 38.9983 9.41667V35.9617H39Z" fill="#200000"/>
<path d="M26.25 13.5L21.75 15V21.695H13.5V26.195H21.75V34.5L26.25 33V26.195H34.5V21.695H26.25V13.5Z" fill="#200000"/>
</g>
</g>
<defs>
<clipPath id="clip0_4_5985">
<rect width="48" height="48" fill="white"/>
</clipPath>
</defs>
</svg>
