<svg width="48" height="48" viewBox="0 0 48 48" fill="none" xmlns="http://www.w3.org/2000/svg">
<g clip-path="url(#clip0_4_6119)">
<mask id="mask0_4_6119" style="mask-type:luminance" maskUnits="userSpaceOnUse" x="0" y="0" width="48" height="48">
<path d="M48 0H0V48H48V0Z" fill="white"/>
</mask>
<g mask="url(#mask0_4_6119)">
<path d="M45 16.5001H39V11.8501L34.5 10.4834V16.5001H28.5V21.0001H34.5V25.3834L39 27.0167V21.0001H45V16.5001Z" fill="#200000"/>
<path d="M17.25 21C22.2133 21 26.25 16.9633 26.25 12C26.25 7.03667 22.2133 3 17.25 3C12.2867 3 8.25 7.03667 8.25 12C8.25 16.9633 12.2867 21 17.25 21ZM17.25 7.5C19.7317 7.5 21.75 9.51833 21.75 12C21.75 14.4817 19.7317 16.5 17.25 16.5C14.7683 16.5 12.75 14.4817 12.75 12C12.75 9.51833 14.7683 7.5 17.25 7.5Z" fill="#200000"/>
<path d="M26.5833 24H7.91667C5.2 24 3 26.1 3 28.7V43.5L7.5 42V28.7C7.5 28.6667 7.63333 28.5 7.91667 28.5H26.5833C26.8667 28.5 27 28.6667 27 28.7V43.5L31.5 42V28.7C31.5 26.1167 29.3 24 26.5833 24Z" fill="#200000"/>
</g>
</g>
<defs>
<clipPath id="clip0_4_6119">
<rect width="48" height="48" fill="white"/>
</clipPath>
</defs>
</svg>
