<svg width="48" height="48" viewBox="0 0 48 48" fill="none" xmlns="http://www.w3.org/2000/svg">
<g clip-path="url(#clip0_4_6008)">
<mask id="mask0_4_6008" style="mask-type:luminance" maskUnits="userSpaceOnUse" x="0" y="0" width="48" height="48">
<path d="M48 0H0V48H48V0Z" fill="white"/>
</mask>
<g mask="url(#mask0_4_6008)">
<path d="M7.5 16.5H42L40.5 21H6L7.5 16.5Z" fill="#200000"/>
<path d="M7.5 6H42L40.5 10.5H6L7.5 6Z" fill="#200000"/>
<path d="M27.5 27.75H42L40.5 32.25H26L27.5 27.75Z" fill="#200000"/>
<path d="M23.5 39H42L40.5 43.5H22L23.5 39Z" fill="#200000"/>
</g>
<path d="M18.9267 30L11.54 37.3883L6.86333 33.5283L4 37L11.83 43.4617L22.1083 33.1833L18.9267 30Z" fill="#200000"/>
</g>
<defs>
<clipPath id="clip0_4_6008">
<rect width="48" height="48" fill="white"/>
</clipPath>
</defs>
</svg>
