<svg width="48" height="48" viewBox="0 0 48 48" fill="none" xmlns="http://www.w3.org/2000/svg">
<g clip-path="url(#clip0_4_6127)">
<mask id="mask0_4_6127" style="mask-type:luminance" maskUnits="userSpaceOnUse" x="0" y="0" width="48" height="48">
<path d="M48 0H0V48H48V0Z" fill="white"/>
</mask>
<g mask="url(#mask0_4_6127)">
<path d="M45.0833 14.515L41.9017 11.3333L37.2567 15.9767C33.6383 13.0233 29.0233 11.25 24 11.25C18.9767 11.25 14.3683 13.0217 10.7517 15.97L6.10665 11.325L2.92499 14.5067L7.58499 19.1667C4.71665 22.7583 2.99999 27.3067 2.99999 32.2483V34.4983H45V32.2483C45 27.31 43.285 22.765 40.4217 19.175L45.0833 14.515ZM7.65332 30C8.75332 21.9617 15.665 15.75 24 15.75C32.335 15.75 39.2467 21.9617 40.3467 30H7.65332Z" fill="#200000"/>
<path d="M17.25 27C18.9069 27 20.25 25.6569 20.25 24C20.25 22.3431 18.9069 21 17.25 21C15.5931 21 14.25 22.3431 14.25 24C14.25 25.6569 15.5931 27 17.25 27Z" fill="#200000"/>
<path d="M31.2322 26.9594C32.8676 26.6939 33.9782 25.1529 33.7127 23.5175C33.4473 21.882 31.9063 20.7714 30.2708 21.0369C28.6354 21.3024 27.5248 22.8434 27.7902 24.4788C28.0557 26.1143 29.5967 27.2249 31.2322 26.9594Z" fill="#200000"/>
</g>
</g>
<defs>
<clipPath id="clip0_4_6127">
<rect width="48" height="48" fill="white"/>
</clipPath>
</defs>
</svg>
