<svg width="48" height="48" viewBox="0 0 48 48" fill="none" xmlns="http://www.w3.org/2000/svg">
<g clip-path="url(#clip0_4_6135)">
<mask id="mask0_4_6135" style="mask-type:luminance" maskUnits="userSpaceOnUse" x="0" y="0" width="48" height="48">
<path d="M48 0H0V48H48V0Z" fill="white"/>
</mask>
<g mask="url(#mask0_4_6135)">
<path d="M17.5667 25.5H7.9C5.18834 25.5 2.98334 27.705 2.98334 30.4167V40.0833C2.98334 42.795 5.18834 45 7.9 45H17.5667C20.2783 45 22.4833 42.795 22.4833 40.0833V30.4167C22.4833 27.705 20.2783 25.5 17.5667 25.5ZM17.9833 40.0833C17.9833 40.31 17.7917 40.5 17.5667 40.5H7.9C7.675 40.5 7.48334 40.31 7.48334 40.0833V30.4167C7.48334 30.19 7.675 30 7.9 30H17.5667C17.8 30 17.9833 30.1833 17.9833 30.4167V40.0833Z" fill="#200000"/>
<path d="M40.0667 25.5H30.4C27.6883 25.5 25.4833 27.705 25.4833 30.4167V40.0833C25.4833 42.795 27.6883 45 30.4 45H40.0667C42.7783 45 44.9833 42.795 44.9833 40.0833V30.4167C44.9833 27.705 42.7783 25.5 40.0667 25.5ZM40.4833 40.0833C40.4833 40.31 40.2917 40.5 40.0667 40.5H30.4C30.175 40.5 29.9833 40.31 29.9833 40.0833V30.4167C29.9833 30.19 30.175 30 30.4 30H40.0667C40.3 30 40.4833 30.1833 40.4833 30.4167V40.0833Z" fill="#200000"/>
<path d="M40.0667 3H30.4C27.6883 3 25.4833 5.205 25.4833 7.91667V17.5833C25.4833 20.295 27.6883 22.5 30.4 22.5H40.0667C42.7783 22.5 44.9833 20.295 44.9833 17.5833V7.91667C44.9833 5.205 42.7783 3 40.0667 3ZM40.4833 17.5833C40.4833 17.81 40.2917 18 40.0667 18H30.4C30.175 18 29.9833 17.81 29.9833 17.5833V7.91667C29.9833 7.69 30.175 7.5 30.4 7.5H40.0667C40.3 7.5 40.4833 7.68333 40.4833 7.91667V17.5833Z" fill="#200000"/>
<path d="M12.7333 3C7.35667 3 2.98334 7.37333 2.98334 12.75C2.98334 18.1267 7.35667 22.5 12.7333 22.5C18.11 22.5 22.4833 18.1267 22.4833 12.75C22.4833 7.37333 18.11 3 12.7333 3ZM12.7333 18C9.83834 18 7.48334 15.645 7.48334 12.75C7.48334 9.855 9.83834 7.5 12.7333 7.5C15.6283 7.5 17.9833 9.855 17.9833 12.75C17.9833 15.645 15.6283 18 12.7333 18Z" fill="#200000"/>
</g>
</g>
<defs>
<clipPath id="clip0_4_6135">
<rect width="48" height="48" fill="white"/>
</clipPath>
</defs>
</svg>
