<svg width="48" height="48" viewBox="0 0 48 48" fill="none" xmlns="http://www.w3.org/2000/svg">
<path d="M30.8458 43.5543L23.5458 36.2542L26.7275 33.0726L32.2525 38.5976L32.2525 4.47925L36.7525 2.97925V38.2309L41.9108 33.0726L45.0925 36.2542L37.7925 43.5543C36.8675 44.4793 35.6342 44.9876 34.3175 44.9876C33.0008 44.9876 31.7675 44.4776 30.8425 43.5543H30.8458Z" fill="#200000"/>
<path d="M24.4625 11.7209L21.2808 14.9026L15.9725 9.59425L15.9725 43.4792L11.4725 44.9792L11.4725 9.52758L6.0975 14.9026L2.91583 11.7209L10.2125 4.42092C12.1275 2.50592 15.2458 2.50592 17.1608 4.42092L24.4625 11.7209Z" fill="#200000"/>
</svg>
