<svg width="48" height="48" viewBox="0 0 48 48" fill="none" xmlns="http://www.w3.org/2000/svg">
<g clip-path="url(#clip0_4_6050)">
<mask id="mask0_4_6050" style="mask-type:luminance" maskUnits="userSpaceOnUse" x="0" y="0" width="48" height="48">
<path d="M48 0H0V48H48V0Z" fill="white"/>
</mask>
<g mask="url(#mask0_4_6050)">
<path d="M16.5517 41.91C13.8717 41.91 11.1917 40.89 9.15 38.85C7.10834 36.81 6.08667 34.2467 6.08667 31.4483C6.08667 28.65 7.175 26.0233 9.15 24.0467L13.6967 19.5H20.06L12.3317 27.2283C10.005 29.555 10.005 33.34 12.3317 35.6667C14.6583 37.9933 18.4433 37.9933 20.77 35.6667L26.4367 30H32.8L23.95 38.85C21.91 40.89 19.23 41.91 16.5483 41.91H16.5517Z" fill="#200000"/>
<path d="M35.8017 27H29.4383L35.6667 20.7717C36.7917 19.6467 37.4117 18.1484 37.4117 16.5534C37.4117 14.9584 36.7917 13.46 35.6667 12.335C34.5417 11.21 33.0433 10.59 31.4483 10.59C29.8533 10.59 28.355 11.21 27.23 12.335L23.0633 16.5017H16.7L24.05 9.15171C26.025 7.17671 28.6533 6.08838 31.4517 6.08838C34.25 6.08838 36.8767 7.17671 38.8533 9.15171C40.83 11.1267 41.9167 13.755 41.9167 16.5534C41.9167 19.3517 40.8283 21.9784 38.8533 23.955L35.8067 27.0017L35.8017 27Z" fill="#200000"/>
<path d="M33.015 18.1668L18.1667 33.0151L14.985 29.8334L29.8333 14.9851L33.015 18.1668Z" fill="#200000"/>
</g>
</g>
<defs>
<clipPath id="clip0_4_6050">
<rect width="48" height="48" fill="white"/>
</clipPath>
</defs>
</svg>
