<svg width="48" height="48" viewBox="0 0 48 48" fill="none" xmlns="http://www.w3.org/2000/svg">
<mask id="mask0_4_5932" style="mask-type:alpha" maskUnits="userSpaceOnUse" x="0" y="0" width="48" height="48">
<rect width="48" height="48" fill="#D9D9D9"/>
</mask>
<g mask="url(#mask0_4_5932)">
<path d="M30.9601 11.4142C31.7411 10.6331 31.7411 9.36678 30.9601 8.58573L23.95 1.57568L20.7257 4.79995L23.6293 7.70352C19.2442 7.78836 15.5078 9.38492 12.4367 12.489C9.28035 15.6793 7.70001 19.5555 7.70001 24.0999C7.70001 25.5265 7.88687 26.9199 8.26075 28.2795C8.63461 29.639 9.19494 30.9627 9.94038 32.2503L10.136 32.5882L13.565 29.1592L13.4683 28.9658C13.0781 28.1853 12.7862 27.3901 12.5917 26.5799C12.3973 25.7698 12.3 24.9433 12.3 24.0999C12.3 20.811 13.4364 18.0291 15.7129 15.7363C17.9005 13.5331 20.5311 12.3912 23.6205 12.3052L20.7257 15.1999L23.95 18.4242L30.9601 11.4142Z" fill="#200000"/>
<path d="M38.0596 15.7496L37.864 15.4117L34.435 18.8407L34.5317 19.0341C34.9219 19.8146 35.2139 20.6098 35.4083 21.42C35.6027 22.2301 35.7 23.0566 35.7 23.8999C35.7 27.1889 34.5636 29.9708 32.2871 32.2636C30.0996 34.4668 27.4689 35.6087 24.3795 35.6947L27.2743 32.7999L24.05 29.5757L17.04 36.5857C16.2589 37.3668 16.2589 38.6331 17.04 39.4142L24.05 46.4242L27.2743 43.1999L24.3707 40.2964C28.7558 40.2115 32.4923 38.615 35.5633 35.5109C38.7197 32.3206 40.3 28.4444 40.3 23.8999C40.3 22.4734 40.1132 21.08 39.7393 19.7204C39.3654 18.3609 38.8051 17.0372 38.0596 15.7496Z" fill="#200000"/>
</g>
</svg>
