<svg width="48" height="48" viewBox="0 0 48 48" fill="none" xmlns="http://www.w3.org/2000/svg">
<g clip-path="url(#clip0_4_6002)">
<mask id="mask0_4_6002" style="mask-type:luminance" maskUnits="userSpaceOnUse" x="0" y="0" width="48" height="48">
<path d="M48 0H0V48H48V0Z" fill="white"/>
</mask>
<g mask="url(#mask0_4_6002)">
<path d="M45 18H39.5883L36.7867 10.6634C36.0633 8.77171 34.2183 7.50171 32.1933 7.50171H15.8083C13.7833 7.50171 11.9383 8.77171 11.215 10.6634L8.41166 18H4.495L2.995 22.5H6V29.5834C6 30.9684 6.57666 32.22 7.5 33.1134V39H12V34.5H36V39H40.5V33.1134C41.4233 32.2184 42 30.9667 42 29.5834V22.5H43.5L45 18ZM10.5 29.5834V22.5H37.5V29.5834C37.5 29.8134 37.3133 30 37.0833 30H10.9167C10.6867 30 10.5 29.8134 10.5 29.5834ZM15.8083 12.0017H32.1933C32.365 12.0017 32.5217 12.11 32.5833 12.27L34.7717 18H13.23L15.4183 12.27C15.48 12.1067 15.6333 12.0017 15.8083 12.0017Z" fill="#200000"/>
<path d="M28.5 28.5H34.5L36 24H30L28.5 28.5Z" fill="#200000"/>
<path d="M12 24L13.5 28.5H19.5L18 24H12Z" fill="#200000"/>
</g>
</g>
<defs>
<clipPath id="clip0_4_6002">
<rect width="48" height="48" fill="white"/>
</clipPath>
</defs>
</svg>
