<svg width="48" height="48" viewBox="0 0 48 48" fill="none" xmlns="http://www.w3.org/2000/svg">
<g clip-path="url(#clip0_4_5971)">
<mask id="mask0_4_5971" style="mask-type:luminance" maskUnits="userSpaceOnUse" x="0" y="0" width="48" height="48">
<path d="M48 0H0V48H48V0Z" fill="white"/>
</mask>
<g mask="url(#mask0_4_5971)">
<path d="M40.0833 39.0065H7.91667C5.205 39.0065 3 36.8015 3 34.0898V13.9098C3 12.5965 3.51167 11.3598 4.44167 10.4315C5.37 9.50316 6.605 8.99316 7.91667 8.99316H7.92L40.0867 9.01983C42.795 9.0215 45 11.2282 45 13.9365V34.0898C45 36.8015 42.795 39.0065 40.0833 39.0065ZM7.91667 13.4932C7.775 13.4932 7.67833 13.5598 7.62167 13.6148C7.56667 13.6698 7.5 13.7665 7.5 13.9098V34.0898C7.5 34.3198 7.68667 34.5065 7.91667 34.5065H40.0833C40.3133 34.5065 40.5 34.3198 40.5 34.0898V13.9365C40.5 13.7065 40.3133 13.5198 40.0833 13.5198L7.91667 13.4932Z" fill="#200000"/>
<path d="M18 25.5066H10.5L12 21.0066H19.5L18 25.5066Z" fill="#200000"/>
</g>
</g>
<defs>
<clipPath id="clip0_4_5971">
<rect width="48" height="48" fill="white"/>
</clipPath>
</defs>
</svg>
