<svg width="48" height="48" viewBox="0 0 48 48" fill="none" xmlns="http://www.w3.org/2000/svg">
<path d="M27.8719 2.78652C25.6198 0.922721 22.3628 0.922721 20.1107 2.78652L3.60101 16.4974C2.68962 17.2537 2.02306 18.2562 1.67157 19.3677H8.31448L23.4366 6.80923C23.7584 6.54369 24.2242 6.54357 24.546 6.80923L41.0676 20.5155C41.2809 20.6924 41.3933 20.9388 41.3933 21.1951V40.5085C41.3933 40.9963 40.9875 41.3907 40.5237 41.3907H30.8989L28.5798 46.6113H40.5237C43.8863 46.6113 46.6113 43.8625 46.6113 40.5085V21.1951C46.6113 19.3559 45.7845 17.6465 44.3977 16.4963L27.8719 2.78652Z" fill="#200000"/>
<path d="M9.21567 46.6114H3.99767C3.99767 45.1736 2.82652 44.0024 1.38867 44.0024V38.7844C5.70415 38.7844 9.21567 42.2959 9.21567 46.6114Z" fill="#200000"/>
<path d="M17.0427 46.6113H11.8247C11.8247 40.856 7.14393 36.1753 1.38867 36.1753V30.9573C10.0196 30.9573 17.0427 37.9803 17.0427 46.6113Z" fill="#200000"/>
<path d="M24.8697 46.6114H19.6517C19.6517 36.5406 11.4594 28.3484 1.38867 28.3484V23.1304C14.337 23.1304 24.8697 33.663 24.8697 46.6114Z" fill="#200000"/>
</svg>
