<svg width="48" height="48" viewBox="0 0 48 48" fill="none" xmlns="http://www.w3.org/2000/svg">
<g clip-path="url(#clip0_4_6001)">
<mask id="mask0_4_6001" style="mask-type:luminance" maskUnits="userSpaceOnUse" x="0" y="0" width="48" height="48">
<path d="M48 0H0V48H48V0Z" fill="white"/>
</mask>
<g mask="url(#mask0_4_6001)">
<path d="M38.7723 39.6915L36.5888 17.5748C36.4587 16.242 35.7798 15.006 34.7256 14.1803C33.6714 13.3546 32.3069 12.9926 30.9825 13.1861L26.2736 13.8733V9.00595H31.5279V4.5022H16.9324C14.2185 4.5022 12.0117 6.70904 12.0117 9.42297V11.2578H16.5154V9.42297C16.5154 9.19277 16.7023 9.00595 16.9324 9.00595H21.7698V14.5306L15.2694 15.4797C13.0075 15.81 11.2844 17.6315 11.0809 19.9084L9.30276 39.6415C9.16931 41.0193 9.62636 42.3971 10.5571 43.423C11.4879 44.4488 12.8157 45.036 14.2018 45.036H33.8766C35.2527 45.036 36.5738 44.4538 37.5029 43.4396C38.432 42.4255 38.8958 41.0593 38.7757 39.6899L38.7723 39.6915ZM34.1785 40.4004C34.1218 40.4622 34.0234 40.5339 33.8732 40.5339H14.1985C14.045 40.5339 13.945 40.4588 13.8882 40.3971C13.8315 40.3354 13.7665 40.2286 13.7832 40.0618L15.563 20.312C15.5797 20.1202 15.7264 19.9651 15.9166 19.9367L31.6297 17.6431C31.6514 17.6398 31.6731 17.6381 31.6931 17.6381C31.8065 17.6381 31.8916 17.6848 31.9466 17.7266C32.01 17.7766 32.0901 17.8667 32.1034 18.0135L34.2836 40.0902C34.2936 40.2353 34.2319 40.3371 34.1768 40.3971L34.1785 40.4004Z" fill="#200000"/>
</g>
</g>
<defs>
<clipPath id="clip0_4_6001">
<rect width="48" height="48" fill="white"/>
</clipPath>
</defs>
</svg>
