<svg width="48" height="48" viewBox="0 0 48 48" fill="none" xmlns="http://www.w3.org/2000/svg">
<path fill-rule="evenodd" clip-rule="evenodd" d="M12 1.5C6.21 1.5 1.5 6.21 1.5 12C1.5 17.79 6.21 22.5 12 22.5C12.0057 22.5 12.0114 22.5 12.0172 22.5V20.2496C12.0114 20.2499 12.0057 20.25 12 20.25C11.1742 20.25 9.62417 17.745 9.4025 13.125H14L14.75 10.875H9.4025C9.62417 6.255 11.1742 3.75 12 3.75C12.7724 3.75 14.1786 5.9387 14.539 10H15.6663H16.7936C16.6377 8.11128 16.2614 6.36563 15.6958 4.95333C15.6442 4.82333 15.585 4.68417 15.52 4.54C17.7278 5.58614 19.3999 7.58366 20.0038 10C20.5 10 21.5 10 22.3089 10C21.3726 5.16331 17.1063 1.5 12 1.5ZM8.48 4.54C8.415 4.68417 8.35583 4.82333 8.30417 4.95333C7.6525 6.58167 7.25333 8.6525 7.15167 10.875H3.8275C4.21167 8.07 6.01 5.70917 8.48 4.54ZM3.82667 13.125H7.15083C7.2525 15.3475 7.65167 17.4183 8.30333 19.0467C8.355 19.1767 8.41417 19.3158 8.47917 19.46C6.01 18.29 4.21167 15.93 3.82667 13.125Z" fill="#200000"/>
<path fill-rule="evenodd" clip-rule="evenodd" d="M16 13C16 12.2268 16.2268 12 17 12C17.7732 12 19.4 12.6268 19.4 13.4V14H22C23.1046 14 24 14.8954 24 16V22C24 23.1046 23.1046 24 22 24H16C14.8954 24 14 23.1046 14 22V16C14 14.8954 14.8954 14 16 14H16.6C16.6 14 16 13.7732 16 13ZM16 16H22V17H16V16ZM16 19V22H22V19H16Z" fill="#200000"/>
<path d="M18.6 13.4C18.6 12.6268 20.2268 12 21 12C21.7732 12 22 12.2268 22 13C22 13.7732 21.4 14 21.4 14H18.6V13.4Z" fill="#200000"/>
</svg>
