<svg width="48" height="48" viewBox="0 0 48 48" fill="none" xmlns="http://www.w3.org/2000/svg">
<g clip-path="url(#clip0_4_5982)">
<path d="M40.9075 15.5462H34.9687C34.0177 13.8977 32.7074 12.4817 31.1223 11.4039L34.5672 7.95895L31.5872 4.979L27.0011 9.56516C26.0289 9.33268 25.0356 9.20588 24 9.20588C22.9644 9.20588 21.9711 9.33268 21.0201 9.56516L16.4128 4.979L13.4328 7.95895L16.8566 11.4039C15.2926 12.4817 13.9823 13.8977 13.0313 15.5462H7.0925L4.97906 19.7731H11.5096C11.4039 20.4705 11.3194 21.1679 11.3194 21.8865V23.9999H7.0925L4.97906 28.2268H11.3194V30.3403C11.3194 31.0588 11.4039 31.7563 11.5096 32.4537H7.0925L4.97906 36.6806H13.0313C15.2292 40.4636 19.3082 43.0209 24 43.0209C28.6918 43.0209 32.7708 40.4636 34.9687 36.6806H43.0209L40.9075 32.4537H36.4904C36.5961 31.7563 36.6806 31.0588 36.6806 30.3403V28.2268H43.0209L40.9075 23.9999H36.6806V21.8865C36.6806 21.1679 36.5961 20.4705 36.4904 19.7731H43.0209L40.9075 15.5462ZM32.4537 23.9999V30.3403C32.4537 30.8052 32.3903 31.3336 32.3058 31.8197L32.0945 33.1934L31.3125 34.5671C29.7908 37.1878 27.0011 38.794 24 38.794C20.9989 38.794 18.2092 37.1667 16.6875 34.5671L15.9055 33.2145L15.6942 31.8408C15.6097 31.3547 15.5463 30.8263 15.5463 30.3403V21.8865C15.5463 21.4004 15.6097 20.8721 15.6942 20.4071C15.6942 20.4071 15.7331 19.548 15.9055 19.0334C16.1016 18.448 16.6875 17.6596 16.6875 17.6596C17.3215 16.5606 18.2092 15.6096 19.2448 14.891C19.2448 14.891 19.9309 14.3035 20.4494 14.0668C21.0212 13.8058 22.0134 13.6864 22.0134 13.6864C22.6685 13.5173 23.3448 13.4328 24 13.4328C24.6763 13.4328 25.3315 13.5173 26.0078 13.6864C26.0078 13.6864 26.9165 13.7939 27.4449 14.0245C28.0051 14.269 28.7341 14.9122 28.7341 14.9122C29.7908 15.6307 30.6573 16.5606 31.2914 17.6808L32.0945 19.0545L32.3058 20.4282C32.3903 20.8932 32.4537 21.4215 32.4537 21.8865V23.9999ZM21.8866 28.2268H28.2269L26.1134 32.4537H19.7731L21.8866 28.2268ZM21.8866 19.7731H28.2269L26.1134 23.9999H19.7731L21.8866 19.7731Z" fill="#200000"/>
</g>
<defs>
<clipPath id="clip0_4_5982">
<rect width="48" height="48" fill="white"/>
</clipPath>
</defs>
</svg>
