<svg width="48" height="48" viewBox="0 0 48 48" fill="none" xmlns="http://www.w3.org/2000/svg">
<g clip-path="url(#clip0_4_6003)">
<mask id="mask0_4_6003" style="mask-type:luminance" maskUnits="userSpaceOnUse" x="0" y="0" width="48" height="48">
<path d="M48 0H0V48H48V0Z" fill="white"/>
</mask>
<g mask="url(#mask0_4_6003)">
<path d="M28.5 33H34.5L36 28.5H30L28.5 33Z" fill="#200000"/>
<path d="M12 28.5L13.5 33H19.5L18 28.5H12Z" fill="#200000"/>
<path d="M42 13.5V11.0433C42 8.26167 39.9083 6 37.3366 6H10.6616C8.08996 6 5.99829 8.26167 5.99829 11.0433V13.5H2.99829V18H5.99829V34.0833C5.99829 35.5083 6.57662 36.795 7.49996 37.6933V43.5H12V39H36V43.5H40.5V37.6917C41.4216 36.7933 42 35.5083 42 34.0833V18H45V13.5H42ZM10.4983 11.0433C10.4983 10.735 10.6333 10.55 10.6966 10.5H37.3016C37.365 10.55 37.5 10.735 37.5 11.0433V21H10.4983V11.0433ZM12 34.5017L10.6716 34.5C10.6283 34.4783 10.4983 34.3417 10.4983 34.0833V25.5H37.5V34.0833C37.5 34.3483 37.3616 34.4867 37.3366 34.5H36L12 34.5017Z" fill="#200000"/>
</g>
</g>
<defs>
<clipPath id="clip0_4_6003">
<rect width="48" height="48" fill="white"/>
</clipPath>
</defs>
</svg>
