<svg width="48" height="48" viewBox="0 0 48 48" fill="none" xmlns="http://www.w3.org/2000/svg">
<g clip-path="url(#clip0_4_5984)">
<mask id="mask0_4_5984" style="mask-type:luminance" maskUnits="userSpaceOnUse" x="0" y="0" width="48" height="48">
<path d="M48 0H0V48H48V0Z" fill="white"/>
</mask>
<g mask="url(#mask0_4_5984)">
<path d="M40.0833 9H37.5V4.5H33V9H15V4.5H10.5V9H7.91667C5.205 9 3 11.205 3 13.9167V34.5883C3 37.1567 5.00667 39.3117 7.57 39.4933L39.7367 41.7683C39.8517 41.7767 39.9667 41.78 40.08 41.78C41.3183 41.78 42.525 41.3083 43.435 40.46C44.43 39.5333 45 38.2217 45 36.8633V13.9167C45 11.205 42.795 9 40.0833 9ZM40.5 36.8633C40.5 37.0133 40.4283 37.1117 40.3667 37.1683C40.3067 37.225 40.2017 37.2883 40.0533 37.28L7.88667 35.005C7.67 34.99 7.5 34.8067 7.5 34.59V13.9183C7.5 13.6883 7.68667 13.5017 7.91667 13.5017H40.0833C40.3133 13.5017 40.5 13.6883 40.5 13.9183V36.865V36.8633Z" fill="#200000"/>
<path d="M28.5 27L30 31.5H36L34.5 27H28.5Z" fill="#200000"/>
<path d="M20.2217 27L21.7217 31.5H27.7217L26.2217 27H20.2217Z" fill="#200000"/>
<path d="M12 27L13.5 31.5H19.5L18 27H12Z" fill="#200000"/>
<path d="M28.5 18L30 22.5H36L34.5 18H28.5Z" fill="#200000"/>
<path d="M20.2217 18L21.7217 22.5H27.7217L26.2217 18H20.2217Z" fill="#200000"/>
<path d="M12 18L13.5 22.5H19.5L18 18H12Z" fill="#200000"/>
</g>
</g>
<defs>
<clipPath id="clip0_4_5984">
<rect width="48" height="48" fill="white"/>
</clipPath>
</defs>
</svg>
