<svg width="48" height="48" viewBox="0 0 48 48" fill="none" xmlns="http://www.w3.org/2000/svg">
<g clip-path="url(#clip0_4_6113)">
<mask id="mask0_4_6113" style="mask-type:luminance" maskUnits="userSpaceOnUse" x="0" y="0" width="48" height="48">
<path d="M48 0H0V48H48V0Z" fill="white"/>
</mask>
<g mask="url(#mask0_4_6113)">
<path d="M37.9333 33.8002C37.5333 32.5502 36.6 31.5169 35.3833 31.0002L30.25 28.8002C28.15 27.9002 25.6833 28.7002 24.5 30.6669L23.4 32.5002C22.0833 31.7668 20.4667 30.6835 18.3833 28.6669C16.45 26.7835 15.8667 25.6335 15.4167 24.7002C15.4 24.6669 15.3833 24.6169 15.35 24.5835L17.9833 22.4335C19.7833 20.9669 20.2 18.3669 18.9333 16.4169L16.2 12.1335C15.5 11.0335 14.35 10.2835 13.0667 10.0835C11.7833 9.88352 10.45 10.2335 9.45 11.0669L6.58333 13.4169C3.45 15.9835 2.23333 20.1168 3.48333 23.9835C4.86667 28.2335 7.13333 32.2169 10.05 35.5169C10.7333 36.2835 11.2833 36.8669 12 37.5169V30.7835C9.65 27.7002 8.46667 24.7835 7.76667 22.6002C7.1 20.5169 7.75 18.2835 9.43333 16.9002L12.3 14.5502C12.3167 14.5502 12.3167 14.5335 12.35 14.5335H12.3667C12.4 14.5335 12.4167 14.5502 12.4167 14.5669L15.15 18.8502C15.1667 18.8835 15.1667 18.9335 15.1333 18.9669L12.0667 21.4669C10.65 22.6335 10.25 24.6502 11.15 26.2502C11.2167 26.3835 11.3 26.5335 11.3833 26.7169C11.9333 27.8169 12.7667 29.5002 15.25 31.9169C18.0667 34.6502 20.1833 35.9335 21.8833 36.8168C23.6667 37.7502 25.8833 37.1335 26.9167 35.4002L28.35 33.0002C28.3667 32.9669 28.4167 32.9502 28.45 32.9669L33.5833 35.1669C33.6 35.1669 33.6167 35.1835 33.6333 35.2169C33.65 35.2502 33.6333 35.2668 33.6167 35.2835L32.0667 37.8668C30.8167 39.9669 28.3 40.9835 25.9667 40.3168C22.9833 39.4669 18.7 37.6502 14.9667 34.1835V39.9335C18.4333 42.3669 22.05 43.8668 24.7333 44.6335C25.6167 44.8835 26.5167 45.0002 27.4167 45.0002C30.8333 45.0002 34.1 43.2169 35.9333 40.1502L37.4833 37.5668C38.2 36.4168 38.35 35.0502 37.9333 33.8002Z" fill="#200000"/>
<path d="M37.6167 6.3501L43.65 12.3834C45.5333 14.2668 45.5333 17.3168 43.65 19.2001L37.7 25.1501L33.45 23.0334L40.4667 16.0168C40.5833 15.9001 40.5833 15.6834 40.4667 15.5668L33.45 8.5501L37.6167 6.3501Z" fill="#200000"/>
<path d="M43.0167 13.5H22.45L24 18H43.0167V13.5Z" fill="#200000"/>
</g>
</g>
<defs>
<clipPath id="clip0_4_6113">
<rect width="48" height="48" fill="white"/>
</clipPath>
</defs>
</svg>
