<svg width="48" height="48" viewBox="0 0 48 48" fill="none" xmlns="http://www.w3.org/2000/svg">
<g clip-path="url(#clip0_4_6107)">
<mask id="mask0_4_6107" style="mask-type:luminance" maskUnits="userSpaceOnUse" x="0" y="0" width="48" height="48">
<path d="M48 0H0V48H48V0Z" fill="white"/>
</mask>
<g mask="url(#mask0_4_6107)">
<path d="M35.4 30.9999L30.2667 28.7999C28.1667 27.8999 25.7 28.6999 24.5167 30.6666L23.4167 32.4999C22.1 31.7666 20.4833 30.6833 18.4 28.6666C16.4667 26.7833 15.8833 25.6333 15.4333 24.6999C15.4167 24.6666 15.4 24.6166 15.3667 24.5833L18 22.4333C19.8 20.9666 20.2167 18.3666 18.95 16.4166L16.2167 12.1333C15.5167 11.0333 14.3667 10.2833 13.0833 10.0833C11.8 9.88327 10.4667 10.2333 9.46666 11.0666L6.6 13.4166C3.46666 15.9833 2.25 20.1166 3.5 23.9833C4.88333 28.2333 7.15 32.2166 10.0667 35.5166C10.75 36.2833 11.3 36.8666 12.0167 37.5166V30.7833C9.66666 27.6999 8.48333 24.7833 7.78333 22.5999C7.11666 20.5166 7.76666 18.2833 9.45 16.8999L12.3167 14.5499C12.3333 14.5499 12.3333 14.5333 12.3667 14.5333H12.3833C12.4167 14.5333 12.4333 14.5499 12.4333 14.5666L15.1667 18.8499C15.1833 18.8833 15.1833 18.9333 15.15 18.9666L12.0833 21.4666C10.6667 22.6333 10.2667 24.6499 11.1667 26.2499C11.2333 26.3833 11.3167 26.5333 11.4 26.7166C11.95 27.8166 12.7833 29.4999 15.2667 31.9166C18.0833 34.6499 20.2 35.9333 21.9 36.8166C23.6833 37.7499 25.9 37.1333 26.9333 35.3999L28.3667 32.9999C28.3833 32.9666 28.4333 32.9499 28.4667 32.9666L33.6 35.1666C33.6167 35.1666 33.6333 35.1833 33.65 35.2166C33.6667 35.2499 33.65 35.2666 33.6333 35.2833L32.0833 37.8666C30.8333 39.9666 28.3167 40.9833 25.9833 40.3166C23 39.4666 18.7167 37.6499 14.9833 34.1833V39.9333C18.45 42.3666 22.0667 43.8666 24.7667 44.6333C25.65 44.8833 26.55 44.9999 27.45 44.9999C30.8667 44.9999 34.1333 43.2166 35.9667 40.1499L37.5167 37.5666C38.2 36.4166 38.35 35.0499 37.95 33.7999C37.55 32.5499 36.6167 31.5166 35.4 30.9999Z" fill="#200000"/>
<path d="M42.0917 9.09158L38.91 5.90991L28.5016 16.3182V9.26658L24.0016 10.7666V19.1832C24.0016 21.8332 26.1683 23.9999 28.8183 23.9999H37.3516L38.735 19.4999H31.6833L42.0917 9.09158Z" fill="#200000"/>
</g>
</g>
<defs>
<clipPath id="clip0_4_6107">
<rect width="48" height="48" fill="white"/>
</clipPath>
</defs>
</svg>
