<svg width="48" height="48" viewBox="0 0 48 48" fill="none" xmlns="http://www.w3.org/2000/svg">
<g clip-path="url(#clip0_4_6110)">
<mask id="mask0_4_6110" style="mask-type:luminance" maskUnits="userSpaceOnUse" x="0" y="0" width="48" height="48">
<path d="M48 0H0V48H48V0Z" fill="white"/>
</mask>
<g mask="url(#mask0_4_6110)">
<path d="M38.7833 25.8999C34.8167 23.8166 30.4167 22.5666 26.0167 22.2499C25.8333 22.2332 25.6667 22.2332 25.4833 22.2166V26.7166C25.55 26.7166 25.6333 26.7166 25.7 26.7332C30.4667 27.0666 34.3 28.6332 36.6833 29.8666C38.6167 30.8832 39.7167 32.9332 39.4833 35.0999L39.0833 38.7832C39.0833 38.7999 39.0833 38.8166 39.05 38.8499C39.0167 38.8666 39 38.8665 38.9833 38.8665L34.0333 37.7332C34 37.7165 33.9667 37.6832 33.9667 37.6499L34.4 33.7166C34.6 31.8832 33.4667 30.1832 31.7167 29.6499C31.5833 29.6165 31.4167 29.5499 31.2167 29.4832C30.0667 29.0832 28.3333 28.4832 24.95 28.4832H24.8167C20.9 28.4999 18.4833 29.0666 16.6333 29.6166C14.7 30.1999 13.55 32.1999 14.0333 34.1499L14.6833 36.8665C14.7 36.8999 14.6667 36.9499 14.6333 36.9666L9.43333 38.9832C9.41667 38.9832 9.4 38.9999 9.36667 38.9832C9.33333 38.9665 9.33333 38.9499 9.33333 38.9332L8.63333 35.9999C8.06667 33.6166 9.15 31.1499 11.2833 29.9832C13.8833 28.5666 17.7667 26.9999 22.5167 26.7166V22.2166C16.8333 22.4999 12.2167 24.3499 9.13333 26.0332C5.21667 28.1666 3.2 32.6999 4.26667 37.0499L4.96667 39.9832C5.28333 41.2665 6.13333 42.3499 7.3 42.9665C7.96667 43.3165 8.7 43.4832 9.43333 43.4832C10 43.4832 10.55 43.3832 11.0833 43.1665L16.2833 41.1499C18.4167 40.3165 19.6167 38.0166 19.0833 35.7999L18.5833 33.7332C20.0333 33.3332 21.9333 32.9832 24.85 32.9666C27.55 32.9666 28.7667 33.3832 29.75 33.7166C29.8 33.7332 29.8333 33.7499 29.8833 33.7666L29.5167 37.1332C29.2667 39.4499 30.7833 41.5832 33.05 42.0999L38 43.2332C39.2667 43.5332 40.6167 43.2665 41.6833 42.4999C42.75 41.7499 43.45 40.5666 43.5833 39.2666L43.9833 35.5832C44.4167 31.5999 42.3833 27.7832 38.7833 25.8999Z" fill="#200000"/>
<path d="M35.9 2.83325L24.1633 14.4549C23.9917 14.6149 23.7167 14.6166 23.5583 14.4583L16.55 7.44992H21.0017L19.4517 2.94992H12.4683C10.5183 2.94992 8.935 4.53325 8.935 6.48325V13.4333L13.435 14.9333V10.6983L20.3767 17.6399C21.3283 18.5916 22.59 19.0699 23.855 19.0699C25.12 19.0699 26.3433 18.6083 27.3 17.6833L39.0683 6.03158L35.9017 2.83325H35.9Z" fill="#200000"/>
</g>
</g>
<defs>
<clipPath id="clip0_4_6110">
<rect width="48" height="48" fill="white"/>
</clipPath>
</defs>
</svg>
