<svg width="48" height="48" viewBox="0 0 48 48" fill="none" xmlns="http://www.w3.org/2000/svg">
<g clip-path="url(#clip0_4_6106)">
<mask id="mask0_4_6106" style="mask-type:luminance" maskUnits="userSpaceOnUse" x="0" y="0" width="48" height="48">
<path d="M48 0H0V48H48V0Z" fill="white"/>
</mask>
<g mask="url(#mask0_4_6106)">
<path d="M37.9333 33.7999C37.5333 32.5499 36.6 31.5166 35.3833 30.9999L30.25 28.7999C28.15 27.8999 25.6833 28.6999 24.5 30.6666L23.4 32.4999C22.0833 31.7666 20.4667 30.6833 18.3833 28.6666C16.45 26.7833 15.8667 25.6333 15.4167 24.6999C15.4 24.6666 15.3833 24.6166 15.35 24.5833L17.9833 22.4333C19.7833 20.9666 20.2 18.3666 18.9333 16.4166L16.2 12.1333C15.5 11.0333 14.35 10.2833 13.0667 10.0833C11.7833 9.88327 10.45 10.2333 9.45 11.0666L6.58333 13.4166C3.45 15.9833 2.23333 20.1166 3.48333 23.9833C4.86667 28.2333 7.13333 32.2166 10.05 35.5166C10.7333 36.2833 11.2833 36.8666 12 37.5166V30.7833C9.65 27.6999 8.46667 24.7833 7.76667 22.5999C7.1 20.5166 7.75 18.2833 9.43333 16.8999L12.3 14.5499C12.3167 14.5499 12.3167 14.5333 12.35 14.5333H12.3667C12.4 14.5333 12.4167 14.5499 12.4167 14.5666L15.15 18.8499C15.1667 18.8833 15.1667 18.9333 15.1333 18.9666L12.0667 21.4666C10.65 22.6333 10.25 24.6499 11.15 26.2499C11.2167 26.3833 11.3 26.5333 11.3833 26.7166C11.9333 27.8166 12.7667 29.4999 15.25 31.9166C18.0667 34.6499 20.1833 35.9333 21.8833 36.8166C23.6667 37.7499 25.8833 37.1333 26.9167 35.3999L28.35 32.9999C28.3667 32.9666 28.4167 32.9499 28.45 32.9666L33.5833 35.1666C33.6 35.1666 33.6167 35.1833 33.6333 35.2166C33.65 35.2499 33.6333 35.2666 33.6167 35.2833L32.0667 37.8666C30.8167 39.9666 28.3 40.9833 25.9667 40.3166C22.9833 39.4666 18.7 37.6499 14.9667 34.1833V39.9333C18.4333 42.3666 22.05 43.8666 24.75 44.6333C25.6333 44.8833 26.5333 44.9999 27.4333 44.9999C30.85 44.9999 34.1167 43.2166 35.95 40.1499L37.5 37.5666C38.1833 36.4166 38.3333 35.0499 37.9333 33.7999Z" fill="#200000"/>
<path d="M32.1833 26.5499C31.8333 26.5499 31.5 26.4666 31.1833 26.2833C30.5667 25.9333 30.1833 25.2666 30.1833 24.5499V19.5166L26.1 21.9499L26.1333 17.2666L30.0833 14.8999L26.1333 12.6333V8.01659L30.1833 10.3499V5.01659C30.1833 4.29992 30.5667 3.64992 31.1833 3.28325C31.8 2.93325 32.5667 2.93325 33.1833 3.28325L42.4833 8.66659C43.1 9.01659 43.4833 9.66659 43.4833 10.3833C43.4833 11.0999 43.1167 11.7499 42.5167 12.1166L37.9833 14.8333L42.4833 17.4166C43.1 17.7666 43.4833 18.4333 43.4833 19.1499C43.4833 19.8666 43.1 20.5166 42.4833 20.8833L33.1833 26.2666C32.8833 26.4666 32.5333 26.5499 32.1833 26.5499ZM34.1833 17.2666V21.0833L37.4833 19.1666L34.1833 17.2666ZM34.1833 8.49992V12.4666L37.55 10.4499L34.1833 8.49992Z" fill="#200000"/>
</g>
</g>
<defs>
<clipPath id="clip0_4_6106">
<rect width="48" height="48" fill="white"/>
</clipPath>
</defs>
</svg>
