<svg width="48" height="48" viewBox="0 0 48 48" fill="none" xmlns="http://www.w3.org/2000/svg">
<mask id="mask0_4_5957" style="mask-type:alpha" maskUnits="userSpaceOnUse" x="0" y="0" width="48" height="48">
<rect width="48" height="48" fill="#D9D9D9"/>
</mask>
<g mask="url(#mask0_4_5957)">
<path d="M41.3967 30.3366C40.98 29.0866 40.0633 28.0532 38.8466 27.5366L33.7133 25.3366C31.6133 24.4366 29.1466 25.2366 27.9633 27.2032L26.88 29.0366C25.5633 28.3032 23.9466 27.2199 21.8633 25.2032C19.93 23.3199 19.3466 22.1699 18.8966 21.2366C18.88 21.2032 18.8633 21.1532 18.83 21.1199L21.4633 18.9699C23.2633 17.5032 23.68 14.9032 22.4133 12.9532L19.68 8.66989C18.98 7.56989 17.83 6.81989 16.5466 6.61989C15.2633 6.41989 13.93 6.76989 12.93 7.60323L10.0633 9.95323C6.92998 12.5199 5.71332 16.6532 6.96332 20.5199C8.34665 24.7699 10.6133 28.7532 13.53 32.0532C14.1966 32.8199 14.78 33.4032 15.48 34.0532V27.3199C13.13 24.2366 11.9466 21.3199 11.2466 19.1366C10.58 17.0532 11.23 14.8199 12.9133 13.4366L15.78 11.0866C15.78 11.0866 15.7966 11.0699 15.83 11.0699H15.8466C15.88 11.0699 15.8966 11.0866 15.8966 11.1032L18.63 15.3866C18.6466 15.4199 18.6466 15.4699 18.6133 15.5032L15.5466 18.0032C14.13 19.1699 13.73 21.1866 14.63 22.7866C14.6966 22.9199 14.78 23.0699 14.8633 23.2532C15.4133 24.3532 16.2466 26.0366 18.73 28.4532C21.5466 31.1866 23.6633 32.4699 25.3633 33.3532C27.1466 34.2866 29.3633 33.6699 30.3967 31.9366L31.83 29.5366C31.8466 29.5032 31.8967 29.4866 31.93 29.5032L37.0633 31.7032C37.08 31.7032 37.0966 31.7199 37.1133 31.7532C37.13 31.7866 37.1133 31.8032 37.1133 31.8199L35.5633 34.4032C34.3133 36.5032 31.7966 37.5199 29.4633 36.8532C26.4633 36.0032 22.1966 34.1866 18.4633 30.7199V36.4699C21.93 38.9032 25.5466 40.4032 28.23 41.1699C29.1133 41.4199 30.0133 41.5366 30.9133 41.5366C34.33 41.5366 37.5966 39.7532 39.43 36.6866L40.98 34.1032C41.6467 32.9532 41.8133 31.5866 41.3967 30.3366Z" fill="#200000"/>
</g>
</svg>
