<svg width="48" height="48" viewBox="0 0 48 48" fill="none" xmlns="http://www.w3.org/2000/svg">
<g clip-path="url(#clip0_4_6105)">
<mask id="mask0_4_6105" style="mask-type:luminance" maskUnits="userSpaceOnUse" x="0" y="0" width="48" height="48">
<path d="M48 0H0V48H48V0Z" fill="white"/>
</mask>
<g mask="url(#mask0_4_6105)">
<path d="M38.7833 17.1667C34.8166 15.0834 30.4166 13.8334 26.0166 13.5167C25.8333 13.5001 25.6666 13.5001 25.4833 13.4834V17.9834C25.55 17.9834 25.6166 17.9834 25.7 18.0001C30.4666 18.3334 34.3 19.9001 36.6833 21.1334C38.6166 22.1501 39.7166 24.2001 39.4833 26.3667L39.0833 30.0501C39.0833 30.0667 39.0833 30.0834 39.05 30.1167C39.0166 30.1334 39 30.1334 38.9833 30.1334L34.0333 29.0001C34 28.9834 33.9666 28.9501 33.9666 28.9167L34.4 24.9834C34.6 23.1501 33.4666 21.4501 31.7166 20.9167C31.5833 20.8834 31.4166 20.8167 31.2166 20.7501C30.0666 20.3501 28.3333 19.7501 24.95 19.7501H24.8166C20.9 19.7667 18.4833 20.3334 16.65 20.8834C14.7166 21.4667 13.5666 23.4667 14.05 25.4167L14.7 28.1334C14.7166 28.1667 14.6833 28.2167 14.65 28.2334L9.44995 30.2501C9.43329 30.2501 9.41662 30.2667 9.38329 30.2501C9.34995 30.2334 9.34995 30.2167 9.34995 30.2001L8.64995 27.2667C8.06662 24.8834 9.16662 22.4167 11.3 21.2501C13.9 19.8334 17.7833 18.2667 22.5333 17.9834V13.4834C16.8666 13.7667 12.2333 15.6167 9.14995 17.3001C5.23329 19.4334 3.23329 23.9667 4.28329 28.3167L4.98329 31.2501C5.29995 32.5334 6.14995 33.6167 7.31662 34.2334C7.98329 34.5834 8.71662 34.7501 9.44995 34.7501C10.0166 34.7501 10.5666 34.6501 11.1 34.4334L16.3 32.4167C18.4333 31.5834 19.6333 29.2834 19.1 27.0667L18.6 25.0001C20.05 24.6001 21.9666 24.2501 24.8666 24.2334C27.5666 24.2334 28.7833 24.6501 29.7666 24.9834C29.8166 25.0001 29.85 25.0167 29.9 25.0334L29.5333 28.4001C29.2833 30.7167 30.8 32.8501 33.0666 33.3667L38.0166 34.5001C39.2833 34.8001 40.6333 34.5334 41.7 33.7667C42.7666 33.0001 43.4666 31.8334 43.6 30.5334L44 26.8501C44.4166 22.8667 42.3833 19.0501 38.7833 17.1667Z" fill="#200000"/>
</g>
</g>
<defs>
<clipPath id="clip0_4_6105">
<rect width="48" height="48" fill="white"/>
</clipPath>
</defs>
</svg>
