<svg width="48" height="48" viewBox="0 0 48 48" fill="none" xmlns="http://www.w3.org/2000/svg">
<mask id="mask0_4_6145" style="mask-type:alpha" maskUnits="userSpaceOnUse" x="0" y="0" width="48" height="48">
<rect width="48" height="48" fill="#D9D9D9"/>
</mask>
<g mask="url(#mask0_4_6145)">
<path d="M37.2 26.25V21.75H46V26.25H37.2ZM39.84 42L32.8 36.6L35.44 33L42.48 38.4L39.84 42ZM35.44 15L32.8 11.4L39.84 6L42.48 9.6L35.44 15ZM8.6 39.75V30.75H6.4C5.19 30.75 4.15417 30.3094 3.2925 29.4281C2.43083 28.5469 2 27.4875 2 26.25V21.75C2 20.5125 2.43083 19.4531 3.2925 18.5719C4.15417 17.6906 5.19 17.25 6.4 17.25H15.2L26.2 10.5V37.5L15.2 30.75H13V42L8.6 39.75ZM21.8 29.5125V18.4875L16.41 21.75H6.4V26.25H16.41L21.8 29.5125ZM28.4 31.5375V16.4625C29.39 17.3625 30.1875 18.4594 30.7925 19.7531C31.3975 21.0469 31.7 22.4625 31.7 24C31.7 25.5375 31.3975 26.9531 30.7925 28.2469C30.1875 29.5406 29.39 30.6375 28.4 31.5375Z" fill="#200000"/>
</g>
</svg>
