<svg width="48" height="48" viewBox="0 0 48 48" fill="none" xmlns="http://www.w3.org/2000/svg">
<mask id="mask0_4_5946" style="mask-type:alpha" maskUnits="userSpaceOnUse" x="0" y="0" width="48" height="48">
<rect width="48" height="48" fill="#D9D9D9"/>
</mask>
<g mask="url(#mask0_4_5946)">
<path d="M38.85 9.15001C30.6616 0.963343 17.3383 0.963343 9.14998 9.15001C0.961644 17.3383 0.961644 30.66 9.14998 38.8483C13.2433 42.9417 18.6216 44.99 24 44.99C29.3783 44.99 34.755 42.9433 38.85 38.8483C47.0383 30.66 47.0383 17.3383 38.85 9.15001ZM35.6683 35.6667C29.235 42.1 18.7666 42.1 12.3333 35.6667C5.89998 29.2333 5.89998 18.765 12.3333 12.3317C15.55 9.11501 19.775 7.50668 24 7.50668C28.225 7.50668 32.45 9.11501 35.6666 12.3317C42.1 18.765 42.1 29.2333 35.6666 35.6667H35.6683Z" fill="#200000"/>
<path d="M30.895 13.9233L24 20.8183L17.105 13.9233L13.9233 17.105L20.8183 24L13.9233 30.895L17.105 34.0767L24 27.1817L30.895 34.0767L34.0767 30.895L27.1817 24L34.0767 17.105L30.895 13.9233Z" fill="#200000"/>
</g>
</svg>
