<svg width="48" height="48" viewBox="0 0 48 48" fill="none" xmlns="http://www.w3.org/2000/svg">
<g clip-path="url(#clip0_4_5973)">
<mask id="mask0_4_5973" style="mask-type:luminance" maskUnits="userSpaceOnUse" x="0" y="0" width="48" height="48">
<path d="M48 0H0V48H48V0Z" fill="white"/>
</mask>
<g mask="url(#mask0_4_5973)">
<path d="M40.0867 9.02007L7.92 8.99341H7.91667C6.60333 8.99341 5.37 9.50341 4.44167 10.4317C3.51167 11.3601 3 12.5951 3 13.9101V34.0901C3 36.8017 5.205 39.0067 7.91667 39.0067H28.5V34.5067H7.91667C7.68667 34.5067 7.5 34.3201 7.5 34.0901V13.9101C7.5 13.7667 7.56667 13.6717 7.62167 13.6151C7.67667 13.5601 7.77333 13.4934 7.91667 13.4934L40.0833 13.5201C40.3133 13.5201 40.5 13.7067 40.5 13.9367V34.0901C40.5 34.3201 40.3133 34.5067 40.0833 34.5067H37.5V39.0067H40.0833C42.795 39.0067 45 36.8017 45 34.0901V13.9367C45 11.2284 42.7967 9.02174 40.0867 9.02007Z" fill="#200000"/>
<path d="M18 25.5L19.5 21H12L10.5 25.5H18Z" fill="#200000"/>
<path d="M35.25 31.5H30.75V43.5H35.25V31.5Z" fill="#200000"/>
<path d="M35.25 24H30.75V28.5H35.25V24Z" fill="#200000"/>
</g>
</g>
<defs>
<clipPath id="clip0_4_5973">
<rect width="48" height="48" fill="white"/>
</clipPath>
</defs>
</svg>
