<svg width="48" height="48" viewBox="0 0 48 48" fill="none" xmlns="http://www.w3.org/2000/svg">
<g clip-path="url(#clip0_4_5972)">
<mask id="mask0_4_5972" style="mask-type:luminance" maskUnits="userSpaceOnUse" x="0" y="0" width="48" height="48">
<path d="M48 0H0V48H48V0Z" fill="white"/>
</mask>
<g mask="url(#mask0_4_5972)">
<path d="M7.50002 34.0901V13.9101C7.50002 13.7667 7.56669 13.6717 7.62169 13.6151C7.67669 13.5601 7.77335 13.4934 7.91669 13.4934L40.0834 13.5201C40.3134 13.5201 40.5 13.7067 40.5 13.9367V28.5001H45V13.9367C45 11.2284 42.7967 9.02174 40.0867 9.02007L7.92002 8.99341H7.91502C6.60335 8.99341 5.36835 9.50341 4.44002 10.4317C3.51002 11.3601 2.99835 12.5951 2.99835 13.9101V34.0901C2.99835 36.8017 5.20335 39.0067 7.91502 39.0067H23.995V34.5067H7.91669C7.68669 34.5067 7.50002 34.3201 7.50002 34.0901Z" fill="#200000"/>
<path d="M18 25.5L19.5 21H12L10.5 25.5H18Z" fill="#200000"/>
<path d="M35.5584 25.6785L26.7917 34.6051V43.5001H36.3134L45 34.8135L35.5584 25.6785ZM34.45 39.0001H31.2934V36.4451L35.64 32.0185L38.5834 34.8668L34.45 39.0001Z" fill="#200000"/>
</g>
</g>
<defs>
<clipPath id="clip0_4_5972">
<rect width="48" height="48" fill="white"/>
</clipPath>
</defs>
</svg>
