<svg width="48" height="48" viewBox="0 0 48 48" fill="none" xmlns="http://www.w3.org/2000/svg">
<g clip-path="url(#clip0_4_5974)">
<mask id="mask0_4_5974" style="mask-type:luminance" maskUnits="userSpaceOnUse" x="0" y="0" width="48" height="48">
<path d="M48 0H0V48H48V0Z" fill="white"/>
</mask>
<g mask="url(#mask0_4_5974)">
<path d="M26.25 16.5051V11.9834L21.75 13.4834V16.5017C18.78 16.7984 16.5467 17.7284 14.96 19.3201C11.95 22.3401 11.9667 26.9634 11.9817 31.8584C11.9817 32.2301 11.985 32.6051 11.985 32.9834H16.485C16.485 32.6001 16.485 32.2201 16.4817 31.8434C16.4684 27.7384 16.4567 24.1917 18.1467 22.4967C18.9117 21.7301 20.1 21.2451 21.7484 21.0284V29.9834L26.2484 28.5351V21.0334C27.8767 21.2517 29.0534 21.7351 29.81 22.4967C31.5 24.1934 31.4884 27.7384 31.475 31.8434C31.475 32.2201 31.4717 32.6001 31.4717 32.9834H35.9717C35.9717 32.6051 35.9717 32.2301 35.975 31.8584C35.9917 26.9634 36.0067 22.3384 32.9967 19.3201C31.4184 17.7367 29.1967 16.8084 26.2467 16.5067L26.25 16.5051Z" fill="#200000"/>
<path d="M29.0833 3H18.9167C10.14 3 3 10.14 3 18.9167V29.0833C3 37.86 10.14 45 18.9167 45H29.0833C37.86 45 45 37.86 45 29.0833V18.9167C45 10.14 37.86 3 29.0833 3ZM40.5 29.0833C40.5 35.3783 35.3783 40.5 29.0833 40.5H18.9167C12.6217 40.5 7.5 35.3783 7.5 29.0833V18.9167C7.5 12.6217 12.6217 7.5 18.9167 7.5H29.0833C35.3783 7.5 40.5 12.6217 40.5 18.9167V29.0833Z" fill="#200000"/>
</g>
</g>
<defs>
<clipPath id="clip0_4_5974">
<rect width="48" height="48" fill="white"/>
</clipPath>
</defs>
</svg>
