<svg width="48" height="48" viewBox="0 0 48 48" fill="none" xmlns="http://www.w3.org/2000/svg">
<g clip-path="url(#clip0_4_5980)">
<mask id="mask0_4_5980" style="mask-type:luminance" maskUnits="userSpaceOnUse" x="0" y="0" width="48" height="48">
<path d="M48 0H0V48H48V0Z" fill="white"/>
</mask>
<g mask="url(#mask0_4_5980)">
<path d="M21.77 13.5V16.5184C18.8 16.815 16.5666 17.745 14.98 19.3367C11.97 22.3567 11.9866 26.98 12.0016 31.875C12.0016 32.2467 12.005 32.6217 12.005 33H16.505C16.505 32.6167 16.505 32.2367 16.5016 31.86C16.4883 27.755 16.4766 24.2084 18.1666 22.5134C18.9316 21.7467 20.12 21.2617 21.7683 21.045V30L26.2683 28.5517V21.05C27.8966 21.27 29.0733 21.7534 29.83 22.5134C31.52 24.21 31.5083 27.755 31.495 31.86C31.495 32.2367 31.4916 32.6167 31.4916 33H35.9916C35.9916 32.6217 35.9916 32.2467 35.995 31.875C36.0117 26.98 36.0266 22.355 33.0166 19.3367C31.4383 17.7534 29.2167 16.825 26.2666 16.5234V12.0017L21.7666 13.5017L21.77 13.5Z" fill="#200000"/>
<path d="M29.0833 3H18.9167C14.5883 3 10.4667 4.79333 7.5 7.835V3.00167H3V10.7483C3 13.0933 4.90833 15.0017 7.25333 15.0017H15V10.5017H11.2083C13.29 8.60333 16.04 7.5 18.9167 7.5H29.0833C35.3783 7.5 40.5 12.6217 40.5 18.9167V29.0833C40.5 35.3783 35.3783 40.5 29.0833 40.5H18.9167C12.6217 40.5 7.5 35.3783 7.5 29.0833V21H3V29.0833C3 37.86 10.14 45 18.9167 45H29.0833C37.86 45 45 37.86 45 29.0833V18.9167C45 10.14 37.86 3 29.0833 3Z" fill="#200000"/>
</g>
</g>
<defs>
<clipPath id="clip0_4_5980">
<rect width="48" height="48" fill="white"/>
</clipPath>
</defs>
</svg>
