<svg width="48" height="48" viewBox="0 0 48 48" fill="none" xmlns="http://www.w3.org/2000/svg">
<g clip-path="url(#clip0_4_6016)">
<mask id="mask0_4_6016" style="mask-type:luminance" maskUnits="userSpaceOnUse" x="0" y="0" width="48" height="48">
<path d="M48 0H0V48H48V0Z" fill="white"/>
</mask>
<g mask="url(#mask0_4_6016)">
<path d="M30 26.25H36L37.5 21.75H31.5L30 26.25Z" fill="#200000"/>
</g>
<path d="M43.44 7.79491C42.4483 6.86825 41.1033 6.38991 39.75 6.48158L7.58333 8.66658C5.01333 8.84158 3 10.9966 3 13.5716V19.9999L7.5 17.9999V13.5732C7.5 13.3549 7.67 13.1716 7.88833 13.1582L40.055 10.9732H40.085C40.2183 10.9732 40.31 11.0332 40.3667 11.0849C40.4267 11.1416 40.4983 11.2399 40.4983 11.3899V37.0849L40.5 37.0832C40.5 37.3132 40.3133 37.4999 40.0833 37.4999H30L28 41.9982H40.0833C42.795 41.9982 45 39.7932 45 37.0816V11.3866C45 10.0299 44.4317 8.71991 43.44 7.79491Z" fill="#200000"/>
<path fill-rule="evenodd" clip-rule="evenodd" d="M14 21.9999C11.0493 21.9999 8.28579 22.4747 6.18615 23.3146C5.14188 23.7323 4.16258 24.2797 3.41163 24.9898C2.65647 25.704 2 26.7205 2 27.9999C2 29.2794 2.65647 30.2959 3.41163 31.01C4.16258 31.7202 5.14188 32.2676 6.18615 32.6853C8.28579 33.5252 11.0493 33.9999 14 33.9999C16.9507 33.9999 19.7142 33.5252 21.8138 32.6853C22.8581 32.2676 23.8374 31.7202 24.5884 31.01C25.3435 30.2959 26 29.2794 26 27.9999C26 26.7205 25.3435 25.704 24.5884 24.9898C23.8374 24.2797 22.8581 23.7323 21.8138 23.3146C19.7142 22.4747 16.9507 21.9999 14 21.9999ZM6.16007 27.8961C6.11741 27.9364 6.08451 27.971 6.05929 27.9999C6.08451 28.0288 6.11741 28.0635 6.16007 28.1038C6.42118 28.3507 6.90634 28.6653 7.67171 28.9714C9.19136 29.5793 11.4279 29.9999 14 29.9999C16.5721 29.9999 18.8086 29.5793 20.3283 28.9714C21.0937 28.6653 21.5788 28.3507 21.8399 28.1038C21.8826 28.0635 21.9155 28.0288 21.9407 27.9999C21.9155 27.971 21.8826 27.9364 21.8399 27.8961C21.5788 27.6491 21.0937 27.3346 20.3283 27.0285C18.8086 26.4206 16.5721 25.9999 14 25.9999C11.4279 25.9999 9.19136 26.4206 7.67171 27.0285C6.90634 27.3346 6.42118 27.6491 6.16007 27.8961Z" fill="#200000"/>
<path d="M2.58204 37.9999C2.23344 38.5675 2 39.237 2 39.9999C2 41.2794 2.65647 42.2959 3.41163 43.01C4.16258 43.7202 5.14188 44.2676 6.18615 44.6853C8.28579 45.5252 11.0493 45.9999 14 45.9999C16.9507 45.9999 19.7142 45.5252 21.8138 44.6853C22.8581 44.2676 23.8374 43.7202 24.5884 43.01C25.3435 42.2959 26 41.2794 26 39.9999C26 39.237 25.7666 38.5675 25.418 37.9999C25.182 38.3842 24.8932 38.7217 24.5884 39.01C23.8374 39.7202 22.8581 40.2676 21.8138 40.6853C19.7142 41.5252 16.9507 41.9999 14 41.9999C11.0493 41.9999 8.28579 41.5252 6.18615 40.6853C5.14188 40.2676 4.16258 39.7202 3.41163 39.01C3.10679 38.7217 2.81803 38.3842 2.58204 37.9999Z" fill="#200000"/>
<path d="M2.58204 31.9999C2.23344 32.5675 2 33.237 2 33.9999C2 35.2794 2.65647 36.2959 3.41163 37.01C4.16258 37.7202 5.14188 38.2676 6.18615 38.6853C8.28579 39.5252 11.0493 39.9999 14 39.9999C16.9507 39.9999 19.7142 39.5252 21.8138 38.6853C22.8581 38.2676 23.8374 37.7202 24.5884 37.01C25.3435 36.2959 26 35.2794 26 33.9999C26 33.237 25.7666 32.5675 25.418 31.9999C25.182 32.3842 24.8932 32.7217 24.5884 33.01C23.8374 33.7202 22.8581 34.2676 21.8138 34.6853C19.7142 35.5252 16.9507 35.9999 14 35.9999C11.0493 35.9999 8.28579 35.5252 6.18615 34.6853C5.14188 34.2676 4.16258 33.7202 3.41163 33.01C3.10679 32.7217 2.81803 32.3842 2.58204 31.9999Z" fill="#200000"/>
</g>
<defs>
<clipPath id="clip0_4_6016">
<rect width="48" height="48" fill="white"/>
</clipPath>
</defs>
</svg>
