<svg width="48" height="48" viewBox="0 0 48 48" fill="none" xmlns="http://www.w3.org/2000/svg">
<g clip-path="url(#clip0_4_6082)">
<mask id="mask0_4_6082" style="mask-type:luminance" maskUnits="userSpaceOnUse" x="0" y="0" width="48" height="48">
<path d="M48 0H0V48H48V0Z" fill="white"/>
</mask>
<g mask="url(#mask0_4_6082)">
<path d="M40.1167 40.4916H27.75L26.25 35.9916H40.1167C40.3333 35.9916 40.5 35.8083 40.5 35.6083V12.3916C40.5 12.175 40.3167 12.0083 40.1167 12.0083H7.9C7.68333 12.0083 7.51666 12.1916 7.51666 12.3916V17.2416L3.01666 15.7416V12.3916C3.01666 9.69163 5.21666 7.5083 7.9 7.5083H40.1167C42.8167 7.5083 45 9.7083 45 12.3916V35.6083C45 38.2916 42.8167 40.4916 40.1167 40.4916Z" fill="#200000"/>
<path d="M9.75 40.4917H5.25C5.25 39.2517 4.24 38.2417 3 38.2417V33.7417C6.72167 33.7417 9.75 36.77 9.75 40.4917Z" fill="#200000"/>
<path d="M16.5 40.4917H12C12 35.5284 7.96333 31.4917 3 31.4917V26.9917C10.4433 26.9917 16.5 33.0484 16.5 40.4917Z" fill="#200000"/>
<path d="M23.25 40.4917H18.75C18.75 31.8067 11.685 24.7417 3 24.7417V20.2417C14.1667 20.2417 23.25 29.325 23.25 40.4917Z" fill="#200000"/>
</g>
</g>
<defs>
<clipPath id="clip0_4_6082">
<rect width="48" height="48" fill="white"/>
</clipPath>
</defs>
</svg>
