<svg width="48" height="48" viewBox="0 0 48 48" fill="none" xmlns="http://www.w3.org/2000/svg">
<g clip-path="url(#clip0_4_6011)">
<mask id="mask0_4_6011" style="mask-type:luminance" maskUnits="userSpaceOnUse" x="0" y="0" width="48" height="48">
<path d="M48 0H0V48H48V0Z" fill="white"/>
</mask>
<g mask="url(#mask0_4_6011)">
<path d="M45 28.5V18.9167C45 10.14 37.86 3 29.0833 3H18.9167C14.5883 3 10.4667 4.79333 7.5 7.835V3.00167H3V10.7483C3 13.0933 4.90833 15.0017 7.25333 15.0017H14.8983C14.0417 15.8867 13.5133 17.0917 13.5133 18.4167V29.5833C13.5133 32.295 15.7183 34.5 18.43 34.5H29.5967C30.9167 34.5 32.1167 33.9767 33 33.1267V37.5H36.79C34.7083 39.3967 31.96 40.5 29.0833 40.5H18.9167C12.6217 40.5 7.5 35.3783 7.5 29.0833V18.9167H3V29.0833C3 37.86 10.14 45 18.9167 45H29.0833C33.4117 45 37.5333 43.2067 40.5 40.165V45H45V37.2533C45 34.9083 43.0917 33 40.7467 33H33.1267C33.9833 32.115 34.5133 30.91 34.5133 29.5833V18.4167C34.5133 15.705 32.3083 13.5 29.5967 13.5H18.43C17.0967 13.5 15.8867 14.035 15 14.8983V10.5017H11.2083C13.29 8.60333 16.04 7.5 18.9167 7.5H29.0833C35.3783 7.5 40.5 12.6217 40.5 18.9167V28.5H45ZM18.0133 18.4167C18.0133 18.1867 18.2 18 18.43 18H21.7633V21H26.2633V18H29.5967C29.8267 18 30.0133 18.1867 30.0133 18.4167V29.5833C30.0133 29.8133 29.8267 30 29.5967 30H18.43C18.2 30 18.0133 29.8133 18.0133 29.5833V18.4167Z" fill="#200000"/>
</g>
</g>
<defs>
<clipPath id="clip0_4_6011">
<rect width="48" height="48" fill="white"/>
</clipPath>
</defs>
</svg>
