<svg width="48" height="48" viewBox="0 0 48 48" fill="none" xmlns="http://www.w3.org/2000/svg">
<mask id="mask0_4_6018" style="mask-type:alpha" maskUnits="userSpaceOnUse" x="0" y="0" width="48" height="48">
<rect width="48" height="48" fill="#D9D9D9"/>
</mask>
<g mask="url(#mask0_4_6018)">
<path d="M22.46 41.6L33.46 20.15H25.76V6.4L14.76 27.85H22.46V41.6ZM24 46C20.9567 46 18.0967 45.4225 15.42 44.2675C12.7433 43.1125 10.415 41.545 8.435 39.565C6.455 37.585 4.8875 35.2567 3.7325 32.58C2.5775 29.9033 2 27.0433 2 24C2 20.9567 2.5775 18.0967 3.7325 15.42C4.8875 12.7433 6.455 10.415 8.435 8.435C10.415 6.455 12.7433 4.8875 15.42 3.7325C18.0967 2.5775 20.9567 2 24 2C27.0433 2 29.9033 2.5775 32.58 3.7325C35.2567 4.8875 37.585 6.455 39.565 8.435C41.545 10.415 43.1125 12.7433 44.2675 15.42C45.4225 18.0967 46 20.9567 46 24C46 27.0433 45.4225 29.9033 44.2675 32.58C43.1125 35.2567 41.545 37.585 39.565 39.565C37.585 41.545 35.2567 43.1125 32.58 44.2675C29.9033 45.4225 27.0433 46 24 46ZM24 41.6C28.8767 41.6 33.0292 39.8858 36.4575 36.4575C39.8858 33.0292 41.6 28.8767 41.6 24C41.6 19.1233 39.8858 14.9708 36.4575 11.5425C33.0292 8.11417 28.8767 6.4 24 6.4C19.1233 6.4 14.9708 8.11417 11.5425 11.5425C8.11417 14.9708 6.4 19.1233 6.4 24C6.4 28.8767 8.11417 33.0292 11.5425 36.4575C14.9708 39.8858 19.1233 41.6 24 41.6Z" fill="#200000"/>
</g>
</svg>
