<svg width="48" height="48" viewBox="0 0 48 48" fill="none" xmlns="http://www.w3.org/2000/svg">
<g clip-path="url(#clip0_4_6120)">
<mask id="mask0_4_6120" style="mask-type:luminance" maskUnits="userSpaceOnUse" x="0" y="0" width="48" height="48">
<path d="M48 0H0V48H48V0Z" fill="white"/>
</mask>
<g mask="url(#mask0_4_6120)">
<path d="M17.25 21C22.2133 21 26.25 16.9633 26.25 12C26.25 7.03667 22.2133 3 17.25 3C12.2867 3 8.25 7.03667 8.25 12C8.25 16.9633 12.2867 21 17.25 21ZM17.25 7.5C19.7317 7.5 21.75 9.51833 21.75 12C21.75 14.4817 19.7317 16.5 17.25 16.5C14.7683 16.5 12.75 14.4817 12.75 12C12.75 9.51833 14.7683 7.5 17.25 7.5Z" fill="#200000"/>
<path d="M28.0833 25.5H7.91667C5.2 25.5 3 27.6 3 30.2V43.5L7.5 42V30.2C7.5 30.1667 7.63333 30 7.91667 30H28.0833C28.3667 30 28.5 30.1667 28.5 30.2V43.5L33 42V30.2C33 27.6167 30.8 25.5 28.0833 25.5Z" fill="#200000"/>
<path d="M41.98 12.5918L34.5383 19.4135L31.56 16.5468L28.44 19.7868L34.4617 25.5868L45.02 15.9085L41.98 12.5918Z" fill="#200000"/>
</g>
</g>
<defs>
<clipPath id="clip0_4_6120">
<rect width="48" height="48" fill="white"/>
</clipPath>
</defs>
</svg>
