<svg width="48" height="48" viewBox="0 0 48 48" fill="none" xmlns="http://www.w3.org/2000/svg">
<g clip-path="url(#clip0_4_6129)">
<mask id="mask0_4_6129" style="mask-type:luminance" maskUnits="userSpaceOnUse" x="0" y="0" width="48" height="48">
<path d="M48 0H0V48H48V0Z" fill="white"/>
</mask>
<g mask="url(#mask0_4_6129)">
<path d="M37.4784 31.5H4.47839V36H37.4784V31.5Z" fill="#200000"/>
<path d="M43.4784 31.5H38.9784V36H43.4784V31.5Z" fill="#200000"/>
<path d="M32.2451 25.9167C32.6784 26.35 33.1451 26.8 33.6451 27.3L36.8117 24.1167C36.3117 23.6167 35.8284 23.15 35.3951 22.7167C32.1617 19.5333 31.4784 18.7833 31.4784 16.5V6L26.9784 7.5V16.5C26.9784 20.7333 28.9617 22.6833 32.2451 25.9167Z" fill="#200000"/>
<path d="M41.2618 19.9C37.4951 16.45 37.4951 15.6667 37.4951 13.35V10.5L32.9951 12V13.35C32.9951 16.95 33.4618 18.8667 38.2118 23.2167C39.0618 24 39.0285 26.1667 38.9951 28.4667C38.9785 28.9667 38.9784 29.4833 38.9784 30H43.4784C43.4784 29.5167 43.4785 29.0167 43.5118 28.5333C43.5451 25.35 43.5951 22.05 41.2618 19.9Z" fill="#200000"/>
</g>
</g>
<defs>
<clipPath id="clip0_4_6129">
<rect width="48" height="48" fill="white"/>
</clipPath>
</defs>
</svg>
