<svg width="48" height="48" viewBox="0 0 48 48" fill="none" xmlns="http://www.w3.org/2000/svg">
<g clip-path="url(#clip0_4_6056)">
<mask id="mask0_4_6056" style="mask-type:luminance" maskUnits="userSpaceOnUse" x="0" y="0" width="48" height="48">
<path d="M48 0H0V48H48V0Z" fill="white"/>
</mask>
<g mask="url(#mask0_4_6056)">
<path d="M24 41.25C14.4883 41.25 6.75 33.5117 6.75 24C6.75 14.4883 14.4883 6.75 24 6.75C33.5117 6.75 41.25 14.4883 41.25 24C41.25 33.5117 33.5117 41.25 24 41.25ZM24 11.25C16.97 11.25 11.25 16.97 11.25 24C11.25 31.03 16.97 36.75 24 36.75C31.03 36.75 36.75 31.03 36.75 24C36.75 16.97 31.03 11.25 24 11.25Z" fill="#200000"/>
<path d="M39.7167 13.5C38 10.6667 35.4 8.41667 32.2833 7.18333L33.95 3C37.1283 4.27667 39.9017 6.35833 42.02 8.98333C42.3483 9.39 42.66 9.80833 42.955 10.24L39.7167 13.5Z" fill="#200000"/>
<path d="M6.90331 13.5C8.61998 10.6667 11.22 8.41667 14.3366 7.18333L12.67 3C9.49164 4.27667 6.71831 6.35833 4.59998 8.98333C4.27164 9.39 3.95998 9.80833 3.66498 10.24L6.90331 13.5Z" fill="#200000"/>
<path d="M27.6166 30.1L21.7 24.1833V15L26.2 16.5V22.3167L32.3 28.4167L27.6166 30.1Z" fill="#200000"/>
</g>
</g>
<defs>
<clipPath id="clip0_4_6056">
<rect width="48" height="48" fill="white"/>
</clipPath>
</defs>
</svg>
