<svg width="48" height="48" viewBox="0 0 48 48" fill="none" xmlns="http://www.w3.org/2000/svg">
<g clip-path="url(#clip0_4_5999)">
<mask id="mask0_4_5999" style="mask-type:luminance" maskUnits="userSpaceOnUse" x="0" y="0" width="48" height="48">
<path d="M48 0H0V48H48V0Z" fill="white"/>
</mask>
<g mask="url(#mask0_4_5999)">
<path d="M41.3133 23.955L28.7117 18.4083C30.965 16.435 32.04 14.0216 32.04 11.0366C32.04 6.60496 28.4333 2.99829 24.0017 2.99829C19.57 2.99829 15.9633 6.60496 15.9633 11.0366V14.9983L20.4633 13.4983V11.0366C20.4633 9.08496 22.05 7.49829 24.0017 7.49829C25.9533 7.49829 27.54 9.08496 27.54 11.0366C27.54 12.9883 26.91 15.055 22.345 17.0633L6.68667 23.955C4.90333 24.74 3.75 26.5066 3.75 28.455V28.835C3.75 31.5466 5.955 33.7516 8.66667 33.7516H39.3333C42.045 33.7516 44.25 31.5466 44.25 28.835V28.455C44.25 26.5066 43.0967 24.74 41.3133 23.9533V23.955ZM39.75 28.8366C39.75 29.0666 39.5633 29.2533 39.3333 29.2533H8.66667C8.43667 29.2533 8.25 29.0666 8.25 28.8366V28.4566C8.25 28.2916 8.34833 28.1416 8.5 28.075L24 21.2533L39.5 28.075C39.6517 28.1416 39.75 28.2916 39.75 28.4566V28.8366Z" fill="#200000"/>
</g>
</g>
<defs>
<clipPath id="clip0_4_5999">
<rect width="48" height="48" fill="white"/>
</clipPath>
</defs>
</svg>
