<svg width="48" height="48" viewBox="0 0 48 48" fill="none" xmlns="http://www.w3.org/2000/svg">
<g clip-path="url(#clip0_4_6131)">
<mask id="mask0_4_6131" style="mask-type:luminance" maskUnits="userSpaceOnUse" x="0" y="0" width="48" height="48">
<path d="M48 0H0V48H48V0Z" fill="white"/>
</mask>
<g mask="url(#mask0_4_6131)">
<path d="M36.55 20.6333H34.5167L33 25.1333H36.5667C38.7333 25.1333 40.5 26.9 40.5 29.0666C40.5 31.2333 38.7333 33 36.5667 33H19.5V37.5H36.5667C41.2167 37.5 44.9833 33.7166 44.9833 29.0666C44.9833 24.4166 41.2 20.6333 36.55 20.6333Z" fill="#200000"/>
<path d="M38.9917 7.4917L32.3483 13.545C29.9517 11.6017 26.9467 10.5167 23.8333 10.5167C18.645 10.5167 13.9483 13.4967 11.7033 18.0717C6.81833 18.595 3 22.7434 3 27.7667C3 31.2684 4.85667 34.3434 7.63667 36.0634L4.45833 38.9584L7.50833 42.0084L42 10.6L38.9917 7.4917ZM7.5 27.7667C7.5 24.8717 9.855 22.5167 12.75 22.5167H14.8083L15.3383 21.0167C16.6067 17.4284 20.0217 15.0167 23.8333 15.0167C25.6783 15.0167 27.465 15.5917 28.9633 16.63L11.2267 32.7917C9.07167 32.1367 7.5 30.1334 7.5 27.7684V27.7667Z" fill="#200000"/>
</g>
</g>
<defs>
<clipPath id="clip0_4_6131">
<rect width="48" height="48" fill="white"/>
</clipPath>
</defs>
</svg>
