<svg width="48" height="48" viewBox="0 0 48 48" fill="none" xmlns="http://www.w3.org/2000/svg">
<g clip-path="url(#clip0_4_6130)">
<mask id="mask0_4_6130" style="mask-type:luminance" maskUnits="userSpaceOnUse" x="0" y="0" width="48" height="48">
<path d="M48 0H0V48H48V0Z" fill="white"/>
</mask>
<g mask="url(#mask0_4_6130)">
<path d="M36.5667 37.5H19.5L21 33H36.5667C38.7333 33 40.5 31.2333 40.5 29.0667C40.5 26.9 38.7333 25.1333 36.5667 25.1333H32.9833L32.7833 23.1C32.3167 18.4833 28.4833 15 23.8333 15C20.0167 15 16.6 17.4 15.35 21L14.8167 22.5H12.75C9.85 22.5 7.5 24.85 7.5 27.75C7.5 30.65 9.85 33 12.75 33H16.5L15 37.5H12.75C7.36667 37.5 3 33.1333 3 27.75C3 22.7333 6.81667 18.5833 11.7 18.05C13.9333 13.4667 18.6333 10.5 23.8333 10.5C27.2 10.5 30.4333 11.75 32.9167 14.0167C34.8833 15.8 36.25 18.1 36.9 20.6333C41.4 20.8167 45 24.5333 45 29.0667C45 33.6 41.2167 37.5 36.5667 37.5Z" fill="#200000"/>
</g>
</g>
<defs>
<clipPath id="clip0_4_6130">
<rect width="48" height="48" fill="white"/>
</clipPath>
</defs>
</svg>
