<svg width="48" height="48" viewBox="0 0 48 48" fill="none" xmlns="http://www.w3.org/2000/svg">
<path fill-rule="evenodd" clip-rule="evenodd" d="M21.7408 8.15714L1.59322 13.8229L4.94487 17.7896L7.18932 17.1585L1.40814 31.3155C1.40814 35.2513 4.95506 38.4285 9.31529 38.4285C13.6755 38.4285 17.2224 35.2513 17.2224 31.3155L11.0033 16.0859L35.9936 9.05839L30.7776 21.8315C30.7776 25.7673 34.3245 28.9445 38.6847 28.9445C43.0449 28.9445 46.5919 25.7673 46.5919 21.8315L40.8214 7.70075L46.4068 6.13009L43.0551 2.16333L26.2592 6.88653V5.2345L21.7408 2.86351V8.15714ZM38.6847 11.4939L34.46 21.8315C34.46 21.8315 34.5923 24.8819 38.6847 24.8819C42.7772 24.8819 42.9094 21.8315 42.9094 21.8315L38.6847 11.4939ZM5.09062 31.3155L9.31529 20.9779L13.54 31.3155C13.54 31.3155 12.802 34.1513 9.31529 34.1513C5.86996 34.1513 5.09062 31.3155 5.09062 31.3155Z" fill="#200000"/>
<path d="M21.7408 16.4672L26.2592 15.1966V40.7995H37.5551V45.5415H10.4449V40.7995H21.7408V16.4672Z" fill="#200000"/>
</svg>
