<svg width="48" height="48" viewBox="0 0 48 48" fill="none" xmlns="http://www.w3.org/2000/svg">
<path d="M35.5833 3H21.5333C20.0183 3 18.615 3.67667 17.6933 4.84333L10.085 14.35C9.385 15.2083 9 16.3017 9 17.4317V40.0817C9 42.7933 11.205 44.9983 13.9167 44.9983H35.5833C38.295 44.9983 40.5 42.7933 40.5 40.0817V7.91667C40.5 5.205 38.295 3 35.5833 3ZM36 40.0833C36 40.3083 35.81 40.5 35.5833 40.5H13.9167C13.69 40.5 13.5 40.3083 13.5 40.0833V17.4333C13.5 17.3217 13.5383 17.235 13.5717 17.195L21.215 7.645C21.2867 7.55333 21.4033 7.50167 21.5317 7.50167H35.5817C35.815 7.50167 35.9983 7.685 35.9983 7.91833V40.085L36 40.0833Z" fill="#200000"/>
<path d="M24.75 25.9999C27.2294 25.9999 29.258 23.9713 29.258 21.4919C29.258 19.0125 27.2294 16.9839 24.75 16.9839C22.2706 16.9839 20.242 19.0125 20.242 21.4919C20.242 23.9713 22.2706 25.9999 24.75 25.9999ZM33.766 31.4771C33.766 30.9345 33.766 30.5292 33.766 30.2276C33.766 29.7386 33.4133 29.3225 32.9303 29.2458C31.047 28.9465 26.4994 28.2539 24.75 28.2539C23.0007 28.2539 18.4531 28.9465 16.5697 29.2458C16.0867 29.3225 15.734 29.7385 15.734 30.2275C15.734 31.1247 15.734 32.5693 15.734 33.7311V35.0159L33.766 32.7619V31.4771Z" fill="#200000"/>
</svg>
