<svg width="48" height="48" viewBox="0 0 48 48" fill="none" xmlns="http://www.w3.org/2000/svg">
<g clip-path="url(#clip0_4_5979)">
<mask id="mask0_4_5979" style="mask-type:luminance" maskUnits="userSpaceOnUse" x="0" y="0" width="48" height="48">
<path d="M48 0H0V48H48V0Z" fill="white"/>
</mask>
<g mask="url(#mask0_4_5979)">
<path d="M37.7017 29.81C37.8883 29.9967 38.0583 30.2 38.2083 30.4117L38.2117 30.4183L41.8867 27.8333L41.8933 27.8283L41.8883 27.8217C41.5883 27.3967 41.25 26.995 40.8833 26.6283C39.7617 25.505 38.36 24.6967 36.8333 24.2917L36.8267 24.2883L35.6683 28.6367L35.6767 28.64C36.45 28.8467 37.1317 29.24 37.7017 29.81Z" fill="#200000"/>
<path d="M33.3399 37.3683C32.5666 37.1617 31.8849 36.7667 31.3133 36.1967C31.1299 36.0133 30.9616 35.8133 30.8133 35.6033L30.8083 35.5967L27.1383 38.1867L27.1316 38.1917L27.1366 38.1983C27.4333 38.6183 27.7683 39.015 28.1316 39.38C29.2583 40.5067 30.6649 41.3167 32.1983 41.72L32.2066 41.7233L33.3533 37.38V37.3717V37.3133L33.3399 37.3683Z" fill="#200000"/>
<path d="M30.15 34.1967V34.1884C30.0434 33.8034 29.9917 33.405 29.9917 33.0034C29.9917 32.35 30.135 31.695 30.4067 31.1084L30.41 31.1L26.3317 29.2167L26.325 29.2134L26.3217 29.2217C25.7784 30.3967 25.4917 31.705 25.4917 33.0034C25.4917 33.8017 25.5967 34.595 25.805 35.3634V35.3717L30.1417 34.1984H30.15V34.1967Z" fill="#200000"/>
<path d="M33.72 24.0217C31.6134 24.2034 29.63 25.1284 28.1317 26.6284C28.1234 26.6367 28.1167 26.6434 28.1084 26.6517L28.1017 26.6584L31.29 29.8217L31.295 29.8284L31.3017 29.8217C31.3017 29.8217 31.31 29.8134 31.3134 29.81C32.075 29.0517 33.0417 28.6 34.1117 28.505H34.12L33.7284 24.02H33.72V24.0217Z" fill="#200000"/>
<path d="M43.215 30.6599V30.6516L38.875 31.8166H38.8667L38.87 31.8266C38.9717 32.2099 39.025 32.6066 39.025 33.0033C39.025 33.6583 38.88 34.3166 38.605 34.9066L38.6017 34.9149L42.6767 36.8066L42.6834 36.8099L42.6867 36.8016C43.235 35.6233 43.525 34.3099 43.525 33.0033C43.525 32.2116 43.42 31.4233 43.215 30.6599Z" fill="#200000"/>
<path d="M37.7134 36.1868L37.7067 36.1918C37.7067 36.1918 37.7034 36.1951 37.7017 36.1968C36.9434 36.9534 35.9784 37.4051 34.9117 37.5018H34.905L35.3034 41.9851H35.3117C37.4117 41.7984 39.39 40.8734 40.8834 39.3801C40.8884 39.3751 40.8917 39.3718 40.895 39.3668L40.9017 39.3618L37.72 36.1918L37.7134 36.1868Z" fill="#200000"/>
<path d="M14.91 5.88672C9.93831 5.88672 5.89331 9.93172 5.89331 14.9034C5.89331 19.8751 9.93831 23.9201 14.91 23.9201C19.8816 23.9201 23.9266 19.8751 23.9266 14.9034C23.9266 9.93172 19.8816 5.88672 14.91 5.88672ZM14.91 19.4201C12.42 19.4201 10.3933 17.3934 10.3933 14.9034C10.3933 12.4134 12.42 10.3867 14.91 10.3867C17.4 10.3867 19.4266 12.4134 19.4266 14.9034C19.4266 17.3934 17.4 19.4201 14.91 19.4201Z" fill="#200000"/>
<path d="M15.0983 39.0017L9.41992 39L32.5249 9L38.2033 9.00167L15.0983 39.0017Z" fill="#200000"/>
</g>
</g>
<defs>
<clipPath id="clip0_4_5979">
<rect width="48" height="48" fill="white"/>
</clipPath>
</defs>
</svg>
