<svg width="48" height="48" viewBox="0 0 48 48" fill="none" xmlns="http://www.w3.org/2000/svg">
<g clip-path="url(#clip0_4_5978)">
<mask id="mask0_4_5978" style="mask-type:luminance" maskUnits="userSpaceOnUse" x="0" y="0" width="48" height="48">
<path d="M48 0H0V48H48V0Z" fill="white"/>
</mask>
<g mask="url(#mask0_4_5978)">
<path d="M45 14.275C45 8.08505 39.965 3.05005 33.775 3.05005C27.585 3.05005 22.55 8.08505 22.55 14.275C22.55 20.465 27.585 25.5 33.775 25.5C39.965 25.5 45 20.465 45 14.275ZM27.05 14.275C27.05 10.5667 30.0667 7.55005 33.775 7.55005C37.4834 7.55005 40.5 10.5667 40.5 14.275C40.5 17.9834 37.4834 21 33.775 21C30.0667 21 27.05 17.9834 27.05 14.275Z" fill="#200000"/>
<path d="M14.275 22.55C8.08505 22.55 3.05005 27.585 3.05005 33.775C3.05005 39.965 8.08505 45 14.275 45C20.465 45 25.5 39.965 25.5 33.775C25.5 27.585 20.465 22.55 14.275 22.55ZM14.275 40.5C10.5667 40.5 7.55005 37.4834 7.55005 33.775C7.55005 30.0667 10.5667 27.05 14.275 27.05C17.9834 27.05 21 30.0667 21 33.775C21 37.4834 17.9834 40.5 14.275 40.5Z" fill="#200000"/>
<path d="M9.52336 19.4984L12.705 16.3168L9.89002 13.5018H19.5134L21.0134 9.00175H9.88836L12.705 6.18508L9.52336 3.00342L4.04502 8.48008C2.51836 10.0068 2.51836 12.4918 4.04502 14.0184L9.52336 19.4968V19.4984Z" fill="#200000"/>
<path d="M43.9683 33.98L38.49 28.5017L35.3083 31.6834L38.125 34.5H28.5L27 39H38.1233L35.3083 41.815L38.49 44.9967L43.9683 39.5184C45.495 37.9917 45.495 35.5067 43.9683 33.98Z" fill="#200000"/>
</g>
</g>
<defs>
<clipPath id="clip0_4_5978">
<rect width="48" height="48" fill="white"/>
</clipPath>
</defs>
</svg>
