<svg width="48" height="48" viewBox="0 0 48 48" fill="none" xmlns="http://www.w3.org/2000/svg">
<path d="M32.05 40.1167C32.0333 40.3333 31.85 40.5 31.6333 40.5H16.35C16.1333 40.5 15.95 40.3333 15.9333 40.1167L13.5 15H9L11.4667 40.55C11.7167 43.0833 13.8167 45 16.3667 45H31.65C34.1833 45 36.2833 43.0833 36.5167 40.55L38.9833 15H34.4833L32.05 40.1167Z" fill="#200000"/>
<path d="M26.25 7.5V3L21.75 4.5V7.5H9V12H39V7.5H26.25Z" fill="#200000"/>
<path d="M22.5 15H18V37.5H22.5V15Z" fill="#200000"/>
<path d="M30 15H25.5V37.5H30V15Z" fill="#200000"/>
</svg>
