<svg width="48" height="48" viewBox="0 0 48 48" fill="none" xmlns="http://www.w3.org/2000/svg">
<mask id="mask0_4_5963" style="mask-type:alpha" maskUnits="userSpaceOnUse" x="0" y="0" width="48" height="48">
<rect width="48" height="48" fill="#D9D9D9"/>
</mask>
<g mask="url(#mask0_4_5963)">
<path d="M41.1113 6C42.4556 6.00005 43.6062 6.50378 44.5635 7.51074C45.5208 8.51782 45.9999 9.72841 46 11.1426V23.75L41.1113 20.9277V11.1426H16.667L7.98926 24L16.667 36.8574H41.1113V26.3018L46 29.124V36.8574C45.9999 38.2716 45.5208 39.4822 44.5635 40.4893C43.6062 41.4962 42.4556 41.9999 41.1113 42H16.667C15.8522 42 15.0879 41.8075 14.375 41.4219C13.6622 41.0362 13.0819 40.5 12.6338 39.8145L2 24L12.6338 8.18555C13.0819 7.49999 13.6622 6.96378 14.375 6.57812C15.0879 6.19248 15.8522 6 16.667 6H41.1113ZM38.667 17.3145L32.3115 24L38.667 30.6855L33 32.041L28.8887 27.5996L22.5332 34.2861L19.1113 30.6855L25.4668 24L19.1113 17.3145L22.5332 13.7139L28.8887 20.4004L35.2441 13.7139L38.667 17.3145Z" fill="#200000"/>
</g>
</svg>
