<svg width="48" height="48" viewBox="0 0 48 48" fill="none" xmlns="http://www.w3.org/2000/svg">
<g clip-path="url(#clip0_4_6028)">
<path fill-rule="evenodd" clip-rule="evenodd" d="M34.4915 7.64062H10.7056L8.61322 12.3606H30.529L29.285 17.7694L26.515 29.6406H18.609C18.0335 29.028 17.3633 28.5465 16.6002 28.1981C15.7853 27.8261 14.9175 27.6406 14.0007 27.6406C13.0839 27.6406 12.2161 27.8261 11.4012 28.1981C10.6381 28.5465 9.96788 29.028 9.39238 29.6406H3.54576L5.01233 34.3606H7.64951C7.72903 35.9685 8.34651 37.3556 9.49614 38.5052C10.7311 39.7401 12.2396 40.3606 14.0007 40.3606C15.7618 40.3606 17.2703 39.7401 18.5053 38.5052C19.6549 37.3556 20.2724 35.9685 20.3519 34.3606H27.6495C27.729 35.9685 28.3465 37.3556 29.4961 38.5052C30.7311 39.7401 32.2396 40.3606 34.0007 40.3606C35.7617 40.3606 37.2703 39.7401 38.5053 38.5052C39.6549 37.3556 40.2724 35.9685 40.3519 34.3606H43.017C43.7606 34.3606 44.4008 33.8357 44.5467 33.1066L46.1643 25.0182C46.3049 24.3152 46.1394 23.5856 45.7093 23.012L40.9367 16.6486C40.4608 16.0141 39.7139 15.6406 38.9207 15.6406H34.6035L36.0114 9.5521C36.2375 8.5744 35.495 7.64062 34.4915 7.64062ZM32.0383 27.2733L33.5364 20.3606H37.8203L41.3174 25.0391L40.9367 27.2733H32.0383ZM12.8303 32.8302C13.1428 32.5177 13.5247 32.3606 14.0007 32.3606C14.4767 32.3606 14.8586 32.5177 15.1711 32.8302C15.4836 33.1427 15.6407 33.5246 15.6407 34.0006C15.6407 34.4766 15.4836 34.8586 15.1711 35.1711C14.8586 35.4836 14.4767 35.6406 14.0007 35.6406C13.5247 35.6406 13.1428 35.4836 12.8303 35.1711C12.5178 34.8586 12.3607 34.4766 12.3607 34.0006C12.3607 33.5246 12.5178 33.1427 12.8303 32.8302ZM32.8303 32.8302C33.1427 32.5177 33.5247 32.3606 34.0007 32.3606C34.4767 32.3606 34.8586 32.5177 35.1711 32.8302C35.4836 33.1427 35.6407 33.5246 35.6407 34.0006C35.6407 34.4766 35.4836 34.8586 35.1711 35.1711C34.8586 35.4836 34.4767 35.6406 34.0007 35.6406C33.5247 35.6406 33.1427 35.4836 32.8303 35.1711C32.5178 34.8586 32.3607 34.4766 32.3607 34.0006C32.3607 33.5246 32.5178 33.1427 32.8303 32.8302Z" fill="#200000"/>
<path d="M16.9986 14.9906H3.25423L4.6028 19.7106H18.3472L16.9986 14.9906Z" fill="#200000"/>
<path d="M9.96622 22.2906H-0.0562744L1.2923 27.0106H11.3148L9.96622 22.2906Z" fill="#200000"/>
</g>
<defs>
<clipPath id="clip0_4_6028">
<rect width="48" height="48" fill="white"/>
</clipPath>
</defs>
</svg>
