<svg width="48" height="48" viewBox="0 0 48 48" fill="none" xmlns="http://www.w3.org/2000/svg">
<g clip-path="url(#clip0_4_6140)">
<mask id="mask0_4_6140" style="mask-type:luminance" maskUnits="userSpaceOnUse" x="0" y="0" width="48" height="48">
<path d="M48 0H0V48H48V0Z" fill="white"/>
</mask>
<g mask="url(#mask0_4_6140)">
<path d="M41.9833 18.3817V15.3833C41.9833 12.69 39.7933 10.5 37.1 10.5H10.8833C8.19 10.5 6 12.69 6 15.3833V33H10.5V15.3833C10.5 15.1683 10.6683 15 10.8833 15H37.1C37.315 15 37.4833 15.1683 37.4833 15.3833V18H31.1667C28.455 18 26.25 20.205 26.25 22.9167V36H3V40.5H26.2683C26.48 43.0167 28.595 45 31.1667 45H40.0833C42.795 45 45 42.795 45 40.0833V22.9167C45 20.8783 43.7533 19.1267 41.9833 18.3817ZM40.5 40.0833C40.5 40.31 40.31 40.5 40.0833 40.5H31.1667C30.94 40.5 30.75 40.31 30.75 40.0833V22.9167C30.75 22.69 30.94 22.5 31.1667 22.5H40.0833C40.31 22.5 40.5 22.69 40.5 22.9167V40.0833Z" fill="#200000"/>
</g>
</g>
<defs>
<clipPath id="clip0_4_6140">
<rect width="48" height="48" fill="white"/>
</clipPath>
</defs>
</svg>
