<svg width="48" height="48" viewBox="0 0 48 48" fill="none" xmlns="http://www.w3.org/2000/svg">
<path d="M6 32C4.93333 32 4 31.6 3.2 30.8C2.4 30 2 29.0667 2 28V24C2 23.7667 2.03333 23.5167 2.1 23.25C2.16667 22.9833 2.23333 22.7333 2.3 22.5L8.3 8.4C8.6 7.73333 9.1 7.16667 9.8 6.7C10.5 6.23333 11.2333 6 12 6H34V32L22 43.9C21.5 44.4 20.9083 44.6917 20.225 44.775C19.5417 44.8583 18.8833 44.7333 18.25 44.4C17.6167 44.0667 17.15 43.6 16.85 43C16.55 42.4 16.4833 41.7833 16.65 41.15L18.9 32H6ZM30 30.3V10H12L6 24V28H24L21.3 39L30 30.3ZM40 6C41.1 6 42.0417 6.39167 42.825 7.175C43.6083 7.95833 44 8.9 44 10V28C44 29.1 43.6083 30.0417 42.825 30.825C42.0417 31.6083 41.1 32 40 32H34V28H40V10H34V6H40Z" fill="#200000"/>
</svg>
