<svg width="48" height="48" viewBox="0 0 48 48" fill="none" xmlns="http://www.w3.org/2000/svg">
<path d="M37.0833 45H10.9167C8.205 45 6 42.795 6 40.0833V33H10.5V40.0833C10.5 40.3083 10.6917 40.5 10.9167 40.5H37.0833C37.3083 40.5 37.5 40.3083 37.5 40.0833V33H42V40.0833C42 42.795 39.795 45 37.0833 45Z" fill="#200000"/>
<path d="M34.5917 21.0833L26.25 29.425V3L21.75 4.5V29.4267L13.4083 21.085L10.2267 24.2667L20.5267 34.5667C21.4517 35.4917 22.685 36 24.0017 36C25.3183 36 26.5517 35.49 27.4767 34.5667L37.7767 24.2667L34.595 21.085L34.5917 21.0833Z" fill="#200000"/>
</svg>
