<svg width="48" height="48" viewBox="0 0 48 48" fill="none" xmlns="http://www.w3.org/2000/svg">
<g clip-path="url(#clip0_4_6133)">
<mask id="mask0_4_6133" style="mask-type:luminance" maskUnits="userSpaceOnUse" x="0" y="0" width="48" height="48">
<path d="M48 0H0V48H48V0Z" fill="white"/>
</mask>
<g mask="url(#mask0_4_6133)">
<path d="M36.9 13.1333C36.25 10.6 34.8833 8.3 32.9167 6.51667C30.4333 4.25 27.2 3 23.8333 3C18.6333 3 13.9333 5.96667 11.7 10.55C6.81667 11.0833 3 15.2333 3 20.25C3 25.6333 7.36667 30 12.75 30H17.25L18.75 25.5H12.75C9.85 25.5 7.5 23.15 7.5 20.25C7.5 17.35 9.85 15 12.75 15H14.8167L15.35 13.5C16.6 9.9 20.0167 7.5 23.8333 7.5C28.4833 7.5 32.3167 10.9833 32.7833 15.6L32.9833 17.6333H36.5667C38.7333 17.6333 40.5 19.4 40.5 21.5667C40.5 23.7333 38.7333 25.5 36.5667 25.5H30.75L29.25 30H36.5667C41.2167 30 45 26.2167 45 21.5667C45 17.0333 41.4 13.3167 36.9 13.1333Z" fill="#200000"/>
<path d="M26.25 38.35V15.75L21.75 17.25V38.4333L17.8166 34.5L14.6 37.65L20.55 43.6C22.4333 45.4833 25.4833 45.4833 27.3666 43.6L33.4 37.5667L30.1 34.5L26.25 38.35ZM23.9066 40.5H23.9983C23.9666 40.505 23.9366 40.505 23.9066 40.5Z" fill="#200000"/>
</g>
</g>
<defs>
<clipPath id="clip0_4_6133">
<rect width="48" height="48" fill="white"/>
</clipPath>
</defs>
</svg>
