<svg width="48" height="48" viewBox="0 0 48 48" fill="none" xmlns="http://www.w3.org/2000/svg">
<g clip-path="url(#clip0_4_6024)">
<mask id="mask0_4_6024" style="mask-type:luminance" maskUnits="userSpaceOnUse" x="0" y="0" width="48" height="48">
<path d="M48 0H0V48H48V0Z" fill="white"/>
</mask>
<g mask="url(#mask0_4_6024)">
<path d="M5 44.8468H13V40.0005H8.5V10.2668C8.5 10.0484 8.655 9.87843 8.87667 9.85343L29.035 7.65509C29.1933 7.63843 29.3 7.70176 29.3633 7.75843C29.4267 7.81343 29.5 7.91343 29.5 8.06676V19.0001L34 17.0001V8.06676C34 6.67509 33.4083 5.34343 32.375 4.41342C31.3417 3.48342 29.9533 3.03343 28.5567 3.18009L8.38833 5.38009C5.88667 5.65509 4 7.75509 4 10.2668V43.8468C4 44.399 4.44772 44.8468 5 44.8468Z" fill="#200000"/>
</g>
<path fill-rule="evenodd" clip-rule="evenodd" d="M36.1725 30.9581V25.4078C36.1725 23.9203 34.8121 22.7888 33.3177 23.0333L26.0469 24.8777C24.7662 25.0872 23.8275 26.1752 23.8275 27.45V30.9581H17.2264C16.4421 30.9581 15.8596 31.6711 16.0297 32.4228L18.663 46.0575C18.7877 46.6082 19.2852 47 19.8597 47H40.1403C40.7148 47 41.2123 46.6082 41.337 46.0575L43.9703 32.4228C44.1404 31.6711 43.5579 30.9581 42.7736 30.9581H36.1725ZM32.0862 30.9581V27.3022L27.9138 28.6395V30.9581H32.0862ZM22.1542 42.988L20.7921 34.9701H39.2079L37.8458 42.988H22.1542Z" fill="#200000"/>
</g>
<defs>
<clipPath id="clip0_4_6024">
<rect width="48" height="48" fill="white"/>
</clipPath>
</defs>
</svg>
