<svg width="48" height="48" viewBox="0 0 48 48" fill="none" xmlns="http://www.w3.org/2000/svg">
<g clip-path="url(#clip0_4_5998)">
<mask id="mask0_4_5998" style="mask-type:luminance" maskUnits="userSpaceOnUse" x="0" y="0" width="48" height="48">
<path d="M48 0H0V48H48V0Z" fill="white"/>
</mask>
<g mask="url(#mask0_4_5998)">
<path d="M37.8619 22.9848L45.3014 15.5453L41.0498 13.4195L34.6741 19.7952L28.2983 13.4195L35.7378 5.98005L31.4862 3.85425L25.1105 10.23L24.3423 9.46182C22.4219 7.54142 19.2958 7.54142 17.3754 9.46182L13.2023 13.6349C7.99386 18.8434 7.59308 27.0978 11.9432 32.9608L4.41858 40.4855L7.60644 43.6733L15.1311 36.1487C17.6844 38.0491 20.747 39.0961 23.9566 39.1362C24.0184 39.1362 24.0818 39.1362 24.1436 39.1362C28.0562 39.1362 31.7133 37.6316 34.457 34.8879L38.6301 30.7148C40.5505 28.7944 40.5505 25.6683 38.6301 23.7479L37.8619 22.9798V22.9848ZM35.4406 27.5303L31.2675 31.7034C29.347 33.6238 26.7687 34.6608 24.01 34.6308C21.2296 34.5974 18.6012 33.4802 16.6073 31.4863C12.506 27.385 12.4074 20.8072 16.3902 16.8261L20.5633 12.653C20.6451 12.5712 20.752 12.5311 20.8589 12.5311C20.9658 12.5311 21.0726 12.5712 21.1545 12.653L21.9226 13.4212L31.4879 22.9864L35.4439 26.9425C35.5458 27.0443 35.5658 27.1596 35.5658 27.238C35.5658 27.3165 35.5441 27.4318 35.4439 27.5336L35.4406 27.5303Z" fill="#200000"/>
</g>
</g>
<defs>
<clipPath id="clip0_4_5998">
<rect width="48" height="48" fill="white"/>
</clipPath>
</defs>
</svg>
