<svg width="48" height="48" viewBox="0 0 48 48" fill="none" xmlns="http://www.w3.org/2000/svg">
<g clip-path="url(#clip0_4_6134)">
<mask id="mask0_4_6134" style="mask-type:luminance" maskUnits="userSpaceOnUse" x="0" y="0" width="48" height="48">
<path d="M48 0H0V48H48V0Z" fill="white"/>
</mask>
<g mask="url(#mask0_4_6134)">
<path d="M38.8433 9.1483C30.655 0.961634 17.3317 0.961634 9.14499 9.1483C0.958323 17.335 0.956656 30.6583 9.14499 38.8466C13.2383 42.94 18.6167 44.9866 23.9933 44.9866C29.37 44.9866 34.7483 42.94 38.8417 38.8466C47.03 30.6583 47.03 17.3366 38.8417 9.1483H38.8433ZM35.6617 35.665C29.2283 42.0983 18.76 42.0983 12.3267 35.665C5.89332 29.2316 5.89332 18.7633 12.3267 12.33C15.5433 9.1133 19.7683 7.50497 23.9933 7.50497C28.2183 7.50497 32.4433 9.1133 35.66 12.33C42.0933 18.7633 42.0933 29.2316 35.66 35.665H35.6617Z" fill="#200000"/>
<path d="M10.28 23.248L10.6183 25.7964C11.5067 32.478 17.2583 37.5164 23.9983 37.5164C30.7383 37.5164 36.4883 32.4847 37.3783 25.813L37.7183 23.268L10.28 23.248ZM24 33.0164C20.415 33.0164 17.25 30.878 15.815 27.7514L32.1833 27.763C30.7483 30.883 27.5833 33.0147 24 33.0147V33.0164Z" fill="#200000"/>
<path d="M34.5 15H28.5L27 19.5H33L34.5 15Z" fill="#200000"/>
<path d="M21 15H15L13.5 19.5H19.5L21 15Z" fill="#200000"/>
</g>
</g>
<defs>
<clipPath id="clip0_4_6134">
<rect width="48" height="48" fill="white"/>
</clipPath>
</defs>
</svg>
