<svg width="48" height="48" viewBox="0 0 48 48" fill="none" xmlns="http://www.w3.org/2000/svg">
<g clip-path="url(#clip0_4_6122)">
<mask id="mask0_4_6122" style="mask-type:luminance" maskUnits="userSpaceOnUse" x="0" y="0" width="48" height="48">
<path d="M48 0H0V48H48V0Z" fill="white"/>
</mask>
<g mask="url(#mask0_4_6122)">
<path d="M42.2783 11.7683C41.1983 9.17667 38.685 7.5 35.8767 7.5H12.1233C9.315 7.5 6.80167 9.175 5.72167 11.7683L3 18.3V20.7967C3 23.0633 4.61167 24.9617 6.75 25.4033V42H41.25V25.4033C43.3883 24.9617 45 23.0633 45 20.7967V18.3L42.2783 11.7683ZM38.125 13.4983L40.5 19.2V20.7967C40.5 20.9083 40.4083 21 40.2967 21H37.5L34.23 12H35.8783C36.865 12 37.7467 12.5883 38.125 13.4983ZM21.75 21H15.785L18.7033 12H21.7517V21H21.75ZM26.25 12H29.44L32.71 21H26.2483V12H26.25ZM7.70333 21C7.59167 21 7.5 20.9083 7.5 20.7967V19.2L9.875 13.4983C10.255 12.5883 11.1367 12 12.1217 12H13.97L11.0517 21H7.70167H7.70333ZM36.75 37.5H11.25V25.5H36.75V37.5Z" fill="#200000"/>
</g>
</g>
<defs>
<clipPath id="clip0_4_6122">
<rect width="48" height="48" fill="white"/>
</clipPath>
</defs>
</svg>
