<svg width="48" height="48" viewBox="0 0 48 48" fill="none" xmlns="http://www.w3.org/2000/svg">
<g clip-path="url(#clip0_4_6151)">
<mask id="mask0_4_6151" style="mask-type:luminance" maskUnits="userSpaceOnUse" x="0" y="0" width="48" height="48">
<path d="M48 0H0V48H48V0Z" fill="white"/>
</mask>
<g mask="url(#mask0_4_6151)">
<path d="M45 10.9167L45 37.0833C45 39.795 42.795 42 40.0833 42L33 42L33 37.5L40.0833 37.5C40.3083 37.5 40.5 37.3083 40.5 37.0833L40.5 10.9167C40.5 10.6917 40.3083 10.5 40.0833 10.5L33 10.5L33 6L40.0833 6C42.795 6 45 8.205 45 10.9167Z" fill="#200000"/>
<path d="M17.9167 13.4084L9.575 21.7501L36 21.7501L34.5 26.2501L9.57333 26.2501L17.915 34.5918L14.7333 37.7734L4.43333 27.4734C3.50833 26.5484 3 25.3151 3 23.9984C3 22.6818 3.51 21.4484 4.43333 20.5234L14.7333 10.2234L17.915 13.4051L17.9167 13.4084Z" fill="#200000"/>
</g>
</g>
<defs>
<clipPath id="clip0_4_6151">
<rect width="48" height="48" fill="white"/>
</clipPath>
</defs>
</svg>
