<svg width="48" height="48" viewBox="0 0 48 48" fill="none" xmlns="http://www.w3.org/2000/svg">
<g clip-path="url(#clip0_4_6094)">
<mask id="mask0_4_6094" style="mask-type:luminance" maskUnits="userSpaceOnUse" x="0" y="0" width="48" height="48">
<path d="M48 0H0V48H48V0Z" fill="white"/>
</mask>
<g mask="url(#mask0_4_6094)">
<path d="M24 31.5001C28.135 31.5001 31.5 28.1351 31.5 24.0001C31.5 22.6917 31.1633 21.4617 30.5717 20.3901L42.1417 8.30674L38.8917 5.19507L31.965 12.4284C29.2933 11.1501 26.6217 10.5001 24 10.5001C12.9417 10.5001 4.34666 22.1601 3.98666 22.6551L3.01166 23.9984L3.98666 25.3434C4.13166 25.5434 7.24832 29.7951 12.065 33.2134L5.85832 39.6951L9.10833 42.8067L20.6783 30.7234C21.68 31.2201 22.8067 31.5017 24 31.5017V31.5001ZM8.59332 24.0017C11.005 21.2001 17.1183 15.0001 24 15.0001C25.5133 15.0001 27.07 15.2984 28.6533 15.8867L27.3217 17.2784C26.32 16.7817 25.1917 16.5001 24 16.5001C21.5767 16.5001 19.2933 17.6717 17.89 19.6367C16.9933 20.8751 16.5 22.4251 16.5 24.0001C16.5 25.3084 16.8367 26.5384 17.4283 27.6101L15.1917 29.9451C12.2283 27.9701 9.87999 25.5001 8.59166 24.0017H8.59332Z" fill="#200000"/>
<path d="M44.025 22.6501C43.9433 22.5334 41.8967 19.7334 38.5833 16.8668L38.275 16.6001L35.0433 19.6334C36.635 21.0168 38.6 23.0334 39.4283 24.0001C37.0083 26.8001 30.9017 33.0001 24.015 33.0001C23.1217 33.0001 22.1967 32.9001 21.2533 32.6834L17.7283 36.0001C18.5233 36.5834 19.58 36.9001 19.58 36.9001C21.0583 37.3001 22.5517 37.5001 23.9983 37.5001C35.0583 37.5001 43.6667 25.8334 44.0233 25.3501L44.9983 24.0001L44.0233 22.6501H44.025Z" fill="#200000"/>
</g>
</g>
<defs>
<clipPath id="clip0_4_6094">
<rect width="48" height="48" fill="white"/>
</clipPath>
</defs>
</svg>
