<svg width="48" height="48" viewBox="0 0 48 48" fill="none" xmlns="http://www.w3.org/2000/svg">
<g clip-path="url(#clip0_4_6144)">
<mask id="mask0_4_6144" style="mask-type:luminance" maskUnits="userSpaceOnUse" x="0" y="0" width="48" height="48">
<path d="M48 0H0V48H48V0Z" fill="white"/>
</mask>
<g mask="url(#mask0_4_6144)">
<path d="M7.5 7.91667C7.5 7.68333 7.68333 7.5 7.91667 7.5H18L19.5 3H7.91667C5.2 3 3 5.2 3 7.91667V19.5H7.5V7.91667Z" fill="#200000"/>
<path d="M7.5 40.0833V27H3V40.0833C3 42.8 5.2 45 7.91667 45H18L19.5 40.5H7.91667C7.68333 40.5 7.5 40.3167 7.5 40.0833Z" fill="#200000"/>
<path d="M40.5 40.0833C40.5 40.3167 40.3167 40.5 40.0833 40.5H30L28.5 45H40.0833C42.8 45 45 42.8 45 40.0833V27H40.5V40.0833Z" fill="#200000"/>
<path d="M40.0833 3H30L28.5 7.5H40.0833C40.3167 7.5 40.5 7.68333 40.5 7.91667V19.5H45V7.91667C45 5.2 42.8 3 40.0833 3Z" fill="#200000"/>
</g>
<path d="M34.22 14H28.22L26.72 18.5H32.72L34.22 14Z" fill="#200000"/>
<path d="M20.72 14H14.72L13.22 18.5H19.22L20.72 14Z" fill="#200000"/>
<path d="M35 24C35 25.4445 34.7155 26.8749 34.1627 28.2095C33.6099 29.5441 32.7996 30.7567 31.7782 31.7782C30.7567 32.7996 29.5441 33.6099 28.2095 34.1627C26.8749 34.7155 25.4445 35 24 35C22.5555 35 21.1251 34.7155 19.7905 34.1627C18.4559 33.6099 17.2433 32.7996 16.2218 31.7782C15.2004 30.7567 14.3901 29.5441 13.8373 28.2095C13.2845 26.8749 13 25.4445 13 24" stroke="#200000" stroke-width="2"/>
</g>
<defs>
<clipPath id="clip0_4_6144">
<rect width="48" height="48" fill="white"/>
</clipPath>
</defs>
</svg>
