<svg width="48" height="48" viewBox="0 0 48 48" fill="none" xmlns="http://www.w3.org/2000/svg">
<g clip-path="url(#clip0_4_6146)">
<mask id="mask0_4_6146" style="mask-type:luminance" maskUnits="userSpaceOnUse" x="0" y="0" width="48" height="48">
<path d="M48 0H0V48H48V0Z" fill="white"/>
</mask>
<g mask="url(#mask0_4_6146)">
<path d="M9.41667 43.4833H7.91667C5.205 43.4833 3 41.2783 3 38.5666V9.43327C3 6.7216 5.205 4.5166 7.91667 4.5166H40.0833C42.795 4.5166 45 6.7216 45 9.43327V32.5833C45 35.2949 42.795 37.4999 40.0833 37.4999H20.1167C20.0333 37.4999 19.945 37.5249 19.8817 37.5666L12.115 42.6833C11.315 43.2066 10.3817 43.4833 9.41667 43.4833ZM7.91667 9.0166C7.69 9.0166 7.5 9.20827 7.5 9.43327V38.5666C7.5 38.7916 7.69 38.9833 7.91667 38.9833H9.41667C9.5 38.9833 9.58833 38.9583 9.65167 38.9166L17.4117 33.8033C18.2183 33.2749 19.1517 32.9983 20.1167 32.9983H40.0833C40.31 32.9983 40.5 32.8066 40.5 32.5816V9.43327C40.5 9.20827 40.31 9.0166 40.0833 9.0166H7.91667Z" fill="#200000"/>
<path d="M21.75 30.4185L26.25 28.9185V25.1685L21.75 26.6685V30.4185Z" fill="#200000"/>
<path d="M27.5024 16.8435V16.5533C27.5024 15.9203 27.2044 15.4544 26.6083 15.1554C26.0123 14.8389 25.2266 14.6807 24.2512 14.6807H23.9803C22.9507 14.6807 22.1469 14.8565 21.5689 15.2082C21.009 15.5423 20.729 16.061 20.729 16.7643V17.8721H16.2314V16.7643C16.2314 15.006 16.8907 13.6609 18.2093 12.7289C19.5279 11.797 21.4425 11.3311 23.9532 11.3311H24.2241C26.7348 11.3311 28.6584 11.7706 29.9951 12.6498C31.3317 13.529 32 14.7686 32 16.3687V16.6588C32 17.7314 31.6929 18.5666 31.0788 19.1645C30.4828 19.7447 29.8144 20.2371 29.0739 20.6415C28.3514 21.0459 27.6831 21.4591 27.0689 21.8811C26.4729 22.2855 26.1748 22.5941 26.1748 23.3326L21.6773 24.7366C21.6773 22.8646 21.5427 21.8811 22.5714 20.8525C23.1855 20.2195 23.8538 19.7183 24.5763 19.3491C25.3169 18.9623 25.9852 18.6106 26.5813 18.2941C27.1954 17.96 27.5024 17.4765 27.5024 16.8435Z" fill="#200000"/>
</g>
</g>
<defs>
<clipPath id="clip0_4_6146">
<rect width="48" height="48" fill="white"/>
</clipPath>
</defs>
</svg>
