<svg width="48" height="48" viewBox="0 0 48 48" fill="none" xmlns="http://www.w3.org/2000/svg">
<g clip-path="url(#clip0_4_6088)">
<mask id="mask0_4_6088" style="mask-type:luminance" maskUnits="userSpaceOnUse" x="0" y="0" width="48" height="48">
<path d="M48 0H0V48H48V0Z" fill="white"/>
</mask>
<g mask="url(#mask0_4_6088)">
<path d="M40.1334 42H7.96672C5.25505 42 3.05005 39.795 3.05005 37.0833V13.9167C3.05005 11.205 5.25505 9 7.96672 9H17.7334C19.7934 9 21.6 10.2483 22.3367 12.1817L23.3934 15H40.1334C42.845 15 45.05 17.205 45.05 19.9167V37.0833C45.05 39.795 42.845 42 40.1334 42ZM7.96672 13.5C7.74172 13.5 7.55005 13.6917 7.55005 13.9167V37.0833C7.55005 37.3083 7.74172 37.5 7.96672 37.5H40.1334C40.3584 37.5 40.55 37.3083 40.55 37.0833V19.9167C40.55 19.6917 40.3584 19.5 40.1334 19.5H20.2734L18.1267 13.7733C18.0634 13.6067 17.915 13.5 17.7334 13.5H7.96672Z" fill="#200000"/>
</g>
</g>
<defs>
<clipPath id="clip0_4_6088">
<rect width="48" height="48" fill="white"/>
</clipPath>
</defs>
</svg>
