<svg width="48" height="48" viewBox="0 0 48 48" fill="none" xmlns="http://www.w3.org/2000/svg">
<g clip-path="url(#clip0_4_6092)">
<mask id="mask0_4_6092" style="mask-type:luminance" maskUnits="userSpaceOnUse" x="0" y="0" width="48" height="48">
<path d="M48 0H0V48H48V0Z" fill="white"/>
</mask>
<g mask="url(#mask0_4_6092)">
<path d="M32.4133 3H19.9167C17.205 3 15 5.205 15 7.91667V31.0167C15 33.7283 17.205 35.9333 19.9167 35.9333H37.0833C39.795 35.9333 42 33.7283 42 31.0167V12.5667L32.4133 3ZM30.75 7.69667L37.3167 14.25H30.75V7.69667ZM37.0833 31.4333H19.9167C19.69 31.4333 19.5 31.2433 19.5 31.0167V7.91667C19.5 7.69167 19.69 7.5 19.9167 7.5H26.25V18.75H37.5V31.0167C37.5 31.2433 37.31 31.4333 37.0833 31.4333Z" fill="#200000"/>
<path d="M25.5 40.0501C25.5 40.2834 25.3167 40.4668 25.0833 40.4668H10.95C10.7167 40.4668 10.5333 40.2834 10.5333 40.0501V16.9501C10.5333 16.7168 10.7167 16.5334 10.95 16.5334H12.0333V12.0334H10.95C8.23334 12.0334 6.03334 14.2334 6.03334 16.9501V40.0501C6.03334 42.7668 8.23334 44.9668 10.95 44.9668H25.0833C27.8 44.9668 30 42.7668 30 40.0501V39.0001H25.5V40.0501Z" fill="#200000"/>
</g>
</g>
<defs>
<clipPath id="clip0_4_6092">
<rect width="48" height="48" fill="white"/>
</clipPath>
</defs>
</svg>
