<svg width="48" height="48" viewBox="0 0 48 48" fill="none" xmlns="http://www.w3.org/2000/svg">
<g clip-path="url(#clip0_4_5950)">
<mask id="mask0_4_5950" style="mask-type:luminance" maskUnits="userSpaceOnUse" x="0" y="0" width="24" height="24">
<path d="M24 0H0V24H24V0Z" fill="white"/>
</mask>
<g mask="url(#mask0_4_5950)">
<path d="M16.2067 1.5H9.95833C8.6025 1.5 7.5 2.6025 7.5 3.95833V15.5083C7.5 16.8642 8.6025 17.9667 9.95833 17.9667H18.5417C19.8975 17.9667 21 16.8642 21 15.5083V6.28333L16.2067 1.5ZM15.375 3.84833L18.6583 7.125H15.375V3.84833ZM18.5417 15.7167H9.95833C9.845 15.7167 9.75 15.6217 9.75 15.5083V3.95833C9.75 3.84583 9.845 3.75 9.95833 3.75H13.125V9.375H18.75V15.5083C18.75 15.6217 18.655 15.7167 18.5417 15.7167Z" fill="#200000"/>
<path d="M12.7501 20.0249C12.7501 20.1416 12.6584 20.2333 12.5417 20.2333H5.47506C5.35839 20.2333 5.26672 20.1416 5.26672 20.0249V8.47493C5.26672 8.35827 5.35839 8.2666 5.47506 8.2666H6.01672V6.0166H5.47506C4.11672 6.0166 3.01672 7.1166 3.01672 8.47493V20.0249C3.01672 21.3833 4.11672 22.4833 5.47506 22.4833H12.5417C13.9001 22.4833 15.0001 21.3833 15.0001 20.0249V19.4999H12.7501V20.0249Z" fill="#200000"/>
</g>
</g>
<defs>
<clipPath id="clip0_4_5950">
<rect width="24" height="24" fill="white"/>
</clipPath>
</defs>
</svg>
