<svg width="48" height="48" viewBox="0 0 48 48" fill="none" xmlns="http://www.w3.org/2000/svg">
<g clip-path="url(#clip0_4_6125)">
<mask id="mask0_4_6125" style="mask-type:luminance" maskUnits="userSpaceOnUse" x="0" y="0" width="48" height="48">
<path d="M48 0H0V48H48V0Z" fill="white"/>
</mask>
<g mask="url(#mask0_4_6125)">
<path d="M43.8667 28.7667L41.9833 17.6C41.5833 15.2167 39.5333 13.5 37.1333 13.5H27.8833C27.8 13.5 27.7 13.4667 27.6333 13.4167L23.05 9.98333C22.2 9.35 21.15 9 20.1 9H3L9.03333 44.95H13.6L8.26333 13.5H20.1C20.1833 13.5 20.2833 13.5333 20.35 13.5833L24.9333 17.0167C25.7833 17.65 26.8333 18 27.8833 18H37.1333C37.35 18 37.5167 18.15 37.55 18.35L39.4333 29.5167C39.45 29.6667 39.3833 29.7833 39.3333 29.85C39.2833 29.9167 39.1833 30 39.0167 30H27.8833C27.8 30 27.7 29.9667 27.6333 29.9167L23.05 26.4833C22.2 25.85 21.15 25.5 20.1 25.5H12.7333L13.4833 30H20.1C20.1833 30 20.2833 30.0333 20.35 30.0833L24.9333 33.5167C25.7833 34.15 26.8333 34.5 27.8833 34.5H39.0167C40.4667 34.5 41.8333 33.8667 42.7667 32.75C43.7167 31.65 44.1 30.2 43.8667 28.7667Z" fill="#200000"/>
</g>
</g>
<defs>
<clipPath id="clip0_4_6125">
<rect width="48" height="48" fill="white"/>
</clipPath>
</defs>
</svg>
