<svg width="48" height="48" viewBox="0 0 48 48" fill="none" xmlns="http://www.w3.org/2000/svg">
<g clip-path="url(#clip0_4_5986)">
<mask id="mask0_4_5986" style="mask-type:luminance" maskUnits="userSpaceOnUse" x="0" y="0" width="48" height="48">
<path d="M48 0H0V48H48V0Z" fill="white"/>
</mask>
<g mask="url(#mask0_4_5986)">
<path d="M40.0833 28.5H37.9167C35.205 28.5 33 30.705 33 33.4167V40.0833C33 42.795 35.205 45 37.9167 45H40.0833C42.795 45 45 42.795 45 40.0833V33.4167C45 30.705 42.795 28.5 40.0833 28.5ZM40.5 40.0833C40.5 40.3133 40.3133 40.5 40.0833 40.5H37.9167C37.6867 40.5 37.5 40.3133 37.5 40.0833V33.4167C37.5 33.1867 37.6867 33 37.9167 33H40.0833C40.3133 33 40.5 33.1867 40.5 33.4167V40.0833Z" fill="#200000"/>
<path d="M7.5 32.7767V19.7433L22.5933 27.315L40.5 16.6483V27.055H45V12.69C45 11.3233 44.425 10.0067 43.4217 9.08C42.4183 8.15166 41.06 7.68166 39.6983 7.78833L7.53167 10.3167C4.99 10.5167 3 12.67 3 15.2183V32.7783C3 35.3367 4.99833 37.49 7.54833 37.6817L30.5817 39.41L30.6583 34.9033L7.885 33.195C7.66833 33.1783 7.5 32.9967 7.5 32.78V32.7767ZM38.8983 12.3633L22.4067 22.1867L7.75167 14.835C7.79333 14.8167 7.83667 14.8033 7.88333 14.8L38.8983 12.3633Z" fill="#200000"/>
</g>
</g>
<defs>
<clipPath id="clip0_4_5986">
<rect width="48" height="48" fill="white"/>
</clipPath>
</defs>
</svg>
