<svg width="48" height="48" viewBox="0 0 48 48" fill="none" xmlns="http://www.w3.org/2000/svg">
<g clip-path="url(#clip0_4_5993)">
<mask id="mask0_4_5993" style="mask-type:luminance" maskUnits="userSpaceOnUse" x="0" y="0" width="48" height="48">
<path d="M48 0H0V48H48V0Z" fill="white"/>
</mask>
<g mask="url(#mask0_4_5993)">
<path d="M40.655 21.6332L36.2267 16.6499C35.295 15.6016 33.955 14.9999 32.5517 14.9999H28.5L30 19.4999H32.5517C32.67 19.4999 32.785 19.5516 32.8633 19.6399L37.5 24.8549V38.9999C37.5 39.8616 36.77 40.5549 35.8967 40.4966C35.1 40.4432 34.5 39.7449 34.5 38.9466V28.9166C34.5 26.2016 32.2983 23.9999 29.5833 23.9999H27V8.37157C27 6.93157 26.3717 5.56824 25.2767 4.63324C24.1817 3.69824 22.7383 3.28991 21.315 3.51491L10.1483 5.27991C7.745 5.65991 6 7.70157 6 10.1366V40.0832C6 42.7949 8.205 44.9999 10.9167 44.9999H22.0833C24.795 44.9999 27 42.7949 27 40.0832V28.4999H29.5833C29.8133 28.4999 30 28.6866 30 28.9166V38.8866C30 42.1632 32.58 44.9199 35.855 44.9982C39.23 45.0782 42 42.3566 42 38.9999V25.1682C42 23.8649 41.5217 22.6066 40.655 21.6316V21.6332ZM10.8517 9.72491L22.0183 7.95991C22.0433 7.95657 22.065 7.95491 22.0883 7.95491C22.21 7.95491 22.2983 8.00657 22.355 8.05491C22.4217 8.11157 22.5017 8.21324 22.5017 8.37157V23.9999H10.5V10.1366C10.5 9.92991 10.6483 9.75657 10.8517 9.72491ZM22.5 40.0832C22.5 40.3132 22.3133 40.4999 22.0833 40.4999H10.9167C10.6867 40.4999 10.5 40.3132 10.5 40.0832V28.4999H22.5V40.0832Z" fill="#200000"/>
</g>
</g>
<defs>
<clipPath id="clip0_4_5993">
<rect width="48" height="48" fill="white"/>
</clipPath>
</defs>
</svg>
