<svg width="48" height="48" viewBox="0 0 48 48" fill="none" xmlns="http://www.w3.org/2000/svg">
<g clip-path="url(#clip0_4_6126)">
<mask id="mask0_4_6126" style="mask-type:luminance" maskUnits="userSpaceOnUse" x="0" y="0" width="48" height="48">
<path d="M48 0H0V48H48V0Z" fill="white"/>
</mask>
<g mask="url(#mask0_4_6126)">
<path d="M36.2333 11.7833C35.3 10.7333 33.95 10.1333 32.55 10.1333H28.5L30 14.6333H32.55C32.6667 14.6333 32.7833 14.6833 32.8667 14.7667L37.5 19.9833V33.75C37.5 34.5833 36.8333 35.25 36 35.25C35.1667 35.25 34.5 34.5833 34.5 33.75V22.9167C34.5 20.2 32.3 18 29.5833 18H27V7.91667C27 5.205 24.795 3 22.0833 3H10.9167C8.205 3 6 5.205 6 7.91667V40.0833C6 42.795 8.205 45 10.9167 45H22.0833C24.795 45 27 42.795 27 40.0833V22.5H29.5833C29.8167 22.5 30 22.6833 30 22.9167V33.75C30 37.0667 32.7 39.75 36 39.75C39.3 39.75 42 37.05 42 33.7667V18.2833L36.2333 11.7833ZM10.9167 7.5H22.0833C22.3083 7.5 22.5 7.69 22.5 7.91667V18H10.5V7.91667C10.5 7.69 10.6917 7.5 10.9167 7.5ZM22.5 40.0833C22.5 40.3167 22.3167 40.5 22.0833 40.5H10.9167C10.6917 40.5 10.5 40.31 10.5 40.0833V22.5H22.5V40.0833Z" fill="#200000"/>
</g>
</g>
<defs>
<clipPath id="clip0_4_6126">
<rect width="48" height="48" fill="white"/>
</clipPath>
</defs>
</svg>
