<svg width="48" height="48" viewBox="0 0 48 48" fill="none" xmlns="http://www.w3.org/2000/svg">
<path d="M32.3838 7.26367L28.8916 10.7549L41.9004 10.1045C43.0426 10.0475 44 10.9588 44 12.1025V20.0977C43.9999 21.1633 43.164 22.0415 42.0996 22.0947L26 22.8994V40H36V26L40 24V43C40 43.5523 39.5523 44 39 44H9C8.44772 44 8 43.5523 8 43V23.7988L6.09961 23.8945C4.95735 23.9515 4 23.0412 4 21.8975V13.9023C4.00007 12.8367 4.83601 11.9585 5.90039 11.9053L18.4541 11.2764L16 8.82227L18.8281 5.99414L22.9766 10.1426L29.1201 4L32.3838 7.26367ZM12 23.5986V40H22V23.0986L12 23.5986ZM8 15.8047V19.7949L40 18.1953V14.2051L8 15.8047Z" fill="#200000"/>
</svg>
