<svg width="48" height="48" viewBox="0 0 48 48" fill="none" xmlns="http://www.w3.org/2000/svg">
<g clip-path="url(#clip0_4_6099)">
<mask id="mask0_4_6099" style="mask-type:luminance" maskUnits="userSpaceOnUse" x="0" y="0" width="48" height="48">
<path d="M48 0H0V48H48V0Z" fill="white"/>
</mask>
<g mask="url(#mask0_4_6099)">
<path d="M13.4317 15.1417C15.8567 12.5033 18.9467 10.8167 22.5 10.5V6C17.83 6.41833 13.3034 8.63333 10.12 12.0967C6.91502 15.5833 5.15002 20.1117 5.15002 24.85V40.5H13.4667C16.1784 40.5 18.3834 38.295 18.3834 35.5833V30.4333C18.3834 27.7217 16.1784 25.5167 13.4667 25.5167H9.65002V24.85C9.65002 21.2433 10.9934 17.7967 13.4317 15.1417ZM13.4667 30.0167C13.6917 30.0167 13.8834 30.2067 13.8834 30.4333V35.5833C13.8834 35.825 13.7084 36 13.4667 36H9.65002V30.0167H13.4667Z" fill="#200000"/>
<path d="M37.88 12.0967C34.695 8.63167 30.1683 6.41833 25.5 6V10.5C29.0517 10.8183 32.1417 12.505 34.5667 15.1417C37.005 17.795 38.3483 21.2433 38.3483 24.85V25.5167H34.5317C31.82 25.5167 29.615 27.7217 29.615 30.4333V35.5833C29.615 38.295 31.82 40.5 34.5317 40.5H42.8483V24.85C42.8483 20.1133 41.0833 15.5833 37.8783 12.0967H37.88ZM38.35 36H34.5333C34.3 36 34.1167 35.8167 34.1167 35.5833V30.4333C34.1167 30.2067 34.3083 30.0167 34.5333 30.0167H38.35V36Z" fill="#200000"/>
</g>
</g>
<defs>
<clipPath id="clip0_4_6099">
<rect width="48" height="48" fill="white"/>
</clipPath>
</defs>
</svg>
