<svg width="48" height="48" viewBox="0 0 48 48" fill="none" xmlns="http://www.w3.org/2000/svg">
<mask id="mask0_4_5933" style="mask-type:alpha" maskUnits="userSpaceOnUse" x="0" y="0" width="48" height="48">
<rect width="48" height="48" fill="#D9D9D9"/>
</mask>
<g mask="url(#mask0_4_5933)">
<path d="M5.15002 21.8501V37.5001H13.4667C16.1784 37.5001 18.3834 35.2951 18.3834 32.5834V27.4334C18.3834 24.7217 16.1784 22.5167 13.4667 22.5167H9.65002V21.8501C9.65002 14.4434 15.29 8.33173 22.5 7.57839V3.06006C12.805 3.82673 5.15002 11.9617 5.15002 21.8501ZM13.4667 27.0167C13.6917 27.0167 13.8834 27.2067 13.8834 27.4334V32.5834C13.8834 32.8251 13.7084 33.0001 13.4667 33.0001H9.65002V27.0167H13.4667Z" fill="#200000"/>
<path d="M25.5 3.06006V7.57839C32.71 8.33006 38.35 14.4434 38.35 21.8501V22.5167H34.5333C31.8217 22.5167 29.6167 24.7217 29.6167 27.4334V32.5834C29.6167 35.2951 31.8217 37.5001 34.5333 37.5001H38.345C38.3 39.1617 36.9383 40.5001 35.2667 40.5001H25.5L24 45.0001H35.2667C39.4217 45.0001 42.8033 41.6451 42.8483 37.5001H42.85V21.8501C42.85 11.9617 35.195 3.82673 25.5 3.06006ZM38.35 32.0501V33.0001H34.5333C34.2917 33.0001 34.1167 32.8251 34.1167 32.5834V27.4334C34.1167 27.2067 34.3083 27.0167 34.5333 27.0167H38.35V32.0501Z" fill="#200000"/>
</g>
</svg>
