<svg width="48" height="48" viewBox="0 0 48 48" fill="none" xmlns="http://www.w3.org/2000/svg">
<g clip-path="url(#clip0_4_6095)">
<mask id="mask0_4_6095" style="mask-type:luminance" maskUnits="userSpaceOnUse" x="0" y="0" width="48" height="48">
<path d="M48 0H0V48H48V0Z" fill="white"/>
</mask>
<g mask="url(#mask0_4_6095)">
<path d="M24 42.1516L23.2117 41.8582C23.0083 41.7816 18.175 39.9532 13.285 36.0882C6.62332 30.8249 3.06666 24.2949 2.99832 17.2049C2.93499 11.1099 8.06666 6.08156 14.435 5.9999C17.455 5.96156 19.9483 6.9099 21.845 8.82156C22.7167 9.6999 23.4067 10.7282 23.9633 11.7732C25.47 8.9899 28.2167 5.93823 33.56 5.9999C39.93 6.08156 45.0616 11.1099 44.9983 17.2066C44.93 24.2949 41.3733 30.8249 34.7117 36.0882C29.8217 39.9516 24.9883 41.7816 24.785 41.8582L23.9967 42.1516H24ZM14.6283 10.4982C14.5833 10.4982 14.54 10.4982 14.495 10.4982C10.6 10.5482 7.46165 13.5366 7.49999 17.1582C7.55499 22.8882 10.41 28.0449 15.9833 32.4832C19.235 35.0716 22.5317 36.6682 24 37.3132C25.4667 36.6682 28.7633 35.0732 32.0167 32.4832C37.5917 28.0449 40.445 22.8899 40.5 17.1599C40.5367 13.5366 37.3983 10.5482 33.505 10.4982C33.46 10.4982 33.4133 10.4982 33.3683 10.4982C30.1033 10.4982 28.44 12.0366 26.815 16.5166L26.2767 17.9999H21.6483L21.1133 16.5099C19.51 12.0366 17.8617 10.4999 14.6267 10.4999L14.6283 10.4982Z" fill="#200000"/>
</g>
</g>
<defs>
<clipPath id="clip0_4_6095">
<rect width="48" height="48" fill="white"/>
</clipPath>
</defs>
</svg>
