<svg width="48" height="48" viewBox="0 0 48 48" fill="none" xmlns="http://www.w3.org/2000/svg">
<path fill-rule="evenodd" clip-rule="evenodd" d="M20.6459 5.70551C22.5881 4.09816 25.3969 4.09816 27.3391 5.70551L41.5909 17.5288C42.787 18.5208 43.5 19.995 43.5 21.5811V38.237C43.5 41.1294 41.15 43.5 38.25 43.5H27V31.798L21 32.6586V43.5H9.75C6.85001 43.5 4.5 41.1294 4.5 38.237V21.5811C4.5 20.0166 5.20786 18.5256 6.40793 17.5297L20.6459 5.70551ZM23.5141 9.17469L9.28207 20.994C9.10283 21.1427 9 21.369 9 21.5811V38.237C9 38.6576 9.34999 38.9978 9.75 38.9978H16.5V28.7557L31.5 26.6044V38.9978H38.25C38.65 38.9978 39 38.6576 39 38.237V21.5811C39 21.36 38.903 21.1475 38.7191 20.995L24.4709 9.17469C24.1934 8.94558 23.7917 8.94569 23.5141 9.17469Z" fill="#200000"/>
</svg>
