<svg width="48" height="48" viewBox="0 0 48 48" fill="none" xmlns="http://www.w3.org/2000/svg">
<g clip-path="url(#clip0_4_6033)">
<mask id="mask0_4_6033" style="mask-type:luminance" maskUnits="userSpaceOnUse" x="0" y="0" width="48" height="48">
<path d="M48 0H0V48H48V0Z" fill="white"/>
</mask>
<g mask="url(#mask0_4_6033)">
<path d="M41.805 4.60843C40.7283 3.6751 39.3 3.2551 37.89 3.45676L8.72167 7.62343C6.315 7.96843 4.5 10.0601 4.5 12.4901V25.8084C4.5 30.6534 6.92167 35.1801 10.82 37.6234L21.3883 44.2484C22.1817 44.7451 23.09 44.9951 24 44.9951C24.9083 44.9951 25.8183 44.7468 26.6117 44.2484L37.18 37.6234C41.0783 35.1784 43.5 30.6518 43.5 25.8084V8.32343C43.5 6.89676 42.8817 5.54176 41.805 4.60843ZM39 25.8084C39 29.1151 37.3867 32.1818 34.79 33.8101L24.2217 40.4351C24.085 40.5201 23.915 40.5201 23.7783 40.4351L13.21 33.8101C10.6133 32.1834 9 29.1168 9 25.8084V12.4901C9 12.2801 9.15167 12.1068 9.35833 12.0768L38.525 7.9101C38.5467 7.90676 38.5683 7.9051 38.5883 7.9051C38.71 7.9051 38.8 7.95843 38.8567 8.00676C38.9217 8.06343 39 8.1651 39 8.32176V25.8068V25.8084Z" fill="#200000"/>
<path d="M25.016 25.016C27.4954 25.016 29.524 22.9874 29.524 20.508C29.524 18.0286 27.4954 16 25.016 16C22.5366 16 20.508 18.0286 20.508 20.508C20.508 22.9874 22.5366 25.016 25.016 25.016ZM34.032 30.4932C34.032 29.9506 34.032 29.5453 34.032 29.2437C34.032 28.7547 33.6793 28.3387 33.1963 28.2619C31.3129 27.9626 26.7654 27.27 25.016 27.27C23.2666 27.27 18.7191 27.9626 16.8357 28.2619C16.3527 28.3387 16 28.7546 16 29.2437C16 30.1408 16 31.5855 16 32.7472V34.032L34.032 31.778V30.4932Z" fill="#200000"/>
</g>
</g>
<defs>
<clipPath id="clip0_4_6033">
<rect width="48" height="48" fill="white"/>
</clipPath>
</defs>
</svg>
