<svg width="48" height="48" viewBox="0 0 48 48" fill="none" xmlns="http://www.w3.org/2000/svg">
<g clip-path="url(#clip0_4_6098)">
<mask id="mask0_4_6098" style="mask-type:luminance" maskUnits="userSpaceOnUse" x="0" y="0" width="48" height="48">
<path d="M48 0H0V48H48V0Z" fill="white"/>
</mask>
<g mask="url(#mask0_4_6098)">
<path d="M20.25 32.4317L31.4283 21.2534L36 26.2417V28.5001L40.5 27.0001V10.9001C40.5 8.1884 38.295 5.9834 35.5833 5.9834H7.91667C5.205 5.9834 3 8.1884 3 10.9001V34.0834C3 36.7951 5.205 39.0001 7.91667 39.0001H28.5V34.5001H7.91667C7.85 34.5001 7.78667 34.4817 7.73 34.4517L15 27.1817L20.25 32.4317ZM7.91667 10.4834H35.5833C35.8083 10.4834 36 10.6751 36 10.9001V19.5801L31.5717 14.7467L20.25 26.0684L15 20.8184L7.5 28.3184V10.9001C7.5 10.6751 7.69167 10.4834 7.91667 10.4834Z" fill="#200000"/>
<path d="M45 34.5H40.5V30L36 31.5V34.5H31.5V39H36V43.5L40.5 42V39H45V34.5Z" fill="#200000"/>
</g>
</g>
<defs>
<clipPath id="clip0_4_6098">
<rect width="48" height="48" fill="white"/>
</clipPath>
</defs>
</svg>
