<svg width="48" height="48" viewBox="0 0 48 48" fill="none" xmlns="http://www.w3.org/2000/svg">
<mask id="mask0_4_5955" style="mask-type:alpha" maskUnits="userSpaceOnUse" x="0" y="0" width="48" height="48">
<rect width="48" height="48" fill="#D9D9D9"/>
</mask>
<g mask="url(#mask0_4_5955)">
<mask id="mask1_4_5955" style="mask-type:luminance" maskUnits="userSpaceOnUse" x="0" y="0" width="48" height="48">
<path d="M48 0H0V48H48V0Z" fill="white"/>
</mask>
<g mask="url(#mask1_4_5955)">
<path d="M24 3C12.42 3 3 12.42 3 24C3 35.58 12.42 45 24 45C35.58 45 45 35.58 45 24C45 12.42 35.58 3 24 3ZM24 40.5C14.9017 40.5 7.5 33.0983 7.5 24C7.5 14.9017 14.9017 7.5 24 7.5C33.0983 7.5 40.5 14.9017 40.5 24C40.5 33.0983 33.0983 40.5 24 40.5Z" fill="#200000"/>
<path d="M21.75 34.5L26.25 36V21L21.75 19.5V34.5Z" fill="#200000"/>
<path d="M21.75 16.5L26.25 18V13.5L21.75 12V16.5Z" fill="#200000"/>
</g>
</g>
</svg>
