<svg width="48" height="48" viewBox="0 0 48 48" fill="none" xmlns="http://www.w3.org/2000/svg">
<g clip-path="url(#clip0_4_6007)">
<mask id="mask0_4_6007" style="mask-type:luminance" maskUnits="userSpaceOnUse" x="0" y="0" width="48" height="48">
<path d="M48 0H0V48H48V0Z" fill="white"/>
</mask>
<g mask="url(#mask0_4_6007)">
<path d="M41.91 24.3533C41.9683 23.7383 42 23.1183 42 22.5C42 11.7483 33.2517 3 22.5 3C11.7483 3 3 11.7483 3 22.5C3 33.2517 11.7483 42 22.5 42C23.12 42 23.74 41.9683 24.3533 41.9117C25.08 43.72 26.8517 45 28.9167 45H40.0833C42.795 45 45 42.795 45 40.0833V28.9167C45 26.8517 43.72 25.08 41.91 24.3533ZM37.5 22.5C37.5 23.0017 37.4733 23.5017 37.425 24H32.9683C32.9883 23.5 33.0017 23 33.0017 22.5C33.0017 17.8183 32.1583 13.3717 30.6217 9.89333C34.7583 12.5667 37.5017 17.2183 37.5017 22.5H37.5ZM24 28.9167V36.89C23.5667 37.2267 23.0483 37.5 22.5 37.5C21.2483 37.5 19.8267 36.09 18.6967 33.7267C17.5517 31.3317 16.8083 28.1467 16.5783 24.75H22.5017L24.0033 20.25H16.5783C16.8083 16.8533 17.5517 13.6683 18.6967 11.2733C19.8267 8.91 21.2483 7.5 22.5 7.5C23.7517 7.5 25.1733 8.91 26.3033 11.2733C27.6983 14.1917 28.5 18.2833 28.5 22.5C28.5 23.0067 28.4867 23.515 28.4633 24.0217C25.9633 24.2517 24 26.3583 24 28.9167ZM14.38 9.89333C13.0917 12.81 12.2933 16.405 12.0683 20.25H7.66833C8.32333 15.9133 10.8417 12.18 14.38 9.89333ZM7.66833 24.75H12.0683C12.2933 28.595 13.0917 32.19 14.38 35.1067C10.8417 32.82 8.32333 29.0867 7.66833 24.75ZM40.5 40.0833C40.5 40.3133 40.3133 40.5 40.0833 40.5H28.9167C28.6867 40.5 28.5 40.3133 28.5 40.0833V28.9167C28.5 28.6867 28.6867 28.5 28.9167 28.5H32.25V31.5H36.75V28.5H40.0833C40.3133 28.5 40.5 28.6867 40.5 28.9167V40.0833Z" fill="#200000"/>
</g>
</g>
<defs>
<clipPath id="clip0_4_6007">
<rect width="48" height="48" fill="white"/>
</clipPath>
</defs>
</svg>
