<svg width="48" height="48" viewBox="0 0 48 48" fill="none" xmlns="http://www.w3.org/2000/svg">
<mask id="mask0_4_5948" style="mask-type:alpha" maskUnits="userSpaceOnUse" x="0" y="0" width="48" height="48">
<rect width="48" height="48" fill="#D9D9D9"/>
</mask>
<g mask="url(#mask0_4_5948)">
<path d="M24 3C12.42 3 3 12.42 3 24C3 35.58 12.42 45 24 45C35.58 45 45 35.58 45 24C45 12.42 35.58 3 24 3ZM29.25 24C29.25 34.6767 25.7817 40.5 24 40.5C22.3483 40.5 19.2483 35.49 18.805 26.25H25.5L27 21.75H18.805C19.2483 12.51 22.3483 7.5 24 7.5C25.7817 7.5 29.25 13.3233 29.25 24ZM16.96 9.08C16.83 9.36833 16.7117 9.64667 16.6083 9.90667C15.305 13.1633 14.5067 17.305 14.3033 21.75H7.655C8.42333 16.14 12.0217 11.4183 16.9617 9.08H16.96ZM7.65333 26.25H14.3017C14.505 30.695 15.3033 34.8367 16.6067 38.0933C16.71 38.3533 16.8283 38.6317 16.9583 38.92C12.02 36.58 8.42167 31.86 7.65167 26.25H7.65333ZM31.04 38.92C31.17 38.6317 31.2883 38.3533 31.3917 38.0933C32.9117 34.2933 33.75 29.2867 33.75 24C33.75 18.7133 32.9133 13.7067 31.3917 9.90667C31.2883 9.64667 31.17 9.36833 31.04 9.08C35.9783 11.42 39.5767 16.14 40.345 21.75H37.4983L35.9983 26.25H40.345C39.5767 31.86 35.9783 36.58 31.04 38.92Z" fill="#200000"/>
</g>
</svg>
