<svg width="48" height="48" viewBox="0 0 48 48" fill="none" xmlns="http://www.w3.org/2000/svg">
<g clip-path="url(#clip0_4_6141)">
<mask id="mask0_4_6141" style="mask-type:luminance" maskUnits="userSpaceOnUse" x="0" y="0" width="48" height="48">
<path d="M48 0H0V48H48V0Z" fill="white"/>
</mask>
<g mask="url(#mask0_4_6141)">
<path d="M32.9283 11.375L31.0517 3H16.9483L15.0717 11.375C12.8867 11.8733 11.25 13.8333 11.25 16.1667V31.8333C11.25 34.1683 12.8883 36.1283 15.075 36.6267L16.9483 45H31.0533L32.9267 36.6267C35.1133 36.1283 36.7517 34.17 36.7517 31.8333V16.1667C36.7517 13.8317 35.115 11.8733 32.93 11.375H32.9283ZM16.1667 32.25C15.94 32.25 15.75 32.06 15.75 31.8333V16.1667C15.75 15.94 15.94 15.75 16.1667 15.75H31.8333C32.06 15.75 32.25 15.94 32.25 16.1667V31.8333C32.25 32.06 32.06 32.25 31.8333 32.25H16.1667ZM27.4483 7.5L28.2883 11.25H19.7117L20.5517 7.5H27.4483ZM20.5517 40.5L19.7133 36.75H28.2867L27.4483 40.5H20.5533H20.5517Z" fill="#200000"/>
</g>
</g>
<defs>
<clipPath id="clip0_4_6141">
<rect width="48" height="48" fill="white"/>
</clipPath>
</defs>
</svg>
