<svg width="48" height="48" viewBox="0 0 48 48" fill="none" xmlns="http://www.w3.org/2000/svg">
<g clip-path="url(#clip0_4_6136)">
<mask id="mask0_4_6136" style="mask-type:luminance" maskUnits="userSpaceOnUse" x="0" y="0" width="48" height="48">
<path d="M48 0H0V48H48V0Z" fill="white"/>
</mask>
<g mask="url(#mask0_4_6136)">
<path d="M23.33 29.6919L25.5 25.7402C24.83 25.3802 23.535 24.6502 21.9283 23.5802C24.2433 20.4269 25.5 17.0002 25.5 13.5152V11.9985H34.5V7.49854H19.5V2.99854L15 4.49854V7.49854H4.5L3 11.9985H21V13.5152C21 15.9569 20.0717 18.4852 18.295 20.9152C16.2717 19.2835 14.135 17.2835 12.2667 14.9485L8.75 17.7652C10.785 20.3035 13.0733 22.4702 15.2467 24.2469C12.305 26.8852 8.365 29.1635 3.71667 30.8985L5.3 35.1152C10.8717 33.0302 15.4967 30.2219 18.9083 26.9819C20.8583 28.3135 22.4633 29.2252 23.33 29.6919Z" fill="#200000"/>
<path d="M35 19.5H31.2833L20.9667 43.5H25.7333L28.3667 37.45H37.6167L40.15 43.5H45.0167L35 19.5ZM30.3167 32.9667L33.0833 26.6L35.7333 32.9667H30.3167Z" fill="#200000"/>
</g>
</g>
<defs>
<clipPath id="clip0_4_6136">
<rect width="48" height="48" fill="white"/>
</clipPath>
</defs>
</svg>
