<svg width="48" height="48" viewBox="0 0 48 48" fill="none" xmlns="http://www.w3.org/2000/svg">
<path d="M42 16.0002C43.0667 16.0002 44 16.4002 44.8 17.2002C45.6 18.0002 46 18.9335 46 20.0002V24.0002C46 24.2335 45.9667 24.4835 45.9 24.7502C45.8333 25.0169 45.7667 25.2669 45.7 25.5002L39.7 39.6002C39.4 40.2669 38.9 40.8335 38.2 41.3002C37.5 41.7669 36.7667 42.0002 36 42.0002H14V16.0002L26 4.1002C26.5 3.6002 27.0917 3.30853 27.775 3.2252C28.4583 3.14186 29.1167 3.26686 29.75 3.6002C30.3833 3.93353 30.85 4.4002 31.15 5.0002C31.45 5.6002 31.5167 6.21686 31.35 6.8502L29.1 16.0002H42ZM18 17.7002V38.0002H36L42 24.0002V20.0002H24L26.7 9.0002L18 17.7002ZM8 42.0002C6.9 42.0002 5.95833 41.6085 5.175 40.8252C4.39167 40.0419 4 39.1002 4 38.0002V20.0002C4 18.9002 4.39167 17.9585 5.175 17.1752C5.95833 16.3919 6.9 16.0002 8 16.0002H14V20.0002H8V38.0002H14V42.0002H8Z" fill="#200000"/>
</svg>
