<svg width="48" height="48" viewBox="0 0 48 48" fill="none" xmlns="http://www.w3.org/2000/svg">
<g clip-path="url(#clip0_4_6049)">
<mask id="mask0_4_6049" style="mask-type:luminance" maskUnits="userSpaceOnUse" x="0" y="0" width="48" height="48">
<path d="M48 0H0V48H48V0Z" fill="white"/>
</mask>
<g mask="url(#mask0_4_6049)">
<path d="M21.75 34.4668H13.4667C7.695 34.4668 3 29.7718 3 24.0001C3 18.2284 7.695 13.5334 13.4667 13.5334H21.75V18.0334H13.4667C10.1767 18.0334 7.5 20.7101 7.5 24.0001C7.5 27.2901 10.1767 29.9668 13.4667 29.9668H21.75V34.4668Z" fill="#200000"/>
<path d="M34.5333 34.4668H26.25V29.9668H34.5333C37.8233 29.9668 40.5 27.2901 40.5 24.0001C40.5 20.7101 37.8233 18.0334 34.5333 18.0334H26.25V13.5334H34.5333C40.305 13.5334 45 18.2284 45 24.0001C45 29.7718 40.305 34.4668 34.5333 34.4668Z" fill="#200000"/>
<path d="M34.5 26.25H12L13.5 21.75H36L34.5 26.25Z" fill="#200000"/>
</g>
</g>
<defs>
<clipPath id="clip0_4_6049">
<rect width="48" height="48" fill="white"/>
</clipPath>
</defs>
</svg>
