<svg width="48" height="48" viewBox="0 0 48 48" fill="none" xmlns="http://www.w3.org/2000/svg">
<g clip-path="url(#clip0_4_6051)">
<mask id="mask0_4_6051" style="mask-type:luminance" maskUnits="userSpaceOnUse" x="0" y="0" width="48" height="48">
<path d="M48 0H0V48H48V0Z" fill="white"/>
</mask>
<g mask="url(#mask0_4_6051)">
<path d="M34.5333 13.5334H33L31.5 18.0334H34.5333C37.8233 18.0334 40.5 20.7101 40.5 24.0001C40.5 27.2901 37.8233 29.9668 34.5333 29.9668H27L25.5 34.4668H34.5333C40.305 34.4668 45 29.7718 45 24.0001C45 18.2284 40.305 13.5334 34.5333 13.5334Z" fill="#200000"/>
<path d="M36 21.75H30L28.5 26.25H34.5L36 21.75Z" fill="#200000"/>
<path d="M28.5517 4.5L22.5983 21.75H13.5L12 26.25H21.045L19.7617 29.9667H13.4667C10.1767 29.9667 7.5 27.29 7.5 24C7.5 20.71 10.1767 18.0333 13.4667 18.0333H21V13.5333H13.4667C7.695 13.5333 3 18.2283 3 24C3 29.7717 7.695 34.4667 13.4667 34.4667H18.2083L15.09 43.5H19.81L33 4.5H28.5517Z" fill="#200000"/>
</g>
</g>
<defs>
<clipPath id="clip0_4_6051">
<rect width="48" height="48" fill="white"/>
</clipPath>
</defs>
</svg>
