<svg width="48" height="48" viewBox="0 0 48 48" fill="none" xmlns="http://www.w3.org/2000/svg">
<g clip-path="url(#clip0_4_6087)">
<mask id="mask0_4_6087" style="mask-type:luminance" maskUnits="userSpaceOnUse" x="0" y="0" width="48" height="48">
<path d="M48 0H0V48H48V0Z" fill="white"/>
</mask>
<g mask="url(#mask0_4_6087)">
<path d="M40.3467 26.25H45L43.5 21.75H40.3467C39.3467 14.4483 33.5517 8.655 26.25 7.65333V3L21.75 4.5V7.65333C14.4483 8.65333 8.65333 14.4483 7.65333 21.75H3L4.5 26.25H7.65333C8.65333 33.5517 14.4483 39.3467 21.75 40.3467V45L26.25 43.5V40.3467C33.5517 39.3467 39.3467 33.5517 40.3467 26.25ZM24 36C17.3833 36 12 30.6167 12 24C12 17.3833 17.3833 12 24 12C30.6167 12 36 17.3833 36 24C36 30.6167 30.6167 36 24 36Z" fill="#200000"/>
<path d="M24 31.5C28.1421 31.5 31.5 28.1421 31.5 24C31.5 19.8579 28.1421 16.5 24 16.5C19.8579 16.5 16.5 19.8579 16.5 24C16.5 28.1421 19.8579 31.5 24 31.5Z" fill="#200000"/>
</g>
</g>
<defs>
<clipPath id="clip0_4_6087">
<rect width="48" height="48" fill="white"/>
</clipPath>
</defs>
</svg>
