<svg width="48" height="48" viewBox="0 0 48 48" fill="none" xmlns="http://www.w3.org/2000/svg">
<mask id="mask0_4_5953" style="mask-type:luminance" maskUnits="userSpaceOnUse" x="0" y="0" width="48" height="48">
<path d="M48 0H0V48H48V0Z" fill="white"/>
</mask>
<g mask="url(#mask0_4_5953)">
<path d="M35.635 7.51167C32.6133 4.60167 28.48 3 24 3C19.52 3 15.3867 4.60333 12.365 7.51167C9.22833 10.5317 7.5 14.795 7.5 19.515C7.5 25.63 10.165 31.8 15.2083 37.3567C18.9367 41.465 22.65 43.8083 22.8067 43.9067L24 44.6533L25.1933 43.9067C25.35 43.8083 29.0617 41.465 32.7917 37.3567C37.835 31.8 40.5 25.6317 40.5 19.515C40.5 14.795 38.7717 10.5317 35.635 7.51167ZM29.5367 34.2467C27.4233 36.59 25.2833 38.3133 24 39.26C22.7167 38.3133 20.575 36.59 18.4633 34.2467C14.175 29.49 12 24.5333 12 19.5167C12 15.98 13.205 12.95 15.485 10.755C17.665 8.65667 20.6883 7.50167 24 7.50167C27.3117 7.50167 30.335 8.65667 32.515 10.755C34.795 12.95 36 15.98 36 19.5167C36 24.535 33.825 29.49 29.5367 34.2467Z" fill="#200000"/>
<path d="M24 10.5166C19.4517 10.5166 15.75 14.2183 15.75 18.7666C15.75 23.3149 19.4517 27.0166 24 27.0166C28.5483 27.0166 32.25 23.3149 32.25 18.7666C32.25 14.2183 28.5483 10.5166 24 10.5166ZM24 22.5166C21.9317 22.5166 20.25 20.8349 20.25 18.7666C20.25 16.6983 21.9317 15.0166 24 15.0166C26.0683 15.0166 27.75 16.6983 27.75 18.7666C27.75 20.8349 26.0683 22.5166 24 22.5166Z" fill="#200000"/>
</g>
</svg>
