<svg width="48" height="48" viewBox="0 0 48 48" fill="none" xmlns="http://www.w3.org/2000/svg">
<mask id="mask0_4_5930" style="mask-type:alpha" maskUnits="userSpaceOnUse" x="0" y="0" width="48" height="48">
<rect width="48" height="48" fill="#D9D9D9"/>
</mask>
<g mask="url(#mask0_4_5930)">
<path d="M36.75 20.2333H36V15C36 8.38333 30.6167 3 24 3C17.3833 3 12 8.38333 12 15V20.2333H11.2667C8.77667 20.2333 6.75 22.26 6.75 24.75V40.4833C6.75 42.9733 8.77667 45 11.2667 45H36.7333C39.2 45 41.2333 42.9867 41.2667 40.5133V24.75C41.2667 22.26 39.24 20.2333 36.75 20.2333ZM16.5 15C16.5 10.865 19.865 7.5 24 7.5C28.135 7.5 31.5 10.865 31.5 15V20.2333H16.5V15ZM36.7667 40.4583C36.7667 40.4867 36.7533 40.5 36.7333 40.5H11.2633C11.2633 40.5 11.2517 40.4917 11.25 40.4833V24.7467C11.25 24.7467 11.2583 24.735 11.2667 24.7333H36.7533C36.7533 24.7333 36.765 24.7417 36.7667 24.75V40.4583Z" fill="#200000"/>
<path d="M19.5 34.5H27L28.5 30H21L19.5 34.5Z" fill="#200000"/>
</g>
</svg>
