<svg width="48" height="48" viewBox="0 0 48 48" fill="none" xmlns="http://www.w3.org/2000/svg">
<g clip-path="url(#clip0_4_6081)">
<mask id="mask0_4_6081" style="mask-type:luminance" maskUnits="userSpaceOnUse" x="0" y="0" width="48" height="48">
<path d="M48 0H0V48H48V0Z" fill="white"/>
</mask>
<g mask="url(#mask0_4_6081)">
<path d="M36.7333 20.2333H36V15C36 8.38333 30.6167 3 24 3C17.3833 3 12 8.38333 12 15V16.5H16.5V15C16.5 10.865 19.865 7.5 24 7.5C28.135 7.5 31.5 10.865 31.5 15V20.2333H11.2667C8.77667 20.2333 6.75 22.26 6.75 24.75V40.4833C6.75 42.9733 8.77667 45 11.2667 45H36.7333C39.2233 45 41.25 42.9733 41.25 40.4833V24.75C41.25 22.26 39.2233 20.2333 36.7333 20.2333ZM36.7483 40.4967C36.7483 40.4967 36.745 40.5017 36.7333 40.5017H11.2633C11.2633 40.5017 11.2517 40.4933 11.25 40.485V24.7483C11.25 24.7483 11.2583 24.7367 11.2667 24.735H36.7367C36.7367 24.735 36.7483 24.7433 36.75 24.7517V40.4967H36.7483Z" fill="#200000"/>
<path d="M19.5 34.5H27L28.5 30H21L19.5 34.5Z" fill="#200000"/>
</g>
</g>
<defs>
<clipPath id="clip0_4_6081">
<rect width="48" height="48" fill="white"/>
</clipPath>
</defs>
</svg>
