<svg width="48" height="48" viewBox="0 0 48 48" fill="none" xmlns="http://www.w3.org/2000/svg">
<mask id="mask0_4_5956" style="mask-type:alpha" maskUnits="userSpaceOnUse" x="0" y="0" width="48" height="48">
<rect width="48" height="48" fill="#D9D9D9"/>
</mask>
<g mask="url(#mask0_4_5956)">
<path d="M43.575 20.5251L33.275 10.2251L30.0933 13.4068L38.435 21.7484H13.5L12 26.2484H38.435L30.0933 34.5901L33.275 37.7718L43.575 27.4718C45.49 25.5568 45.49 22.4384 43.575 20.5234V20.5251Z" fill="#200000"/>
<path d="M7.5 37.0833V10.9167C7.5 10.6917 7.69167 10.5 7.91667 10.5H24V6H7.91667C5.205 6 3 8.205 3 10.9167V37.0833C3 39.795 5.205 42 7.91667 42H24V37.5H7.91667C7.69167 37.5 7.5 37.3083 7.5 37.0833Z" fill="#200000"/>
</g>
</svg>
