<svg width="48" height="48" viewBox="0 0 48 48" fill="none" xmlns="http://www.w3.org/2000/svg">
<g clip-path="url(#clip0_4_6090)">
<mask id="mask0_4_6090" style="mask-type:luminance" maskUnits="userSpaceOnUse" x="0" y="0" width="48" height="48">
<path d="M48 0H0V48H48V0Z" fill="white"/>
</mask>
<g mask="url(#mask0_4_6090)">
<path d="M42.785 15.3201L24 2.9751L5.21504 15.3201L5.20338 15.3284C3.82504 16.2468 3.00171 17.7818 3.00171 19.4334V37.0834C3.00171 39.7951 5.20671 42.0001 7.91838 42.0001H40.085C42.7967 42.0001 45.0017 39.7951 45.0017 37.0834V19.4334C45.0017 17.7818 44.1784 16.2468 42.7867 15.3201H42.785ZM38.66 17.9951L23.9984 27.6251L9.33671 17.9951L23.9984 8.3601L38.66 17.9951ZM40.0817 37.5018H7.91671C7.69004 37.5018 7.50004 37.3101 7.50004 37.0851V22.1718L24 33.0101L40.5 22.1718V37.0851C40.5 37.3101 40.31 37.5018 40.0834 37.5018H40.0817Z" fill="#200000"/>
</g>
</g>
<defs>
<clipPath id="clip0_4_6090">
<rect width="48" height="48" fill="white"/>
</clipPath>
</defs>
</svg>
