<svg width="48" height="48" viewBox="0 0 48 48" fill="none" xmlns="http://www.w3.org/2000/svg">
<g clip-path="url(#clip0_4_5987)">
<mask id="mask0_4_5987" style="mask-type:luminance" maskUnits="userSpaceOnUse" x="0" y="0" width="48" height="48">
<path d="M48 0H0V48H48V0Z" fill="white"/>
</mask>
<g mask="url(#mask0_4_5987)">
<path d="M24.0017 18C27.3117 18 30.0033 20.6917 30.0033 24.0017V25.5H34.5033V24.0017C34.5033 18.2117 29.7917 13.5 24.0017 13.5C18.2117 13.5 13.5 18.2117 13.5 24.0017C13.5 26.4333 14.3517 28.805 15.9 30.6817L19.3717 27.8183C18.475 26.7317 18.0017 25.4117 18.0017 24.0017C18.0017 20.6917 20.6933 18 24.0033 18H24.0017Z" fill="#200000"/>
<path d="M12.2733 32.4466L9.51664 31.4733L8.41331 29.0166L9.62331 26.0483C10.16 24.7249 10.16 23.2699 9.62331 21.9483L8.41498 18.9816L9.51831 16.5233L12.2733 15.5516C13.83 15.0033 15.0383 13.7949 15.59 12.2349L16.5 9.6616L19.2033 8.44827L21.9916 9.58327C23.3133 10.1199 24.7683 10.1199 26.0916 9.58327L29.0583 8.37494C29.9383 8.76994 30.635 9.08327 31.5166 9.47827L32.4883 12.2333C33.0366 13.7899 34.245 14.9983 35.805 15.5499L38.3783 16.4599L39.5916 19.1616L38.29 22.3566V25.4983H42.79V23.2383L44.485 19.0766L41.6916 12.8583L37.3033 11.3083C37.0333 11.2133 36.825 11.0049 36.73 10.7366L35.1166 6.1616L34.2366 5.7666C32.6816 5.06827 31.8033 4.67327 30.3383 4.01494L29.1433 3.47827L24.395 5.41327C24.165 5.5066 23.9133 5.5066 23.685 5.41327L19.115 3.5516L12.8966 6.34327L11.3466 10.7316C11.2516 11.0016 11.0433 11.2099 10.775 11.3049L6.20164 12.9183L3.51831 18.8916L5.45331 23.6416C5.54664 23.8699 5.54664 24.1216 5.45331 24.3499L3.51831 29.0999L6.20164 35.0733L10.7733 36.6866C11.0433 36.7816 11.2516 36.9899 11.3466 37.2583L13.0383 42.0633L17.7883 42.0033L15.5916 35.7616C15.0433 34.2049 13.835 32.9966 12.275 32.4433L12.2733 32.4466Z" fill="#200000"/>
<path d="M40.9383 27H23.5617C21.3217 27 19.5 28.8217 19.5 31.0617V40.9383C19.5 43.1783 21.3217 45 23.5617 45H35.98C36.93 45 37.855 44.665 38.58 44.0583L43.54 39.925C44.4683 39.15 45 38.0133 45 36.8067V31.0617C45 28.8217 43.1783 27 40.9383 27ZM40.5 36.6017L35.8217 40.5H24V31.5H40.5V36.6017Z" fill="#200000"/>
<path d="M32.25 33.75H26.25V38.25H32.25V33.75Z" fill="#200000"/>
</g>
</g>
<defs>
<clipPath id="clip0_4_5987">
<rect width="48" height="48" fill="white"/>
</clipPath>
</defs>
</svg>
