<svg width="48" height="48" viewBox="0 0 48 48" fill="none" xmlns="http://www.w3.org/2000/svg">
<mask id="mask0_4_6148" style="mask-type:alpha" maskUnits="userSpaceOnUse" x="0" y="0" width="48" height="48">
<rect width="48" height="48" fill="#D9D9D9"/>
</mask>
<g mask="url(#mask0_4_6148)">
<path fill-rule="evenodd" clip-rule="evenodd" d="M26 8.8L18 6L7.4 9.6C6.96667 9.76667 6.625 10.0167 6.375 10.35C6.125 10.6833 6 11.0667 6 11.5V39.5C6 40.2 6.28333 40.7583 6.85 41.175C7.41667 41.5917 8.03333 41.6667 8.7 41.4L18 37.8L30 42L40.6 38.4C41.0333 38.2333 41.375 37.9833 41.625 37.65C41.875 37.3167 42 36.9333 42 36.5V22L38 24V35.1L32 37.1V22L28 20V37.1L20 34.3V10.9L26 13V8.8ZM16 34.3L10 36.6V12.9L16 10.9V34.3Z" fill="#200000"/>
<path fill-rule="evenodd" clip-rule="evenodd" d="M30 10.5C30 12.5333 30.6833 14.3083 32.05 15.825C33.4167 17.3417 34.9 18.7333 36.5 20C38.1 18.7333 39.5833 17.3417 40.95 15.825C42.3167 14.3083 43 12.5333 43 10.5C43 8.7 42.3667 7.16667 41.1 5.9C39.8333 4.63333 38.3 4 36.5 4C34.7 4 33.1667 4.63333 31.9 5.9C30.6333 7.16667 30 8.7 30 10.5ZM36.5 12C37.6046 12 38.5 11.1046 38.5 10C38.5 8.89543 37.6046 8 36.5 8C35.3954 8 34.5 8.89543 34.5 10C34.5 11.1046 35.3954 12 36.5 12Z" fill="#200000"/>
</g>
</svg>
