<svg width="48" height="48" viewBox="0 0 48 48" fill="none" xmlns="http://www.w3.org/2000/svg">
<g clip-path="url(#clip0_4_5997)">
<mask id="mask0_4_5997" style="mask-type:luminance" maskUnits="userSpaceOnUse" x="0" y="0" width="48" height="48">
<path d="M48 0H0V48H48V0Z" fill="white"/>
</mask>
<g mask="url(#mask0_4_5997)">
<path d="M32.55 12.8517L30.315 12.2934C30.1283 12.2467 30 12.0817 30 11.89V7.4917H31.5L33 2.9917H16.5L15 7.4917H18V11.89C18 12.0817 17.87 12.2467 17.685 12.2934L15.45 12.8517C11.6533 13.8 9 17.1967 9 21.1117V40.0834C9 42.795 11.205 45 13.9167 45H34.0833C36.795 45 39 42.795 39 40.0834V21.1117C39 17.1967 36.3483 13.8017 32.55 12.8517ZM34.5 40.0834C34.5 40.3134 34.3133 40.5 34.0833 40.5H13.9167C13.6867 40.5 13.5 40.3134 13.5 40.0834V21.1117C13.5 19.2667 14.75 17.665 16.54 17.2184L18.775 16.66C20.9683 16.1117 22.5 14.15 22.5 11.89V7.4917H25.5V11.89C25.5 14.15 27.0317 16.1117 29.225 16.66L31.46 17.2184C33.25 17.665 34.5 19.2667 34.5 21.1117V40.0834Z" fill="#200000"/>
<path d="M26.25 21H21.75V25.5H18L16.5 30H21.75V34.5H26.25V30H30L31.5 25.5H26.25V21Z" fill="#200000"/>
</g>
</g>
<defs>
<clipPath id="clip0_4_5997">
<rect width="48" height="48" fill="white"/>
</clipPath>
</defs>
</svg>
