<svg width="48" height="48" viewBox="0 0 48 48" fill="none" xmlns="http://www.w3.org/2000/svg">
<path d="M26.8477 2.05615C30.8033 0.996578 31.7637 3.02696 31.7637 6.97217V16.2358H39.084C41.7952 16.2362 43.9998 18.4406 44 21.1519V26.8472C43.9999 28.2037 43.4311 29.514 42.4395 30.439C41.4478 31.3654 40.1031 31.8431 38.75 31.7515L31.7637 31.7085V41.1382C31.7636 45.1524 30.1992 46.7801 26.8477 46.0562L21.1523 44.0562C19.4525 43.6029 18.4855 43.487 17.5605 42.4956C16.6341 41.5042 16.1567 40.1591 16.248 38.8062L16.291 31.6147L8.58398 31.5679C6.01407 31.3929 4.00014 29.2365 4 26.6616V21.1519C4.00023 18.4406 6.20479 16.2362 8.91602 16.2358H16.3848L16.4316 8.63818C16.6068 6.06851 18.1802 4.94566 21.3379 4.05615L26.8477 2.05615ZM26.8535 6.55615C26.8522 6.55614 26.8509 6.55615 26.8496 6.55615L21.3408 8.55518C21.3142 8.55554 21.288 8.55781 21.2627 8.56299C21.0798 8.59724 20.9359 8.75118 20.9238 8.94287L20.8789 16.2358H20.8867L20.8594 20.7329H8.92383C8.89442 20.7329 8.86557 20.7349 8.83789 20.7407C8.64571 20.7775 8.50034 20.9471 8.5 21.1499V26.6597C8.50014 26.8779 8.67043 27.0624 8.88867 27.0757L16.3184 27.1196L20.8105 27.146V27.1479H20.8174L20.791 31.6421H20.7832L20.7383 39.1108V39.1401C20.7384 39.2727 20.7981 39.3647 20.8496 39.4214C20.9063 39.4814 21.0064 39.5542 21.1562 39.5542L26.8496 41.5542L26.8525 41.5532L26.8574 41.5552C27.0869 41.5547 27.2732 41.3667 27.2734 41.1372V27.186L31.7637 27.2134V27.2163L39.0547 27.2612H39.0859C39.1191 27.2612 39.1495 27.256 39.1777 27.2495C39.2659 27.2311 39.3315 27.1886 39.375 27.1489C39.4349 27.0923 39.5057 26.992 39.5059 26.8423L39.5078 21.1489C39.5074 20.9195 39.3212 20.7333 39.0918 20.7329H27.2734V6.97119C27.2734 6.74147 27.087 6.55563 26.8574 6.55518L26.8535 6.55615Z" fill="#200000"/>
</svg>
