<svg width="48" height="48" viewBox="0 0 48 48" fill="none" xmlns="http://www.w3.org/2000/svg">
<path d="M11.1034 13.2528H2.50558L4.65503 6.80444H13.2528L11.1034 13.2528Z" fill="#200000"/>
<path d="M27.2242 13.2528H18.6264L20.7758 6.80444H29.3736L27.2242 13.2528Z" fill="#200000"/>
<path d="M43.345 13.2528H34.7472L36.8966 6.80444H45.4944L43.345 13.2528Z" fill="#200000"/>
<path d="M11.1034 27.2242H2.50558L4.65503 20.7759H13.2528L11.1034 27.2242Z" fill="#200000"/>
<path d="M27.2242 27.2242H18.6264L20.7758 20.7759H29.3736L27.2242 27.2242Z" fill="#200000"/>
<path d="M43.345 27.2242H34.7472L36.8966 20.7759H45.4944L43.345 27.2242Z" fill="#200000"/>
<path d="M11.1034 41.1954H2.50558L4.65503 34.7471H13.2528L11.1034 41.1954Z" fill="#200000"/>
<path d="M27.2242 41.1954H18.6264L20.7758 34.7471H29.3736L27.2242 41.1954Z" fill="#200000"/>
<path d="M43.345 41.1954H34.7472L36.8966 34.7471H45.4944L43.345 41.1954Z" fill="#200000"/>
</svg>
