<svg width="48" height="48" viewBox="0 0 48 48" fill="none" xmlns="http://www.w3.org/2000/svg">
<g clip-path="url(#clip0_4_6077)">
<mask id="mask0_4_6077" style="mask-type:luminance" maskUnits="userSpaceOnUse" x="0" y="0" width="48" height="48">
<path d="M48 0H0V48H48V0Z" fill="white"/>
</mask>
<g mask="url(#mask0_4_6077)">
<path d="M21.75 23.8333L26.25 22.55V12L21.75 13.2833V23.8333Z" fill="#200000"/>
<path d="M21.75 30L26.25 28.5V24.75L21.75 26.25V30Z" fill="#200000"/>
<path d="M40.0833 4.5166H7.91667C5.205 4.5166 3 6.7216 3 9.43327V38.5666C3 41.2783 5.205 43.4833 7.91667 43.4833H9.41667C10.3817 43.4833 11.315 43.2066 12.115 42.6833L19.8817 37.5666C19.945 37.5249 20.0333 37.4999 20.1167 37.4999H40.0833C42.795 37.4999 45 35.2949 45 32.5833V9.43327C45 6.7216 42.795 4.5166 40.0833 4.5166ZM40.5 32.5833C40.5 32.8083 40.31 32.9999 40.0833 32.9999H20.1167C19.1517 32.9999 18.2183 33.2766 17.4117 33.8049L9.65 38.9183C9.58667 38.9583 9.5 38.9833 9.41667 38.9833H7.91667C7.69 38.9833 7.5 38.7916 7.5 38.5666V9.43327C7.5 9.20827 7.69 9.0166 7.91667 9.0166H40.0833C40.31 9.0166 40.5 9.20827 40.5 9.43327V32.5833Z" fill="#200000"/>
</g>
</g>
<defs>
<clipPath id="clip0_4_6077">
<rect width="48" height="48" fill="white"/>
</clipPath>
</defs>
</svg>
