<svg width="48" height="48" viewBox="0 0 48 48" fill="none" xmlns="http://www.w3.org/2000/svg">
<g clip-path="url(#clip0_4_6079)">
<mask id="mask0_4_6079" style="mask-type:luminance" maskUnits="userSpaceOnUse" x="0" y="0" width="48" height="48">
<path d="M48 0H0V48H48V0Z" fill="white"/>
</mask>
<g mask="url(#mask0_4_6079)">
<path d="M12 19.5H34.5L36 15H13.5L12 19.5Z" fill="#200000"/>
<path d="M12 27H34.5L36 22.5H13.5L12 27Z" fill="#200000"/>
<path d="M40.0833 6.0166H7.91667C5.205 6.0166 3 8.2216 3 10.9333V37.0666C3 39.7783 5.205 41.9833 7.91667 41.9833H9.41667C10.3817 41.9833 11.3133 41.7066 12.115 41.1833L19.8817 36.0666C19.945 36.0249 20.0333 35.9999 20.1167 35.9999H40.0833C42.795 35.9999 45 33.7949 45 31.0833V10.9333C45 8.2216 42.795 6.0166 40.0833 6.0166ZM40.5 31.0833C40.5 31.3083 40.31 31.4999 40.0833 31.4999H20.1167C19.1517 31.4999 18.22 31.7766 17.4117 32.3049L9.65167 37.4183C9.58833 37.4599 9.5 37.4849 9.41667 37.4849H7.91667C7.69 37.4849 7.5 37.2933 7.5 37.0683V10.9333C7.5 10.7083 7.69 10.5166 7.91667 10.5166H40.0833C40.31 10.5166 40.5 10.7083 40.5 10.9333V31.0833Z" fill="#200000"/>
</g>
</g>
<defs>
<clipPath id="clip0_4_6079">
<rect width="48" height="48" fill="white"/>
</clipPath>
</defs>
</svg>
