<svg width="48" height="48" viewBox="0 0 48 48" fill="none" xmlns="http://www.w3.org/2000/svg">
<g clip-path="url(#clip0_4_6078)">
<mask id="mask0_4_6078" style="mask-type:luminance" maskUnits="userSpaceOnUse" x="0" y="0" width="48" height="48">
<path d="M48 0H0V48H48V0Z" fill="white"/>
</mask>
<g mask="url(#mask0_4_6078)">
<path d="M9.41667 43.4833H7.91667C5.205 43.4833 3 41.2783 3 38.5666V9.43327C3 6.7216 5.205 4.5166 7.91667 4.5166H40.0833C42.795 4.5166 45 6.7216 45 9.43327V32.5833C45 35.2949 42.795 37.4999 40.0833 37.4999H20.1167C20.0333 37.4999 19.945 37.5249 19.8817 37.5666L12.115 42.6833C11.315 43.2066 10.3817 43.4833 9.41667 43.4833ZM7.91667 9.0166C7.69 9.0166 7.5 9.20827 7.5 9.43327V38.5666C7.5 38.7916 7.69 38.9833 7.91667 38.9833H9.41667C9.5 38.9833 9.58833 38.9583 9.65167 38.9166L17.4117 33.8033C18.2183 33.2749 19.1517 32.9983 20.1167 32.9983H40.0833C40.31 32.9983 40.5 32.8066 40.5 32.5816V9.43327C40.5 9.20827 40.31 9.0166 40.0833 9.0166H7.91667Z" fill="#200000"/>
</g>
</g>
<defs>
<clipPath id="clip0_4_6078">
<rect width="48" height="48" fill="white"/>
</clipPath>
</defs>
</svg>
