<svg width="48" height="48" viewBox="0 0 48 48" fill="none" xmlns="http://www.w3.org/2000/svg">
<g clip-path="url(#clip0_4_6067)">
<mask id="mask0_4_6067" style="mask-type:luminance" maskUnits="userSpaceOnUse" x="0" y="0" width="48" height="48">
<path d="M48 0H0V48H48V0Z" fill="white"/>
</mask>
<g mask="url(#mask0_4_6067)">
<path d="M24 45C12.42 45 3 35.58 3 24C3 12.42 12.42 3 24 3C35.58 3 45 12.42 45 24C45 35.58 35.58 45 24 45ZM24 7.5C14.9017 7.5 7.5 14.9017 7.5 24C7.5 33.0983 14.9017 40.5 24 40.5C33.0983 40.5 40.5 33.0983 40.5 24C40.5 14.9017 33.0983 7.5 24 7.5Z" fill="#200000"/>
<path d="M34.5 26.25H12L13.5 21.75H36L34.5 26.25Z" fill="#200000"/>
</g>
</g>
<defs>
<clipPath id="clip0_4_6067">
<rect width="48" height="48" fill="white"/>
</clipPath>
</defs>
</svg>
