<svg width="48" height="48" viewBox="0 0 48 48" fill="none" xmlns="http://www.w3.org/2000/svg">
<g clip-path="url(#clip0_4_6061)">
<mask id="mask0_4_6061" style="mask-type:luminance" maskUnits="userSpaceOnUse" x="0" y="0" width="48" height="48">
<path d="M48 0H0V48H48V0Z" fill="white"/>
</mask>
<g mask="url(#mask0_4_6061)">
<path d="M24 42C14.075 42 6 33.925 6 24C6 19.4383 7.71 15.0883 10.8167 11.7483C13.905 8.42997 18.0867 6.40831 22.5917 6.05664L24.265 9.97831C22.16 11.8566 21 14.4383 21 17.25C21 22.6266 25.3733 27 30.75 27C33.5617 27 36.1433 25.84 38.0217 23.735L41.9433 25.4066C41.5917 29.9183 39.57 34.1016 36.25 37.1883C32.9133 40.29 28.5617 41.9983 24 41.9983V42ZM17.425 12.21C16.205 12.8916 15.085 13.7666 14.1117 14.8133C11.7817 17.3166 10.5 20.58 10.5 24C10.5 31.4433 16.5567 37.5 24 37.5C27.4233 37.5 30.685 36.22 33.1867 33.8933C34.235 32.9183 35.1117 31.7966 35.795 30.5733C34.1983 31.18 32.4917 31.5 30.75 31.5C22.8917 31.5 16.5 25.1083 16.5 17.25C16.5 15.5116 16.82 13.805 17.425 12.21Z" fill="#200000"/>
</g>
</g>
<defs>
<clipPath id="clip0_4_6061">
<rect width="48" height="48" fill="white"/>
</clipPath>
</defs>
</svg>
