<svg width="48" height="48" viewBox="0 0 48 48" fill="none" xmlns="http://www.w3.org/2000/svg">
<g clip-path="url(#clip0_4_6021)">
<mask id="mask0_4_6021" style="mask-type:luminance" maskUnits="userSpaceOnUse" x="0" y="0" width="48" height="48">
<path d="M48 0H0V48H48V0Z" fill="white"/>
</mask>
<g mask="url(#mask0_4_6021)">
<path d="M25.0586 21.3755H30L22.9414 36.0005V26.6255H18L25.0586 12.0005V21.3755Z" fill="#200000"/>
<path fill-rule="evenodd" clip-rule="evenodd" d="M37.8906 3.45749C39.3003 3.25603 40.7282 3.67495 41.8047 4.60788C42.8812 5.54105 43.4998 6.89633 43.5 8.32273V25.8091C43.4998 30.6522 41.0779 35.1786 37.1797 37.6235L26.6113 44.2485C25.8181 44.7467 24.9082 44.9946 24 44.9946C23.0901 44.9946 22.1819 44.7451 21.3887 44.2485L10.8203 37.6235C6.92214 35.1803 4.50019 30.6538 4.5 25.8091V12.4907C4.5 10.061 6.31451 7.96892 8.7207 7.62351L37.8906 3.45749ZM38.5254 7.91062L9.35742 12.0766C9.1512 12.107 9 12.281 9 12.4907V25.8091C9.00019 29.1172 10.6144 32.1844 13.2109 33.811L23.7793 40.436C23.9154 40.5201 24.0846 40.5201 24.2207 40.436L34.7891 33.811C37.3856 32.1828 38.9998 29.1155 39 25.8091V8.32273C39 8.16621 38.9224 8.06302 38.8574 8.00632C38.8008 7.95799 38.7096 7.90476 38.5879 7.90476C38.5681 7.90478 38.5468 7.90734 38.5254 7.91062Z" fill="#200000"/>
</g>
</g>
<defs>
<clipPath id="clip0_4_6021">
<rect width="48" height="48" fill="white"/>
</clipPath>
</defs>
</svg>
