<svg width="48" height="48" viewBox="0 0 48 48" fill="none" xmlns="http://www.w3.org/2000/svg">
<path d="M33.7233 30.5595L30.5436 33.7437L41.91 45.0942L45.0898 41.91L33.7233 30.5595Z" fill="#200000"/>
<path d="M21 39C11.0667 39 3 30.9333 3 21C3 11.0667 11.0667 3 21 3C30.9333 3 39 11.0667 39 21C39 25.9833 36.6833 30.8 32.1333 35.3167L28.9667 32.1167C32.65 28.4667 34.5 24.7333 34.5 21C34.5 13.55 28.45 7.5 21 7.5C13.55 7.5 7.5 13.55 7.5 21C7.5 28.45 13.55 34.5 21 34.5C22.5333 34.5 24.0583 34.2383 25.495 33.7333C26.01 33.5533 26.5133 33.3417 27 33.1V37.9667C25.0833 38.65 23.05 39 21 39Z" fill="#200000"/>
<path d="M27.9179 17.8112L24.7359 14.6292L21.0236 18.3415L17.9948 15.3128L13.7522 17.4341L17.8416 21.5235L14.1293 25.2358L17.3113 28.4178L21.0236 24.7055L24.0052 27.6871L28.2479 25.5658L24.2056 21.5235L27.9179 17.8112Z" fill="#200000"/>
</svg>
