<svg width="48" height="48" viewBox="0 0 48 48" fill="none" xmlns="http://www.w3.org/2000/svg">
<g clip-path="url(#clip0_4_6097)">
<mask id="mask0_4_6097" style="mask-type:luminance" maskUnits="userSpaceOnUse" x="0" y="0" width="48" height="48">
<path d="M48 0H0V48H48V0Z" fill="white"/>
</mask>
<g mask="url(#mask0_4_6097)">
<path d="M41.2283 34.4833C39.5733 34.4833 38.2283 33.1366 38.2283 31.4833V19.5L33.7283 21V31.4916C33.7283 32.555 33.955 33.5666 34.3567 34.485H20.5083L40.7633 8.89662L37.235 6.10329L32.94 11.5283C31.005 9.96162 28.695 8.93162 26.2333 8.53996V5.99829L21.7333 4.49829V8.54162C14.95 9.62662 9.75 15.5166 9.75 22.6V31.48C9.75 33.1333 8.405 34.48 6.75 34.48H4.5V38.98H11.2067L8.73667 42.1L12.265 44.8933L16.9467 38.98H21.735V41.9966L26.235 43.4966V38.98H43.4683V34.48H41.23L41.2283 34.4833ZM14.2483 31.5V22.6033C14.2483 17.2333 18.6167 12.8633 23.9883 12.8633C26.255 12.8633 28.4183 13.65 30.1433 15.06L14.7667 34.4833H13.62C14.02 33.5683 14.245 32.56 14.2483 31.5Z" fill="#200000"/>
</g>
</g>
<defs>
<clipPath id="clip0_4_6097">
<rect width="48" height="48" fill="white"/>
</clipPath>
</defs>
</svg>
