<svg width="48" height="48" viewBox="0 0 48 48" fill="none" xmlns="http://www.w3.org/2000/svg">
<g clip-path="url(#clip0_4_5989)">
<mask id="mask0_4_5989" style="mask-type:luminance" maskUnits="userSpaceOnUse" x="0" y="0" width="48" height="48">
<path d="M48 0H0V48H48V0Z" fill="white"/>
</mask>
<g mask="url(#mask0_4_5989)">
<path d="M40.4934 19.4867H45L45.0134 14.9867H40.4934V12.4167C40.4934 9.70505 38.2884 7.50005 35.5767 7.50005H33V2.97339L28.5 3.00006V7.50005H19.5V2.97339L15 3.00006V7.50005H12.41C9.69836 7.50005 7.49336 9.70505 7.49336 12.4167V14.9867H3.00003L2.98669 19.4867H7.49336V28.4867H3.00003L2.98669 32.9867H7.49336V35.5767C7.49336 38.2884 9.69836 40.4934 12.41 40.4934H15V45.0001H19.5V40.4934H28.5V45.0001H33V40.4934H35.5767C38.2884 40.4934 40.4934 38.2884 40.4934 35.5767V32.9867H45L45.0134 28.4867H40.4934V19.4867ZM35.9934 35.5767C35.9934 35.8067 35.8067 35.9934 35.5767 35.9934H12.41C12.18 35.9934 11.9934 35.8067 11.9934 35.5767V12.4167C11.9934 12.1867 12.18 12.0001 12.41 12.0001H35.5767C35.8067 12.0001 35.9934 12.1867 35.9934 12.4167V35.5767Z" fill="#200000"/>
<path d="M26.2433 15L21.7433 16.5V21.7467H15V26.2467H21.7433V33L26.2433 31.5V26.2467H33V21.7467H26.2433V15Z" fill="#200000"/>
</g>
</g>
<defs>
<clipPath id="clip0_4_5989">
<rect width="48" height="48" fill="white"/>
</clipPath>
</defs>
</svg>
