<svg width="48" height="48" viewBox="0 0 48 48" fill="none" xmlns="http://www.w3.org/2000/svg">
<path fill-rule="evenodd" clip-rule="evenodd" d="M24.3 4C23.5449 4 22.8268 4.19844 22.1501 4.59015L8.14969 12.6404C7.47379 13.0317 6.94353 13.5514 6.56587 14.1988C6.18759 14.8473 6 15.5666 6 16.35V32.25C6 33.0334 6.18759 33.7527 6.56587 34.4012C6.94353 35.0486 7.47456 35.5688 8.15046 35.9601L22.1497 44.0096C22.8265 44.4015 23.5448 44.6 24.3 44.6C25.0552 44.6 25.7735 44.4014 26.4503 44.0096L40.4503 35.9596C41.1262 35.5683 41.6565 35.0486 42.0341 34.4012C42.4124 33.7527 42.6 33.0334 42.6 32.25V16.35C42.6 15.5666 42.4124 14.8473 42.0341 14.1988C41.6565 13.5514 41.1254 13.0312 40.4495 12.6399L26.4498 4.59007C25.7731 4.19841 25.055 4 24.3 4ZM24.3 21.6535L13.0494 15.15L24.3 8.64652L35.5506 15.15L24.3 21.6535ZM10.6 32.0271V19.0204L22 25.6229V38.6296L10.6 32.0271ZM26.6 38.6296V25.6229L38 19.0204V32.0271L26.6 38.6296Z" fill="#200000"/>
</svg>
