<svg width="48" height="48" viewBox="0 0 48 48" fill="none" xmlns="http://www.w3.org/2000/svg">
<g clip-path="url(#clip0_4_6005)">
<mask id="mask0_4_6005" style="mask-type:luminance" maskUnits="userSpaceOnUse" x="0" y="0" width="48" height="48">
<path d="M48 0H0V48H48V0Z" fill="white"/>
</mask>
<g mask="url(#mask0_4_6005)">
<path d="M30 26.25H36L37.5 21.75H31.5L30 26.25Z" fill="#200000"/>
<path d="M43.44 7.79491C42.4483 6.86825 41.1033 6.38991 39.75 6.48158L7.58333 8.66658C5.01333 8.84158 3 10.9966 3 13.5716V37.0816C3 39.7932 5.205 41.9982 7.91667 41.9982H40.0833C42.795 41.9982 45 39.7932 45 37.0816V11.3866C45 10.0299 44.4317 8.71991 43.44 7.79491ZM40.5 37.0832C40.5 37.3132 40.3133 37.4999 40.0833 37.4999H7.91667C7.68667 37.4999 7.5 37.3132 7.5 37.0832V13.5732C7.5 13.3549 7.67 13.1716 7.88833 13.1582L40.055 10.9732C40.065 10.9732 40.075 10.9732 40.085 10.9732C40.2183 10.9732 40.31 11.0332 40.3667 11.0849C40.4267 11.1416 40.4983 11.2399 40.4983 11.3899V37.0849L40.5 37.0832Z" fill="#200000"/>
</g>
</g>
<defs>
<clipPath id="clip0_4_6005">
<rect width="48" height="48" fill="white"/>
</clipPath>
</defs>
</svg>
