<svg width="48" height="48" viewBox="0 0 48 48" fill="none" xmlns="http://www.w3.org/2000/svg">
<g clip-path="url(#clip0_4_6032)">
<mask id="mask0_4_6032" style="mask-type:luminance" maskUnits="userSpaceOnUse" x="0" y="0" width="48" height="48">
<path d="M48 0H0V48H48V0Z" fill="white"/>
</mask>
<g mask="url(#mask0_4_6032)">
<path d="M26.0155 30.2344L26.0155 36.2344L21.5155 37.7344L21.5155 31.7344L26.0155 30.2344Z" fill="#200000"/>
<path d="M7.56054 43.6744C6.63387 42.6827 6.15554 41.3377 6.24721 39.9844L8.4322 7.81771C8.6072 5.24771 10.7622 3.23437 13.3372 3.23437L34.8472 3.23437C37.5589 3.23437 39.7639 5.43937 39.7639 8.15104L39.7639 40.3177C39.7639 43.0294 37.5589 45.2344 34.8472 45.2344L11.1522 45.2344C9.79554 45.2344 8.48554 44.666 7.56054 43.6744ZM34.8489 40.7344C35.0789 40.7344 35.2655 40.5477 35.2655 40.3177L35.2655 8.15104C35.2655 7.92104 35.0789 7.73437 34.8489 7.73437L13.3389 7.73437C13.1205 7.73437 12.9372 7.90438 12.9239 8.12271L10.7389 40.2894C10.7389 40.2994 10.7389 40.3094 10.7389 40.3194C10.7389 40.4527 10.7989 40.5444 10.8505 40.601C10.9072 40.661 11.0055 40.7327 11.1555 40.7327L34.8505 40.7327L34.8489 40.7344Z" fill="#200000"/>
</g>
</g>
<defs>
<clipPath id="clip0_4_6032">
<rect width="48" height="48" fill="white"/>
</clipPath>
</defs>
</svg>
