<svg width="48" height="48" viewBox="0 0 48 48" fill="none" xmlns="http://www.w3.org/2000/svg">
<mask id="mask0_4_5940" style="mask-type:alpha" maskUnits="userSpaceOnUse" x="0" y="0" width="48" height="48">
<rect width="48" height="48" fill="#D9D9D9"/>
</mask>
<g mask="url(#mask0_4_5940)">
<path d="M40.1 12H36.3333L32.9 7.8C31.9667 6.65 30.5833 6 29.1 6H24L25.5 10.5H29.1C29.2167 10.5 29.3333 10.55 29.4167 10.65L34.2 16.5H40.1C40.3333 16.5 40.5167 16.6833 40.5167 16.9167V37.0833C40.5167 37.3167 40.3333 37.5 40.1 37.5H7.93333C7.7 37.5 7.51667 37.3167 7.51667 37.0833V16.9167C7.51667 16.6833 7.7 16.5 7.93333 16.5H13.85L18.55 10.65C18.6167 10.55 18.7333 10.5 18.8667 10.5H21L19.5 6H18.8667C17.3667 6 15.9667 6.66667 15.0333 7.83333L11.6667 12H7.91667C5.2 12 3 14.2 3 16.9167V37.0833C3 39.8 5.2 42 7.91667 42H40.0833C42.8 42 45 39.8 45.0167 37.0833V16.9167C45.0167 14.2 42.8167 12 40.1 12Z" fill="#200000"/>
<path d="M13.5 24.75C13.5 30.54 18.21 35.25 24 35.25C29.79 35.25 34.5 30.54 34.5 24.75C34.5 18.96 29.79 14.25 24 14.25C18.21 14.25 13.5 18.96 13.5 24.75ZM24 18.75C27.3083 18.75 30 21.4417 30 24.75C30 28.0583 27.3083 30.75 24 30.75C20.6917 30.75 18 28.0583 18 24.75C18 21.4417 20.6917 18.75 24 18.75Z" fill="#200000"/>
</g>
</svg>
