<svg width="48" height="48" viewBox="0 0 48 48" fill="none" xmlns="http://www.w3.org/2000/svg">
<g clip-path="url(#clip0_4_6084)">
<mask id="mask0_4_6084" style="mask-type:luminance" maskUnits="userSpaceOnUse" x="0" y="0" width="48" height="48">
<path d="M48 0H0V48H48V0Z" fill="white"/>
</mask>
<g mask="url(#mask0_4_6084)">
<path d="M39 25.5H37.5C35.845 25.5 34.5 24.155 34.5 22.5V8.38337C34.5 6.93504 33.87 5.56837 32.77 4.63337C31.67 3.69837 30.2183 3.2967 28.79 3.53004L17.61 5.34837C15.23 5.75004 13.5016 7.79004 13.5016 10.2V22.4834L13.59 22.5H13.5016C13.5016 24.155 12.1566 25.5 10.5016 25.5H9.00165V30H21.7516V45L26.2516 43.5V30H39.0016V25.5H39ZM17.3716 25.5C17.775 24.58 18 23.5667 18 22.5H17.9266L18 22.4834V10.2C18 9.9917 18.1466 9.8217 18.345 9.7867L29.5133 7.97004C29.6766 7.94337 29.79 8.00504 29.855 8.0617C29.9216 8.11837 30 8.22004 30 8.38337V22.5C30 23.5667 30.225 24.58 30.6283 25.5H17.3716Z" fill="#200000"/>
</g>
</g>
<defs>
<clipPath id="clip0_4_6084">
<rect width="48" height="48" fill="white"/>
</clipPath>
</defs>
</svg>
