<svg width="48" height="48" viewBox="0 0 48 48" fill="none" xmlns="http://www.w3.org/2000/svg">
<g clip-path="url(#clip0_4_6063)">
<mask id="mask0_4_6063" style="mask-type:luminance" maskUnits="userSpaceOnUse" x="0" y="0" width="48" height="48">
<path d="M48 0H0V48H48V0Z" fill="white"/>
</mask>
<g mask="url(#mask0_4_6063)">
<path d="M29.7333 8.68341C27.76 8.68341 25.8717 9.05508 24.1333 9.73341C22.345 9.02508 20.4433 8.66675 18.4667 8.66675C9.93833 8.66675 3 15.6051 3 24.1334C3 32.6617 9.93833 39.6001 18.4667 39.6001C20.4117 39.6001 22.3017 39.2467 24.0917 38.5517C25.84 39.2384 27.7433 39.6167 29.7333 39.6167C38.2617 39.6167 45.2 32.6784 45.2 24.1501C45.2 15.6217 38.2617 8.68341 29.7333 8.68341ZM18.4667 35.1001C12.42 35.1001 7.5 30.1801 7.5 24.1334C7.5 18.0867 12.42 13.1667 18.4667 13.1667C18.5933 13.1667 18.72 13.1717 18.845 13.1767C16.02 15.9801 14.2667 19.8651 14.2667 24.1501C14.2667 28.4351 16.005 32.2901 18.8117 35.0917C18.6967 35.0951 18.5817 35.1001 18.4667 35.1001ZM29.7333 35.1167C23.6867 35.1167 18.7667 30.1967 18.7667 24.1501C18.7667 18.1034 23.6867 13.1834 29.7333 13.1834C35.78 13.1834 40.7 18.1034 40.7 24.1501C40.7 30.1967 35.78 35.1167 29.7333 35.1167Z" fill="#200000"/>
<path d="M32.25 21.9V16.5L27.75 18V21.9H22.5V26.4H27.75V31.5L32.25 30V26.4H37.5V21.9H32.25Z" fill="#200000"/>
</g>
</g>
<defs>
<clipPath id="clip0_4_6063">
<rect width="48" height="48" fill="white"/>
</clipPath>
</defs>
</svg>
