<svg width="48" height="48" viewBox="0 0 48 48" fill="none" xmlns="http://www.w3.org/2000/svg">
<g clip-path="url(#clip0_4_6066)">
<mask id="mask0_4_6066" style="mask-type:luminance" maskUnits="userSpaceOnUse" x="0" y="0" width="48" height="48">
<path d="M48 0H0V48H48V0Z" fill="white"/>
</mask>
<g mask="url(#mask0_4_6066)">
<path d="M38.8467 9.15343C30.66 0.966761 17.3367 0.966761 9.15001 9.15343C0.961675 17.3418 0.961675 30.6634 9.15001 38.8518C13.2433 42.9451 18.6217 44.9934 23.9983 44.9934C29.375 44.9934 34.7533 42.9468 38.8467 38.8518C47.035 30.6634 47.035 17.3418 38.8467 9.15343ZM35.665 35.6701C29.2317 42.1034 18.7633 42.1034 12.33 35.6701C5.89668 29.2368 5.89668 18.7684 12.33 12.3351C15.5467 9.11843 19.7717 7.5101 23.9967 7.5101C28.2217 7.5101 32.4467 9.11843 35.6633 12.3351C42.0967 18.7684 42.0967 29.2368 35.6633 35.6701H35.665Z" fill="#200000"/>
<path d="M26.25 21.75V12L21.75 13.5V21.75H12V26.25H21.75V36L26.25 34.5V26.25H36V21.75H26.25Z" fill="#200000"/>
</g>
</g>
<defs>
<clipPath id="clip0_4_6066">
<rect width="48" height="48" fill="white"/>
</clipPath>
</defs>
</svg>
