<svg width="48" height="48" viewBox="0 0 48 48" fill="none" xmlns="http://www.w3.org/2000/svg">
<g clip-path="url(#clip0_4_6043)">
<mask id="mask0_4_6043" style="mask-type:luminance" maskUnits="userSpaceOnUse" x="0" y="0" width="48" height="48">
<path d="M48 0H0V48H48V0Z" fill="white"/>
</mask>
<g mask="url(#mask0_4_6043)">
<path d="M12.925 20.9583L16.1066 17.7766L12.5816 14.2516H21L22.5 9.75159H12.5816L16.1066 6.22659L12.925 3.04492L7.44162 8.52825C5.52662 10.4433 5.52662 13.5616 7.44162 15.4766L12.925 20.9599V20.9583Z" fill="#200000"/>
<path d="M35.05 27.0417L31.8683 30.2233L35.3933 33.7483H27L25.5 38.2483H35.3933L31.8683 41.7733L35.05 44.955L40.5333 39.4717C41.4583 38.5467 41.9667 37.3133 41.9667 35.9967C41.9667 34.68 41.4567 33.4467 40.5333 32.5217L35.05 27.0383V27.0417Z" fill="#200000"/>
<path d="M38.9667 23.9833H43.4666C43.4666 16.7816 38.0966 10.815 31.1516 9.86829L32.815 4.93662L28.5516 3.49829L18.3483 33.74C13.1583 33.5283 9.00165 29.2416 9.00165 24H4.50165C4.50165 31.22 9.89998 37.1983 16.87 38.1216L15.2033 43.0633L19.4666 44.5016L29.6766 14.2433C34.8417 14.4833 38.9683 18.7583 38.9683 23.9816L38.9667 23.9833Z" fill="#200000"/>
</g>
</g>
<defs>
<clipPath id="clip0_4_6043">
<rect width="48" height="48" fill="white"/>
</clipPath>
</defs>
</svg>
