<svg width="48" height="48" viewBox="0 0 48 48" fill="none" xmlns="http://www.w3.org/2000/svg">
<g clip-path="url(#clip0_4_6040)">
<mask id="mask0_4_6040" style="mask-type:luminance" maskUnits="userSpaceOnUse" x="0" y="0" width="48" height="48">
<path d="M48 0H0V48H48V0Z" fill="white"/>
</mask>
<g mask="url(#mask0_4_6040)">
<path d="M27.75 33.7166H12.6116L16.1366 30.1916L12.955 27.0099L7.47165 32.4933C5.55665 34.4083 5.55665 37.5266 7.47165 39.4416L12.955 44.9249L16.1366 41.7433L12.6116 38.2183H27.75C35.6066 38.2183 42 31.8266 42 23.9683H37.5C37.5 29.3449 33.1266 33.7183 27.75 33.7183V33.7166Z" fill="#200000"/>
<path d="M20.25 14.2166H35.485L31.96 17.7416L35.1417 20.9233L40.625 15.44C42.54 13.525 42.54 10.4066 40.625 8.49163L35.1417 3.0083L31.96 6.18997L35.485 9.71497H20.25C12.3917 9.71497 6 16.1066 6 23.965H10.5C10.5 18.5883 14.8733 14.215 20.25 14.215V14.2166Z" fill="#200000"/>
</g>
</g>
<defs>
<clipPath id="clip0_4_6040">
<rect width="48" height="48" fill="white"/>
</clipPath>
</defs>
</svg>
