<svg width="48" height="48" viewBox="0 0 48 48" fill="none" xmlns="http://www.w3.org/2000/svg">
<mask id="mask0_4_5954" style="mask-type:alpha" maskUnits="userSpaceOnUse" x="0" y="0" width="48" height="48">
<rect width="48" height="48" fill="#D9D9D9"/>
</mask>
<g mask="url(#mask0_4_5954)">
<mask id="mask1_4_5954" style="mask-type:luminance" maskUnits="userSpaceOnUse" x="0" y="0" width="48" height="48">
<path d="M48 0H0V48H48V0Z" fill="white"/>
</mask>
<g mask="url(#mask1_4_5954)">
<path d="M38.2283 31.4833V22.6033C38.2283 15.515 33.0217 9.62167 26.2333 8.54167V6L21.7333 4.5V8.54333C14.95 9.62833 9.75 15.5183 9.75 22.6017V31.4817C9.75 33.135 8.405 34.4817 6.75 34.4817H4.5V38.9817H21.7333V41.9983L26.2333 43.4983V38.9817H43.4667V34.4817H41.2283C39.5733 34.4817 38.2283 33.135 38.2283 31.4817V31.4833ZM14.2483 31.5V22.6033C14.2483 17.2333 18.6167 12.8633 23.9883 12.8633C29.36 12.8633 33.7283 17.2317 33.7283 22.6033V31.4917C33.7283 32.555 33.955 33.5667 34.3567 34.485H13.6217C14.0217 33.57 14.2467 32.5617 14.25 31.5017L14.2483 31.5Z" fill="#200000"/>
<path d="M14.3833 6.81678L11.95 3.03345C6.73333 6.38345 3.46667 11.9001 3 18.0001L7.45 19.5001C7.45 14.3501 10.05 9.60011 14.3833 6.81678Z" fill="#200000"/>
<path d="M40.55 19.5001L45 18.0001C44.55 11.9001 41.2667 6.38345 36.05 3.03345L33.6167 6.81678C37.95 9.60011 40.55 14.3501 40.55 19.5001Z" fill="#200000"/>
</g>
</g>
</svg>
