<svg width="48" height="48" viewBox="0 0 48 48" fill="none" xmlns="http://www.w3.org/2000/svg">
<path d="M2.50002 3.3999C1.92329 3.3999 1.42708 3.60642 1.01681 4.01669C0.606543 4.42696 0.400024 4.92317 0.400024 5.4999V17.4999C0.400024 18.0766 0.606543 18.5728 1.01681 18.9831C1.42708 19.3934 1.92329 19.5999 2.50002 19.5999H14.6V17.3999H2.60002V5.5999H20.4V10.5617L22.6 11.6617V5.4999C22.6 4.92317 22.3935 4.42696 21.9832 4.01669C21.573 3.60642 21.0768 3.3999 20.5 3.3999H2.50002Z" fill="#200000"/>
<path d="M12.4788 6.3999H10.5213V7.52159C9.61988 7.67742 8.86616 8.0673 8.32212 8.70374C7.70531 9.42531 7.40002 10.4144 7.40002 11.6077V15.5999H9.40932V11.6755C9.40932 10.8239 9.5746 10.259 9.83408 9.89617C10.003 9.66002 10.2278 9.48703 10.5213 9.37611V14.4805H12.4788V9.37611C12.7722 9.48703 12.9971 9.66002 13.166 9.89617C13.4254 10.259 13.5907 10.8239 13.5907 11.6755V15.5999H15.6V11.6077C15.6 10.4144 15.2947 9.42531 14.6779 8.70374C14.1339 8.0673 13.3802 7.67742 12.4788 7.52159V6.3999Z" fill="#200000"/>
<path d="M19.5 20.4999L15.5 16.4999L19.5 12.4999L20.9 13.8999L19.325 15.4999H22.5L23.5 17.4999H19.325L20.9 19.0999L19.5 20.4999Z" fill="#200000"/>
</svg>
