<svg width="48" height="48" viewBox="0 0 48 48" fill="none" xmlns="http://www.w3.org/2000/svg">
<g clip-path="url(#clip0_4_6124)">
<mask id="mask0_4_6124" style="mask-type:luminance" maskUnits="userSpaceOnUse" x="0" y="0" width="48" height="48">
<path d="M48 0H0V48H48V0Z" fill="white"/>
</mask>
<g mask="url(#mask0_4_6124)">
<path d="M41.2267 5.09356L29.9667 15.4536V8.25023C29.9667 5.01023 27.4017 2.56689 24 2.56689C20.5983 2.56689 18.0333 5.24356 18.0333 8.53356V23.0169L3 28.0336V32.7836L15.7817 28.5052L3.72667 39.5936L6.77333 42.9052L44.2733 8.40689L41.2267 5.09523V5.09356ZM24 7.0669C24.6767 7.0669 25.4667 7.37689 25.4667 8.25023V19.5936L22.5333 22.2919V8.53356C22.5333 7.72523 23.1917 7.0669 24 7.0669Z" fill="#200000"/>
<path d="M45 32.7836V28.0336L31.9167 23.6836L30 25.3003L25.5 29.0503V38.9836H25.5333V42.0003L36.0333 44.6169V39.8669L30 38.2869V27.9169L45 32.7836Z" fill="#200000"/>
<path d="M18.0333 38.2867L12 39.8667V44.6167L22.5 42V39H22.5333V31.5L18.0333 35.25V38.2867Z" fill="#200000"/>
</g>
</g>
<defs>
<clipPath id="clip0_4_6124">
<rect width="48" height="48" fill="white"/>
</clipPath>
</defs>
</svg>
