<svg width="48" height="48" viewBox="0 0 48 48" fill="none" xmlns="http://www.w3.org/2000/svg">
<g clip-path="url(#clip0_4_6013)">
<mask id="mask0_4_6013" style="mask-type:luminance" maskUnits="userSpaceOnUse" x="0" y="0" width="48" height="48">
<path d="M48 0H0V48H48V0Z" fill="white"/>
</mask>
<g mask="url(#mask0_4_6013)">
<path d="M30 15.5384V7.91838C30 5.20671 27.795 3.00171 25.0833 3.00171H22.9167C20.205 3.00171 18 5.20671 18 7.91838V17.3934L12 18.3217V37.0684C12 39.1 13.2383 40.8467 15 41.5967V45.0017H19.5V41.9867H28.5V45.0017H33V41.5967C34.7617 40.8484 36 39.1 36 37.0684V14.61L30 15.5384ZM22.5 7.91838C22.5 7.68838 22.6867 7.50171 22.9167 7.50171H25.0833C25.3133 7.50171 25.5 7.68838 25.5 7.91838V16.2334L22.5 16.6967V7.91671V7.91838ZM16.5 22.1784L31.5 19.8584V37.0667C31.5 37.2967 31.3133 37.4834 31.0833 37.4834H16.9167C16.6867 37.4834 16.5 37.2967 16.5 37.0667V22.1767V22.1784Z" fill="#200000"/>
</g>
</g>
<defs>
<clipPath id="clip0_4_6013">
<rect width="48" height="48" fill="white"/>
</clipPath>
</defs>
</svg>
