<svg width="48" height="48" viewBox="0 0 48 48" fill="none" xmlns="http://www.w3.org/2000/svg">
<g clip-path="url(#clip0_4_6142)">
<mask id="mask0_4_6142" style="mask-type:luminance" maskUnits="userSpaceOnUse" x="0" y="0" width="48" height="48">
<path d="M48 0H0V48H48V0Z" fill="white"/>
</mask>
<g mask="url(#mask0_4_6142)">
<path d="M37.5 24C37.5 20.325 36.0233 16.9917 33.6333 14.555L31.0533 3H16.9467L14.3667 14.555C11.9767 16.9917 10.5 20.3267 10.5 24C10.5 27.6733 11.9833 31.0233 14.3817 33.46L16.9467 44.95H31.0533L33.6183 33.46C36.0167 31.0217 37.5 27.6817 37.5 24ZM15 24C15 19.0367 19.0367 15 24 15C28.9633 15 33 19.0367 33 24C33 28.9633 28.9633 33 24 33C19.0367 33 15 28.9633 15 24ZM27.4467 7.5L28.2717 11.1967C26.9283 10.7467 25.4917 10.5 24 10.5C22.5083 10.5 21.0717 10.7467 19.7283 11.1967L20.5533 7.5H27.4467ZM20.5533 40.45L19.74 36.8067C21.08 37.2533 22.5117 37.5 24 37.5C25.4883 37.5 26.92 37.255 28.26 36.8067L27.4467 40.45H20.5533Z" fill="#200000"/>
</g>
</g>
<defs>
<clipPath id="clip0_4_6142">
<rect width="48" height="48" fill="white"/>
</clipPath>
</defs>
</svg>
