<svg width="48" height="48" viewBox="0 0 48 48" fill="none" xmlns="http://www.w3.org/2000/svg">
<mask id="mask0_4_5937" style="mask-type:alpha" maskUnits="userSpaceOnUse" x="0" y="0" width="48" height="48">
<rect width="48" height="48" fill="#D9D9D9"/>
</mask>
<g mask="url(#mask0_4_5937)">
<path d="M12.0167 10.8833C12.0167 10.6683 12.1851 10.5 12.4001 10.5H35.6167C35.8317 10.5 36.0001 10.6683 36.0001 10.8833V18.75H40.5001V10.8833C40.5001 8.19 38.3101 6 35.6167 6H12.4001C9.70672 6 7.51672 8.19 7.51672 10.8833V18.75H12.0167V10.8833Z" fill="#200000"/>
<path d="M36.0001 37.0667C36.0001 37.2817 35.8317 37.45 35.6167 37.45H12.4001C12.1851 37.45 12.0167 37.2817 12.0167 37.0667V29.25H7.51672V37.0667C7.51672 39.76 9.70672 41.95 12.4001 41.95H35.6167C38.3101 41.95 40.5001 39.76 40.5001 37.0667V29.25H36.0001V37.0667Z" fill="#200000"/>
<path d="M4.5 21.75L3 26.25H43.5L45 21.75H4.5Z" fill="#200000"/>
</g>
</svg>
