<svg width="48" height="48" viewBox="0 0 48 48" fill="none" xmlns="http://www.w3.org/2000/svg">
<g clip-path="url(#clip0_4_6059)">
<mask id="mask0_4_6059" style="mask-type:luminance" maskUnits="userSpaceOnUse" x="0" y="0" width="48" height="48">
<path d="M48 0H0V48H48V0Z" fill="white"/>
</mask>
<g mask="url(#mask0_4_6059)">
<path d="M35.25 24C35.25 17.7967 30.2033 12.75 24 12.75C17.7967 12.75 12.75 17.7967 12.75 24C12.75 30.2033 17.7967 35.25 24 35.25C30.2033 35.25 35.25 30.2033 35.25 24ZM24 30.75C20.2783 30.75 17.25 27.7217 17.25 24C17.25 20.2783 20.2783 17.25 24 17.25C27.7217 17.25 30.75 20.2783 30.75 24C30.75 27.7217 27.7217 30.75 24 30.75Z" fill="#200000"/>
<path d="M7.5 7.91667C7.5 7.68333 7.68333 7.5 7.91667 7.5H18L19.5 3H7.91667C5.2 3 3 5.2 3 7.91667V19.5H7.5V7.91667Z" fill="#200000"/>
<path d="M7.5 40.0833V27H3V40.0833C3 42.8 5.2 45 7.91667 45H18L19.5 40.5H7.91667C7.68333 40.5 7.5 40.3167 7.5 40.0833Z" fill="#200000"/>
<path d="M40.5 40.0833C40.5 40.3167 40.3167 40.5 40.0833 40.5H30L28.5 45H40.0833C42.8 45 45 42.8 45 40.0833V27H40.5V40.0833Z" fill="#200000"/>
<path d="M40.0833 3H30L28.5 7.5H40.0833C40.3167 7.5 40.5 7.68333 40.5 7.91667V19.5H45V7.91667C45 5.2 42.8 3 40.0833 3Z" fill="#200000"/>
</g>
</g>
<defs>
<clipPath id="clip0_4_6059">
<rect width="48" height="48" fill="white"/>
</clipPath>
</defs>
</svg>
