<svg width="48" height="48" viewBox="0 0 48 48" fill="none" xmlns="http://www.w3.org/2000/svg">
<g clip-path="url(#clip0_4_6102)">
<mask id="mask0_4_6102" style="mask-type:luminance" maskUnits="userSpaceOnUse" x="0" y="0" width="48" height="48">
<path d="M48 0H0V48H48V0Z" fill="white"/>
</mask>
<g mask="url(#mask0_4_6102)">
<path d="M18.75 40.5H10.9334C8.23338 40.5 6.05005 38.3 6.05005 35.6167V12.3833C6.05005 9.68333 8.25005 7.5 10.9334 7.5H18.75V12H10.9334C10.7167 12 10.55 12.1833 10.55 12.3833V35.6C10.55 35.8167 10.7334 35.9833 10.9334 35.9833H18.75V40.5Z" fill="#200000"/>
<path d="M29.2251 40.5H37.1168C39.8168 40.5 42.0001 38.3 42.0001 35.6167V12.3833C42.0001 9.68333 39.8001 7.5 37.1168 7.5H29.2501V12H37.1168C37.3334 12 37.5001 12.1833 37.5001 12.3833V35.6C37.5001 35.8167 37.3168 35.9833 37.1168 35.9833H29.2751L29.2251 40.5Z" fill="#200000"/>
<path d="M21.75 4.5V45L26.25 43.5V3L21.75 4.5Z" fill="#200000"/>
</g>
</g>
<defs>
<clipPath id="clip0_4_6102">
<rect width="48" height="48" fill="white"/>
</clipPath>
</defs>
</svg>
