<svg width="48" height="48" viewBox="0 0 48 48" fill="none" xmlns="http://www.w3.org/2000/svg">
<g clip-path="url(#clip0_4_6020)">
<mask id="mask0_4_6020" style="mask-type:luminance" maskUnits="userSpaceOnUse" x="0" y="0" width="48" height="48">
<path d="M48 0H0V48H48V0Z" fill="white"/>
</mask>
<g mask="url(#mask0_4_6020)">
<path d="M7.49996 34.0901V13.9101C7.49996 13.7667 7.56662 13.6717 7.62162 13.6151C7.67662 13.5601 7.77329 13.4934 7.91662 13.4934L40.0833 13.5201C40.3133 13.5201 40.5 13.7067 40.5 13.9367V22.5001L45 20.5001V13.9367C45 11.2284 42.7966 9.02174 40.0866 9.02007L7.91996 8.99341H7.91496C6.60329 8.99341 5.36829 9.50341 4.43996 10.4317C3.50996 11.3601 2.99829 12.5951 2.99829 13.9101V34.0901C2.99829 36.8017 5.20329 39.0067 7.91496 39.0067H13.995L15.995 34.5067H7.91662C7.68662 34.5067 7.49996 34.3201 7.49996 34.0901Z" fill="#200000"/>
<path d="M20 44L25 29L28 41L33 26.5L35 39L40 29L42 34.5L46 30.5" stroke="#200000" stroke-width="2.2" stroke-linejoin="round"/>
</g>
</g>
<defs>
<clipPath id="clip0_4_6020">
<rect width="48" height="48" fill="white"/>
</clipPath>
</defs>
</svg>
