<svg width="48" height="48" viewBox="0 0 48 48" fill="none" xmlns="http://www.w3.org/2000/svg">
<g clip-path="url(#clip0_4_6053)">
<mask id="mask0_4_6053" style="mask-type:luminance" maskUnits="userSpaceOnUse" x="0" y="0" width="48" height="48">
<path d="M48 0H0V48H48V0Z" fill="white"/>
</mask>
<g mask="url(#mask0_4_6053)">
<path d="M40.1133 6.0166H7.89499C5.20166 6.0166 3.01166 8.2066 3.01166 10.8999V32.6166C3.01166 35.3099 5.20166 37.4999 7.89499 37.4999H40.1117C42.805 37.4999 44.995 35.3099 44.995 32.6166V10.8999C44.995 8.2066 42.805 6.0166 40.1117 6.0166H40.1133ZM40.4967 32.6166C40.4967 32.8316 40.3283 32.9999 40.1133 32.9999H7.89499C7.67999 32.9999 7.51166 32.8316 7.51166 32.6166V10.8999C7.51166 10.6849 7.67999 10.5166 7.89499 10.5166H40.1117C40.3267 10.5166 40.495 10.6849 40.495 10.8999V32.6166H40.4967Z" fill="#200000"/>
<path d="M13.505 45H33.005L34.505 40.5H15.005L13.505 45Z" fill="#200000"/>
</g>
</g>
<defs>
<clipPath id="clip0_4_6053">
<rect width="48" height="48" fill="white"/>
</clipPath>
</defs>
</svg>
