<svg width="48" height="48" viewBox="0 0 48 48" fill="none" xmlns="http://www.w3.org/2000/svg">
<g clip-path="url(#clip0_4_6054)">
<mask id="mask0_4_6054" style="mask-type:luminance" maskUnits="userSpaceOnUse" x="0" y="0" width="48" height="48">
<path d="M48 0H0V48H48V0Z" fill="white"/>
</mask>
<g mask="url(#mask0_4_6054)">
<path d="M40.1167 6.0166H7.9C5.20666 6.0166 3.01666 8.2066 3.01666 10.8999V32.6166C3.01666 35.3099 5.20666 37.4999 7.9 37.4999H21.75V40.4999H15L13.5 44.9999H33L34.5 40.4999H26.25V37.4999H40.1167C42.81 37.4999 45 35.3099 45 32.6166V10.8999C45 8.2066 42.81 6.0166 40.1167 6.0166ZM40.5 32.6166C40.5 32.8316 40.3317 32.9999 40.1167 32.9999H7.9C7.685 32.9999 7.51666 32.8316 7.51666 32.6166V10.8999C7.51666 10.6849 7.685 10.5166 7.9 10.5166H40.1167C40.3317 10.5166 40.5 10.6849 40.5 10.8999V32.6166Z" fill="#200000"/>
</g>
</g>
<defs>
<clipPath id="clip0_4_6054">
<rect width="48" height="48" fill="white"/>
</clipPath>
</defs>
</svg>
