<svg width="48" height="48" viewBox="0 0 48 48" fill="none" xmlns="http://www.w3.org/2000/svg">
<path d="M32.5 22.0167H26.5V17.3667L22 16V22.0167H16V26.5167H22V30.9L26.5 32.5333V26.5167H32.5V22.0167Z" fill="#200000"/>
<path d="M37.8896 3.45703C39.2996 3.25537 40.728 3.67516 41.8047 4.6084C42.8813 5.54171 43.5 6.89661 43.5 8.32324V25.8086C43.4999 30.6518 41.078 35.1781 37.1797 37.623L26.6113 44.248C25.818 44.7463 24.9083 44.9951 24 44.9951C23.09 44.9951 22.182 44.7447 21.3887 44.248L10.8203 37.623C6.92204 35.1798 4.50008 30.6535 4.5 25.8086V12.4902C4.5 10.0602 6.31501 7.96805 8.72168 7.62305L37.8896 3.45703ZM38.5254 7.91016L9.3584 12.0771C9.15173 12.1072 9 12.2802 9 12.4902V25.8086C9.00008 29.1167 10.6135 32.1829 13.21 33.8096L23.7783 40.4346C23.915 40.5196 24.085 40.5196 24.2217 40.4346L34.79 33.8096C37.3865 32.1812 38.9999 29.1151 39 25.8086V8.32129C38.9999 8.16484 38.9214 8.06346 38.8564 8.00684C38.7998 7.95851 38.7095 7.90527 38.5879 7.90527C38.5681 7.9053 38.5468 7.90688 38.5254 7.91016Z" fill="#200000"/>
</svg>
