<svg width="48" height="48" viewBox="0 0 48 48" fill="none" xmlns="http://www.w3.org/2000/svg">
<g clip-path="url(#clip0_4_6086)">
<mask id="mask0_4_6086" style="mask-type:luminance" maskUnits="userSpaceOnUse" x="0" y="0" width="48" height="48">
<path d="M48 0H0V48H48V0Z" fill="white"/>
</mask>
<g mask="url(#mask0_4_6086)">
<path d="M25.5 44.25C25.46 44.25 25.4183 44.25 25.3783 44.2466C24.43 44.195 23.6167 43.555 23.345 42.6466L19.5 30H24.2483L25.8583 35.365L35.5217 12.4766L12.6333 22.1399L17.9983 23.75V28.4983L5.35165 24.6533C4.44332 24.3799 3.80332 23.5666 3.75165 22.6199C3.69998 21.6733 4.24832 20.795 5.12332 20.4249L38.875 6.17662C39.7183 5.81995 40.6933 6.01162 41.3417 6.65828C41.99 7.30495 42.18 8.28162 41.8233 9.12495L27.5733 42.875C27.22 43.7116 26.4016 44.25 25.5016 44.25H25.5Z" fill="#200000"/>
</g>
</g>
<defs>
<clipPath id="clip0_4_6086">
<rect width="48" height="48" fill="white"/>
</clipPath>
</defs>
</svg>
