<svg width="48" height="48" viewBox="0 0 48 48" fill="none" xmlns="http://www.w3.org/2000/svg">
<path fill-rule="evenodd" clip-rule="evenodd" d="M23.1803 5.02263C23.7145 4.80055 24.3157 4.80073 24.8498 5.02313L42.1687 12.2346C42.9754 12.5705 43.5004 13.3567 43.5 14.2279C43.4996 15.0992 42.9737 15.8848 42.1667 16.2199L24.8333 23.417C24.3 23.6385 23.7 23.6385 23.1667 23.417L5.83333 16.2199C5.02608 15.8847 4.50018 15.0988 4.5 14.2273C4.49982 13.3558 5.02539 12.5697 5.83251 12.2341L23.1803 5.02263ZM12.2972 14.2257L24 19.0849L35.7068 14.224L24.0137 9.3551L12.2972 14.2257Z" fill="#200000"/>
<path d="M6.6519 31.4543L5.83251 31.795C5.0254 32.1305 4.49982 32.9166 4.5 33.7881C4.50018 34.6596 5.02608 35.4455 5.83334 35.7807L23.1667 42.9778C23.7 43.1993 24.3 43.1993 24.8333 42.9778L42.1667 35.7807C42.9737 35.4456 43.4996 34.66 43.5 33.7887C43.5004 32.9175 42.9754 32.1314 42.1687 31.7955L41.3488 31.4541L24.8333 38.3116C24.7658 38.3396 24.6972 38.3641 24.6278 38.385L24 38.6457L23.3722 38.385C23.3028 38.3641 23.2342 38.3396 23.1667 38.3116L6.6519 31.4543Z" fill="#200000"/>
<path d="M6.66656 21.4482L5.83251 21.795C5.0254 22.1305 4.49982 22.9166 4.5 23.7881C4.50018 24.6596 5.02608 25.4455 5.83333 25.7807L23.1667 32.9778C23.7 33.1993 24.3 33.1993 24.8333 32.9778L42.1667 25.7807C42.9737 25.4456 43.4996 24.66 43.5 23.7888C43.5004 22.9175 42.9754 22.1314 42.1687 21.7955L41.3341 21.448L24 28.6457L6.66656 21.4482Z" fill="#200000"/>
</svg>
