<svg width="48" height="48" viewBox="0 0 48 48" fill="none" xmlns="http://www.w3.org/2000/svg">
<g clip-path="url(#clip0_4_6048)">
<mask id="mask0_4_6048" style="mask-type:luminance" maskUnits="userSpaceOnUse" x="0" y="0" width="48" height="48">
<path d="M48 0H0V48H48V0Z" fill="white"/>
</mask>
<g mask="url(#mask0_4_6048)">
<path d="M24 13.5C18.21 13.5 13.5 18.21 13.5 24C13.5 29.79 18.21 34.5 24 34.5C29.79 34.5 34.5 29.79 34.5 24C34.5 18.21 29.79 13.5 24 13.5ZM24 30C20.6917 30 18 27.3083 18 24C18 20.6917 20.6917 18 24 18C27.3083 18 30 20.6917 30 24C30 27.3083 27.3083 30 24 30Z" fill="#200000"/>
<path d="M42.5833 23.6816L44.445 19.1116L44.0567 18.2366C43.6633 17.3482 43.3567 16.6699 43.0517 15.9932C42.7483 15.3216 42.4467 14.6499 42.0567 13.7716L41.6633 12.8866L37.2783 11.3332C36.99 11.2266 36.7833 11.0249 36.6933 10.7666L35.0667 6.17657L34.19 5.78157C33.3567 5.40657 32.72 5.11991 32.0833 4.83157C31.445 4.54324 30.8067 4.25657 29.9733 3.88157L29.095 3.48657L24.3517 5.41657L24.34 5.42157C24.1233 5.51157 23.875 5.51157 23.6483 5.41657L19.0783 3.55491L18.2033 3.94324C17.3167 4.33657 16.6383 4.64157 15.9617 4.94657C15.29 5.24991 14.6167 5.55324 13.7383 5.94324L12.8533 6.33657L11.3 10.7216C11.1933 11.0099 10.9917 11.2166 10.7317 11.3066L6.14166 12.9332L5.74666 13.8099C5.37166 14.6432 5.08499 15.2799 4.79666 15.9166C4.50833 16.5549 4.22166 17.1932 3.84666 18.0266L3.45166 18.9032L5.38499 23.6749C5.47499 23.8916 5.47499 24.1399 5.37999 24.3716L3.45166 29.1299L3.84666 30.0066C4.22166 30.8399 4.50999 31.4782 4.79666 32.1166C5.08333 32.7532 5.37166 33.3899 5.74666 34.2232L6.14166 35.0999L10.7033 36.7166C10.9917 36.8232 11.2 37.0249 11.2883 37.2849L12.915 41.8749L13.7917 42.2699C14.625 42.6449 15.2617 42.9316 15.8983 43.2199C16.5367 43.5082 17.175 43.7949 18.0083 44.1699L18.8867 44.5649L23.64 42.6299C23.8567 42.5399 24.105 42.5399 24.3317 42.6349L28.9017 44.4966L29.7767 44.1082C30.6633 43.7149 31.3417 43.4099 32.0183 43.1049C32.69 42.8016 33.3633 42.4999 34.2417 42.1082L35.1267 41.7149L36.68 37.3299C36.7867 37.0416 36.9883 36.8332 37.2483 36.7449L41.6617 35.1832L42.055 34.2982C42.445 33.4199 42.7467 32.7482 43.05 32.0766C43.355 31.3982 43.6617 30.7182 44.055 29.8316L44.4433 28.9566L42.5783 24.3766C42.4883 24.1599 42.4883 23.9116 42.5833 23.6849V23.6816ZM38.415 26.0816L39.5533 28.8766C39.3367 29.3632 39.1417 29.7932 38.9467 30.2249C38.7517 30.6599 38.555 31.0949 38.335 31.5849L35.7683 32.4932C34.2267 33.0299 33.0183 34.2332 32.45 35.7966L31.5333 38.3866C31.0417 38.6066 30.6067 38.8032 30.17 38.9982C29.74 39.1916 29.31 39.3866 28.825 39.6032L26.04 38.4699C24.7317 37.9299 23.23 37.9299 21.9333 38.4649L18.9767 39.6682C18.5367 39.4699 18.1433 39.2916 17.7483 39.1149C17.3533 38.9366 16.9567 38.7582 16.515 38.5582L15.5383 35.8049C15.0033 34.2632 13.7983 33.0532 12.2333 32.4849L9.45499 31.4999C9.25499 31.0582 9.07666 30.6616 8.89833 30.2666C8.71999 29.8716 8.54166 29.4782 8.34333 29.0366L9.54333 26.0749C10.0833 24.7666 10.0833 23.2666 9.54833 21.9716L8.34333 18.9966C8.54166 18.5549 8.71999 18.1616 8.89833 17.7666C9.07666 17.3716 9.25499 16.9749 9.45499 16.5332L12.2083 15.5566C13.75 15.0216 14.96 13.8166 15.5283 12.2516L16.445 9.66157C16.9367 9.44157 17.3717 9.2449 17.8083 9.0499C18.2383 8.85657 18.6683 8.66157 19.1533 8.4449L21.9383 9.57824C23.245 10.1182 24.7433 10.1182 26.05 9.58157L29.0033 8.37991C29.4433 8.57824 29.8367 8.75657 30.2317 8.93324C30.6267 9.11157 31.0233 9.2899 31.465 9.4899L32.4417 12.2432C32.9767 13.7849 34.1817 14.9949 35.7467 15.5632L38.3367 16.4799C38.5567 16.9699 38.7517 17.4049 38.9483 17.8416C39.1433 18.2716 39.3367 18.7032 39.5533 19.1882L38.42 21.9732C37.88 23.2816 37.88 24.7832 38.415 26.0816Z" fill="#200000"/>
</g>
</g>
<defs>
<clipPath id="clip0_4_6048">
<rect width="48" height="48" fill="white"/>
</clipPath>
</defs>
</svg>
