<svg width="48" height="48" viewBox="0 0 48 48" fill="none" xmlns="http://www.w3.org/2000/svg">
<g clip-path="url(#clip0_4_6121)">
<mask id="mask0_4_6121" style="mask-type:luminance" maskUnits="userSpaceOnUse" x="0" y="0" width="48" height="48">
<path d="M48 0H0V48H48V0Z" fill="white"/>
</mask>
<g mask="url(#mask0_4_6121)">
<path d="M13.1017 10.4999L13 9.6166C12.7167 7.13327 10.6167 5.2666 8.11667 5.2666H3L4.5 9.7666H8.11667C8.33333 9.7666 8.51667 9.9166 8.53333 10.1333L11 31.6499C11.2833 34.1333 13.3833 35.9999 15.8833 35.9999H32.5833C32.8167 35.9999 33 36.1833 33 36.4166V37.4999H37.5V36.4166C37.5 33.6999 35.3 31.4999 32.5833 31.4999H15.8833C15.6667 31.4999 15.4833 31.3499 15.4667 31.1333L15.165 28.4999H37.9C40.31 28.4999 42.35 26.7716 42.7533 24.3883L45.075 10.4999H13.1017ZM38.315 23.6416C38.2817 23.8416 38.0983 23.9999 37.9 23.9999H14.6483L13.6167 14.9999H39.7583L38.3133 23.6416H38.315Z" fill="#200000"/>
<path d="M16.5 43.5C18.1569 43.5 19.5 42.1569 19.5 40.5C19.5 38.8431 18.1569 37.5 16.5 37.5C14.8431 37.5 13.5 38.8431 13.5 40.5C13.5 42.1569 14.8431 43.5 16.5 43.5Z" fill="#200000"/>
<path d="M30 43.5C31.6569 43.5 33 42.1569 33 40.5C33 38.8431 31.6569 37.5 30 37.5C28.3431 37.5 27 38.8431 27 40.5C27 42.1569 28.3431 43.5 30 43.5Z" fill="#200000"/>
</g>
</g>
<defs>
<clipPath id="clip0_4_6121">
<rect width="48" height="48" fill="white"/>
</clipPath>
</defs>
</svg>
