<svg width="48" height="48" viewBox="0 0 48 48" fill="none" xmlns="http://www.w3.org/2000/svg">
<g clip-path="url(#clip0_4_6074)">
<mask id="mask0_4_6074" style="mask-type:luminance" maskUnits="userSpaceOnUse" x="0" y="0" width="48" height="48">
<path d="M48 0H0V48H48V0Z" fill="white"/>
</mask>
<g mask="url(#mask0_4_6074)">
<path d="M39.0667 4.445C38.1383 3.51333 36.9017 3 35.5833 3H21.5333C20.0183 3 18.615 3.67667 17.6933 4.84333L10.0833 14.3517C9.385 15.21 9 16.3033 9 17.4333V40.0833C9 42.795 11.205 45 13.9167 45H35.5833C38.295 45 40.5 42.795 40.5 40.0833V7.91667C40.5 6.60667 39.9917 5.37333 39.0667 4.445ZM36 40.0833C36 40.3083 35.81 40.5 35.5833 40.5H13.9167C13.69 40.5 13.5 40.3083 13.5 40.0833V17.4333C13.5 17.3217 13.5383 17.235 13.5717 17.195L21.215 7.645C21.2867 7.55333 21.4033 7.50167 21.5317 7.50167H35.5817C35.7267 7.50167 35.8217 7.56667 35.8767 7.62333C35.9317 7.67833 35.9983 7.775 35.9983 7.91833V40.085L36 40.0833Z" fill="#200000"/>
<path d="M22.5 36.05L27 34.5167V21L22.5 22.5333V36.05Z" fill="#200000"/>
<path d="M22.5 19.5333L27 18V13.5L22.5 15.0333V19.5333Z" fill="#200000"/>
</g>
</g>
<defs>
<clipPath id="clip0_4_6074">
<rect width="48" height="48" fill="white"/>
</clipPath>
</defs>
</svg>
