<svg width="48" height="48" viewBox="0 0 48 48" fill="none" xmlns="http://www.w3.org/2000/svg">
<g clip-path="url(#clip0_4_6071)">
<mask id="mask0_4_6071" style="mask-type:luminance" maskUnits="userSpaceOnUse" x="0" y="0" width="48" height="48">
<path d="M48 0H0V48H48V0Z" fill="white"/>
</mask>
<g mask="url(#mask0_4_6071)">
<path d="M40.1 10.5H30.9417L32.9667 4.5H28.2167L18.0833 34.5H7.91667C7.68333 34.5 7.5 34.3167 7.5 34.0833V15.4167C7.5 15.1833 7.68333 15 7.91667 15H21.75L23.25 10.5H7.91667C5.2 10.5 3 12.7 3 15.4167V34.0833C3 36.8 5.2 39 7.91667 39H16.565L15.05 43.4833L19.8 43.5L29.4217 15H40.1C40.3333 15 40.5167 15.1833 40.5167 15.4167V27.2667C40.5167 27.3833 40.4667 27.5 40.3667 27.5833L32.3 34.4C32.2333 34.4667 32.1333 34.5 32.0333 34.5H26.25L24.75 39H32.0333C33.1833 39 34.3167 38.6 35.2167 37.8333L43.2833 31.0167C44.3833 30.0833 45.0167 28.7167 45.0167 27.2667V15.4167C45.0167 12.7 42.8167 10.5 40.1 10.5Z" fill="#200000"/>
</g>
</g>
<defs>
<clipPath id="clip0_4_6071">
<rect width="48" height="48" fill="white"/>
</clipPath>
</defs>
</svg>
