<svg width="48" height="48" viewBox="0 0 48 48" fill="none" xmlns="http://www.w3.org/2000/svg">
<g clip-path="url(#clip0_4_6149)">
<mask id="mask0_4_6149" style="mask-type:luminance" maskUnits="userSpaceOnUse" x="0" y="0" width="48" height="48">
<path d="M48 0H0V48H48V0Z" fill="white"/>
</mask>
<g mask="url(#mask0_4_6149)">
<path fill-rule="evenodd" clip-rule="evenodd" d="M36 9L31.5 4H16.2C14.985 4 14 4.98497 14 6.2V34.74C14 35.955 14.985 36.94 16.2 36.94H38.8C40.015 36.94 41 35.955 41 34.74V14.47L36 9ZM36.4 16.2944C36.4 16.2694 36.3907 16.2454 36.3738 16.2269L32.5927 12.0904L29.4811 8.6331C29.4622 8.61203 29.4351 8.6 29.4068 8.6H18.8C18.6895 8.6 18.6 8.68954 18.6 8.8V32.14C18.6 32.2505 18.6895 32.34 18.8 32.34H36.2C36.3105 32.34 36.4 32.2505 36.4 32.14V16.2944Z" fill="#200000"/>
<path d="M22 29.9048L22 21.2381L25.7143 20L25.7143 28.6667L22 29.9048Z" fill="#200000"/>
<path d="M25.5 40.0499C25.5 40.2832 25.3167 40.4665 25.0833 40.4665H10.95C10.7167 40.4665 10.5333 40.2832 10.5333 40.0499V16.9499C10.5333 16.7165 10.7167 16.5332 10.95 16.5332H12.0333V12.0332H10.95C8.23332 12.0332 6.03333 14.2332 6.03333 16.9499V40.0499C6.03333 42.7665 8.23332 44.9665 10.95 44.9665H25.0833C27.8 44.9665 30 42.7665 30 40.0499V38.9999H25.5V40.0499Z" fill="#200000"/>
</g>
</g>
<defs>
<clipPath id="clip0_4_6149">
<rect width="48" height="48" fill="white"/>
</clipPath>
</defs>
</svg>
