<svg width="48" height="48" viewBox="0 0 48 48" fill="none" xmlns="http://www.w3.org/2000/svg">
<g clip-path="url(#clip0_4_6073)">
<mask id="mask0_4_6073" style="mask-type:luminance" maskUnits="userSpaceOnUse" x="0" y="0" width="48" height="48">
<path d="M48 0H0V48H48V0Z" fill="white"/>
</mask>
<g mask="url(#mask0_4_6073)">
<path d="M35.5833 3H21.5333C20.0183 3 18.615 3.67667 17.6933 4.84333L10.085 14.35C9.385 15.2083 9 16.3017 9 17.4317V40.0817C9 42.7933 11.205 44.9983 13.9167 44.9983H35.5833C38.295 44.9983 40.5 42.7933 40.5 40.0817V7.91667C40.5 5.205 38.295 3 35.5833 3ZM36 40.0833C36 40.3083 35.81 40.5 35.5833 40.5H13.9167C13.69 40.5 13.5 40.3083 13.5 40.0833V17.4333C13.5 17.3217 13.5383 17.235 13.5717 17.195L21.215 7.645C21.2867 7.55333 21.4033 7.50167 21.5317 7.50167H35.5817C35.815 7.50167 35.9983 7.685 35.9983 7.91833V40.085L36 40.0833Z" fill="#200000"/>
<path d="M22.5 27.0167L27 28.55V15.0333L22.5 13.5V27.0167Z" fill="#200000"/>
<path d="M22.5 34.5166L27 36.0499V31.5499L22.5 30.0166V34.5166Z" fill="#200000"/>
</g>
</g>
<defs>
<clipPath id="clip0_4_6073">
<rect width="48" height="48" fill="white"/>
</clipPath>
</defs>
</svg>
