<svg width="48" height="48" viewBox="0 0 48 48" fill="none" xmlns="http://www.w3.org/2000/svg">
<g clip-path="url(#clip0_4_5990)">
<mask id="mask0_4_5990" style="mask-type:luminance" maskUnits="userSpaceOnUse" x="0" y="0" width="48" height="48">
<path d="M48 0H0V48H48V0Z" fill="white"/>
</mask>
<g mask="url(#mask0_4_5990)">
<path d="M26.2833 16.5H21.7833V21.75H16.5L15 26.25H21.7833V31.5H26.2833V26.25H31.5L33 21.75H26.2833V16.5Z" fill="#200000"/>
<path d="M40.0783 9H7.91166C5.2 9 2.995 11.205 2.995 13.9167V34.0833C2.995 36.795 5.2 39 7.91166 39H32.78C33.9267 39 35.045 38.595 35.9267 37.86L43.225 31.7783C44.35 30.8417 44.995 29.465 44.995 28.0017V13.9167C44.995 11.205 42.79 9 40.0783 9ZM40.495 28.0017C40.495 28.125 40.44 28.2417 40.345 28.3217L33.0467 34.4033C32.9717 34.465 32.8767 34.5 32.78 34.5H7.91166C7.68166 34.5 7.495 34.3133 7.495 34.0833V13.9167C7.495 13.6867 7.68166 13.5 7.91166 13.5H40.0783C40.3083 13.5 40.495 13.6867 40.495 13.9167V28.0017Z" fill="#200000"/>
</g>
</g>
<defs>
<clipPath id="clip0_4_5990">
<rect width="48" height="48" fill="white"/>
</clipPath>
</defs>
</svg>
