<svg width="48" height="48" viewBox="0 0 48 48" fill="none" xmlns="http://www.w3.org/2000/svg">
<g clip-path="url(#clip0_4_6154)">
<path d="M44.8492 43.679L40.6066 39.4364L44.8492 35.1938L41.679 32L37.4246 36.2544L33.182 32.0118L30 35.1938L34.2426 39.4364L30 43.679L33.1702 46.8728L37.4246 42.6184L41.6673 46.861L44.8492 43.679Z" fill="#200000"/>
<path d="M35.583 3C38.2947 3 40.5 5.20533 40.5 7.91699V30H35.998V7.91797C35.9979 7.68493 35.8151 7.50214 35.582 7.50195H21.5312C21.4032 7.50207 21.2864 7.5531 21.2148 7.64453L13.5713 17.1953C13.538 17.2355 13.5 17.3223 13.5 17.4336V40.083C13.5 40.308 13.6903 40.5 13.917 40.5H28V44.998H13.917C11.2054 44.998 9.0002 42.7935 9 40.082V17.4316C9.00001 16.3017 9.38497 15.2079 10.085 14.3496L17.6934 4.84375C18.615 3.67712 20.0183 3.00004 21.5332 3H35.583Z" fill="#200000"/>
</g>
<defs>
<clipPath id="clip0_4_6154">
<rect width="48" height="48" fill="white"/>
</clipPath>
</defs>
</svg>
