<svg width="48" height="48" viewBox="0 0 48 48" fill="none" xmlns="http://www.w3.org/2000/svg">
<g clip-path="url(#clip0_4_5988)">
<mask id="mask0_4_5988" style="mask-type:luminance" maskUnits="userSpaceOnUse" x="0" y="0" width="48" height="48">
<path d="M48 0H0V48H48V0Z" fill="white"/>
</mask>
<g mask="url(#mask0_4_5988)">
<path d="M40.15 9.75H7.98332C5.27165 9.75 3.06665 11.955 3.06665 14.6667V33.3333C3.06665 36.045 5.27165 38.25 7.98332 38.25H32.8517C33.9983 38.25 35.1167 37.845 35.9983 37.11L43.2967 31.0283C44.4217 30.0917 45.0667 28.715 45.0667 27.2517V14.6667C45.0667 11.955 42.8617 9.75 40.15 9.75ZM40.5667 27.2517C40.5667 27.375 40.5117 27.4917 40.4167 27.5717L33.1183 33.6533C33.0433 33.7167 32.9483 33.75 32.8517 33.75H7.98332C7.75332 33.75 7.56665 33.5633 7.56665 33.3333V14.6667C7.56665 14.4367 7.75332 14.25 7.98332 14.25H24.8167H40.15C40.38 14.25 40.5667 14.4367 40.5667 14.6667V27.2517Z" fill="#200000"/>
<path d="M10.5667 30.75H21.0667L22.5666 26.25H12.0667L10.5667 30.75Z" fill="#200000"/>
</g>
</g>
<defs>
<clipPath id="clip0_4_5988">
<rect width="48" height="48" fill="white"/>
</clipPath>
</defs>
</svg>
