<svg width="48" height="48" viewBox="0 0 48 48" fill="none" xmlns="http://www.w3.org/2000/svg">
<mask id="mask0_4_6019" style="mask-type:alpha" maskUnits="userSpaceOnUse" x="0" y="0" width="48" height="48">
<rect width="48" height="48" fill="#D9D9D9"/>
</mask>
<g mask="url(#mask0_4_6019)">
<path d="M6.4 35.6667C5.19 35.6667 4.15417 35.2097 3.2925 34.2958C2.43083 33.3819 2 32.2833 2 31V14.6667C2 13.3833 2.43083 12.2847 3.2925 11.3708C4.15417 10.4569 5.19 10 6.4 10H41.6C42.81 10 43.8458 10.4569 44.7075 11.3708C45.5692 12.2847 46 13.3833 46 14.6667V33.3333C46 34.6167 45.5692 35.7153 44.7075 36.6292C43.8458 37.5431 42.81 38 41.6 38L6.4 35.6667ZM6.4 31L41.6 33.3333V14.6667H35V26.3333L30.6 24V14.6667H26.2V26.3333L21.8 24V14.6667H17.4V26.3333L13 24V14.6667H6.4V31Z" fill="#200000"/>
</g>
</svg>
