<svg width="48" height="48" viewBox="0 0 48 48" fill="none" xmlns="http://www.w3.org/2000/svg">
<g clip-path="url(#clip0_4_6010)">
<mask id="mask0_4_6010" style="mask-type:luminance" maskUnits="userSpaceOnUse" x="0" y="0" width="48" height="48">
<path d="M48 0H0V48H48V0Z" fill="white"/>
</mask>
<g mask="url(#mask0_4_6010)">
<path d="M42 22.8967V12.4101C42 9.69841 39.795 7.49341 37.0833 7.49341H7.91667C5.205 7.49341 3 9.69841 3 12.4101V30.9251C3 33.6367 5.205 35.8417 7.91667 35.8417H24V38.5917C24 41.3034 26.205 43.5084 28.9167 43.5084H40.0833C42.795 43.5084 45 41.3034 45 38.5917V27.4251C45 25.3934 43.7617 23.6467 42 22.8967ZM35.0533 11.9934L22.5 18.8467L9.94667 11.9934H35.055H35.0533ZM7.91667 31.3401C7.68667 31.3401 7.5 31.1534 7.5 30.9234V15.7834L22.5 23.9717L37.5 15.7834V22.5067H28.9167C26.205 22.5067 24 24.7117 24 27.4234V31.3401H7.91667ZM40.5 38.5901C40.5 38.8201 40.3133 39.0067 40.0833 39.0067H28.9167C28.6867 39.0067 28.5 38.8201 28.5 38.5901V27.4234C28.5 27.1934 28.6867 27.0067 28.9167 27.0067H32.25V30.0067H36.75V27.0067H40.0833C40.3133 27.0067 40.5 27.1934 40.5 27.4234V38.5901Z" fill="#200000"/>
</g>
</g>
<defs>
<clipPath id="clip0_4_6010">
<rect width="48" height="48" fill="white"/>
</clipPath>
</defs>
</svg>
