<svg width="48" height="48" viewBox="0 0 48 48" fill="none" xmlns="http://www.w3.org/2000/svg">
<g clip-path="url(#clip0_4_5992)">
<mask id="mask0_4_5992" style="mask-type:luminance" maskUnits="userSpaceOnUse" x="0" y="0" width="48" height="48">
<path d="M48 0H0V48H48V0Z" fill="white"/>
</mask>
<g mask="url(#mask0_4_5992)">
<path d="M24 3C12.42 3 3 12.42 3 24C3 35.58 12.42 45 24 45C35.58 45 45 35.58 45 24C45 12.42 35.58 3 24 3ZM39.8983 19.5817L31.0583 20.7767C31.685 17.5983 33.235 14.6767 35.5767 12.335C35.59 12.3217 35.6033 12.31 35.6167 12.2967C37.6217 14.2867 39.1183 16.7867 39.8967 19.5833L39.8983 19.5817ZM31.9917 9.56833C28.8067 12.9333 26.9483 17.1 26.4167 21.4033L21.665 22.045C21.235 17.365 19.2683 13.0083 16.01 9.56833C18.3783 8.25167 21.1033 7.5 24.0017 7.5C26.9 7.5 29.6233 8.25167 31.9933 9.56833H31.9917ZM8.10167 28.42L12 27.8933L13.5 23.15L7.5 23.9617C7.51167 19.4067 9.37667 15.28 12.3817 12.2967C12.395 12.31 12.4083 12.3217 12.4217 12.335C15.5383 15.4517 17.2533 19.595 17.2533 24.0017C17.2533 28.4083 15.5367 32.5533 12.4217 35.6683C12.4083 35.6817 12.395 35.6933 12.3833 35.705C10.3783 33.715 8.88 31.215 8.10167 28.4183V28.42ZM16.01 38.4333C19.12 35.15 21.0533 31.0333 21.5967 26.5967L26.345 25.955C26.765 30.4833 28.645 34.9017 31.9883 38.4333C29.62 39.75 26.895 40.5017 23.9983 40.5017C21.1017 40.5017 18.3783 39.75 16.0083 38.4333H16.01ZM35.615 35.7067C35.6017 35.6933 35.5883 35.6817 35.5767 35.67C32.7817 32.875 31.1133 29.2517 30.8 25.3533L40.4983 24.0417C40.4867 28.5967 38.62 32.725 35.615 35.7067Z" fill="#200000"/>
</g>
</g>
<defs>
<clipPath id="clip0_4_5992">
<rect width="48" height="48" fill="white"/>
</clipPath>
</defs>
</svg>
