<svg width="48" height="48" viewBox="0 0 48 48" fill="none" xmlns="http://www.w3.org/2000/svg">
<path fill-rule="evenodd" clip-rule="evenodd" d="M24 4C25.4422 4 26.7728 4.77642 27.4824 6.03205L32.3531 14.6511L40.768 16.2973C42.2339 16.5841 43.418 17.6638 43.8383 19.0972C44.2587 20.5306 43.8454 22.0788 42.7665 23.1119L36.3663 29.2408L37.8469 39.4245C38.0617 40.9018 37.436 42.3757 36.2241 43.2473C35.0122 44.119 33.4158 44.2432 32.0836 43.5696L24 39.4823L15.9164 43.5696C14.5842 44.2432 12.9878 44.119 11.7759 43.2473C10.564 42.3757 9.93829 40.9018 10.1531 39.4245L11.6337 29.2408L5.23345 23.1119C4.1546 22.0788 3.74128 20.5306 4.16165 19.0972C4.58203 17.6638 5.76604 16.5841 7.232 16.2973L15.6469 14.6511L20.5176 6.03205C21.2272 4.77642 22.5577 4 24 4ZM18.2229 18.2229L7.99999 20.2229L15.8885 27.7771L14.1114 40L24 35L33.8885 40L32.1114 27.7771L40 20.2229L29.7771 18.2229L24 8L18.2229 18.2229Z" fill="#200000"/>
</svg>
