<svg width="48" height="48" viewBox="0 0 48 48" fill="none" xmlns="http://www.w3.org/2000/svg">
<g clip-path="url(#clip0_4_6060)">
<mask id="mask0_4_6060" style="mask-type:luminance" maskUnits="userSpaceOnUse" x="0" y="0" width="48" height="48">
<path d="M48 0H0V48H48V0Z" fill="white"/>
</mask>
<g mask="url(#mask0_4_6060)">
<path d="M38.9867 17.785V9.01503H30.2167L24.0017 2.81836L17.805 9.01503H9.03669V17.7834L2.81836 24.0017L9.03669 30.2V38.9667H17.8034L24.0017 45.185L30.22 38.9667H38.9884V30.1984L45.185 24.0017L38.9884 17.7867L38.9867 17.785ZM34.4867 28.3334V34.465H28.355L24.0067 38.8134L19.6717 34.465H13.5384V28.3317L9.19003 23.9967L13.5384 19.6484V13.5167H19.67L24.0067 9.18003L28.3584 13.5167H34.4884V19.6467L38.825 23.9984L34.4884 28.335L34.4867 28.3334Z" fill="#200000"/>
<path d="M24.7534 14.9966H22.5034V32.9966H24.7534C29.7168 32.9966 33.7534 28.9599 33.7534 23.9966C33.7534 19.0332 29.7168 14.9966 24.7534 14.9966Z" fill="#200000"/>
</g>
</g>
<defs>
<clipPath id="clip0_4_6060">
<rect width="48" height="48" fill="white"/>
</clipPath>
</defs>
</svg>
