<svg width="48" height="48" viewBox="0 0 48 48" fill="none" xmlns="http://www.w3.org/2000/svg">
<g clip-path="url(#clip0_4_5994)">
<mask id="mask0_4_5994" style="mask-type:luminance" maskUnits="userSpaceOnUse" x="0" y="0" width="48" height="48">
<path d="M48 0H0V48H48V0Z" fill="white"/>
</mask>
<g mask="url(#mask0_4_5994)">
<path d="M13.1067 10.5L12.9183 8.85667C12.6333 6.37333 10.5317 4.5 8.03333 4.5H3L4.5 9H8.03333C8.245 9 8.42333 9.16 8.44833 9.36833L10.91 30.89C11.1933 33.375 13.2933 35.2483 15.795 35.2483H32.5833C32.8133 35.2483 33 35.435 33 35.665V37.4983H37.5V35.665C37.5 32.9533 35.295 30.7483 32.5833 30.7483H15.795C15.5833 30.7483 15.405 30.59 15.38 30.38L15.3 29.675L38.8467 26.4933C41.005 26.2 42.69 24.5583 43.0383 22.41L44.975 10.4983H13.1067V10.5ZM38.5983 21.6883C38.5683 21.87 38.425 22.01 38.2433 22.035L14.79 25.2033L13.6233 14.9983H39.6867L38.6 21.6867L38.5983 21.6883Z" fill="#200000"/>
<path d="M16.4133 43.5C18.0702 43.5 19.4133 42.1569 19.4133 40.5C19.4133 38.8431 18.0702 37.5 16.4133 37.5C14.7565 37.5 13.4133 38.8431 13.4133 40.5C13.4133 42.1569 14.7565 43.5 16.4133 43.5Z" fill="#200000"/>
<path d="M29.9133 43.5C31.5702 43.5 32.9133 42.1569 32.9133 40.5C32.9133 38.8431 31.5702 37.5 29.9133 37.5C28.2565 37.5 26.9133 38.8431 26.9133 40.5C26.9133 42.1569 28.2565 43.5 29.9133 43.5Z" fill="#200000"/>
</g>
</g>
<defs>
<clipPath id="clip0_4_5994">
<rect width="48" height="48" fill="white"/>
</clipPath>
</defs>
</svg>
