<svg width="48" height="48" viewBox="0 0 48 48" fill="none" xmlns="http://www.w3.org/2000/svg">
<g clip-path="url(#clip0_4_6014)">
<mask id="mask0_4_6014" style="mask-type:luminance" maskUnits="userSpaceOnUse" x="0" y="0" width="48" height="48">
<path d="M48 0H0V48H48V0Z" fill="white"/>
</mask>
<g mask="url(#mask0_4_6014)">
<path d="M10 44.8468H20L18 40.0005H13.5V10.2668C13.5 10.0484 13.655 9.87843 13.8767 9.85343L34.035 7.65509C34.1933 7.63843 34.3 7.70176 34.3633 7.75843C34.4267 7.81343 34.5 7.91343 34.5 8.06676V27.0001L39 29.0001V8.06676C39 6.67509 38.4083 5.34343 37.375 4.41342C36.3417 3.48342 34.9533 3.03343 33.5567 3.18009L13.3883 5.38009C10.8867 5.65509 9 7.75509 9 10.2668V43.8468C9 44.399 9.44771 44.8468 10 44.8468Z" fill="#200000"/>
<path d="M35.7902 31.3669L28.4035 38.7553L23.7269 34.8953L20.8635 38.3669L28.6935 44.8286L38.9719 34.5503L35.7902 31.3669Z" fill="#200000"/>
</g>
</g>
<defs>
<clipPath id="clip0_4_6014">
<rect width="48" height="48" fill="white"/>
</clipPath>
</defs>
</svg>
