<svg width="48" height="48" viewBox="0 0 48 48" fill="none" xmlns="http://www.w3.org/2000/svg">
<g clip-path="url(#clip0_4_6062)">
<mask id="mask0_4_6062" style="mask-type:luminance" maskUnits="userSpaceOnUse" x="0" y="0" width="48" height="48">
<path d="M48 0H0V48H48V0Z" fill="white"/>
</mask>
<g mask="url(#mask0_4_6062)">
<path d="M24 35.25C17.7967 35.25 12.75 30.2033 12.75 24C12.75 17.7967 17.7967 12.75 24 12.75C30.2033 12.75 35.25 17.7967 35.25 24C35.25 30.2033 30.2033 35.25 24 35.25ZM24 17.25C20.2783 17.25 17.25 20.2783 17.25 24C17.25 27.7217 20.2783 30.75 24 30.75C27.7217 30.75 30.75 27.7217 30.75 24C30.75 20.2783 27.7217 17.25 24 17.25Z" fill="#200000"/>
<path d="M26.25 4.5V10.5L21.75 9V3L26.25 4.5Z" fill="#200000"/>
<path d="M26.25 39V45L21.75 43.5V37.5L26.25 39Z" fill="#200000"/>
<path d="M43.5 26.25H37.5L39 21.75H45L43.5 26.25Z" fill="#200000"/>
<path d="M9 26.25H3L4.5 21.75H10.5L9 26.25Z" fill="#200000"/>
<path d="M11.8017 8.62012L16.0451 12.8635L11.8017 14.9851L7.56006 10.7418L11.8017 8.62012Z" fill="#200000"/>
<path d="M36.1983 33.0149L40.44 37.2582L36.1983 39.3799L31.955 35.1366L36.1983 33.0149Z" fill="#200000"/>
<path d="M39.38 11.8017L35.1367 16.0451L33.015 11.8017L37.2583 7.56006L39.38 11.8017Z" fill="#200000"/>
<path d="M14.985 36.1984L10.7417 40.4401L8.62 36.1984L12.8633 31.9551L14.985 36.1984Z" fill="#200000"/>
</g>
</g>
<defs>
<clipPath id="clip0_4_6062">
<rect width="48" height="48" fill="white"/>
</clipPath>
</defs>
</svg>
