<svg width="48" height="48" viewBox="0 0 48 48" fill="none" xmlns="http://www.w3.org/2000/svg">
<g clip-path="url(#clip0_4_6006)">
<mask id="mask0_4_6006" style="mask-type:luminance" maskUnits="userSpaceOnUse" x="0" y="0" width="48" height="48">
<path d="M48 0H0V48H48V0Z" fill="white"/>
</mask>
<g mask="url(#mask0_4_6006)">
<path d="M29.5833 42H18.4167C15.705 42 13.5 39.795 13.5 37.0833V10.9167C13.5 8.205 15.705 6 18.4167 6H29.5833C32.295 6 34.5 8.205 34.5 10.9167V37.0833C34.5 39.795 32.295 42 29.5833 42ZM18.4167 10.5C18.1867 10.5 18 10.6867 18 10.9167V37.0833C18 37.3133 18.1867 37.5 18.4167 37.5H29.5833C29.8133 37.5 30 37.3133 30 37.0833V10.9167C30 10.6867 29.8133 10.5 29.5833 10.5H18.4167Z" fill="#200000"/>
<path d="M10.5 37.4767H7.91667C5.205 37.4767 3 35.2717 3 32.56V15.4167C3 12.705 5.205 10.5 7.91667 10.5H12L10.5 15H7.91667C7.68667 15 7.5 15.1867 7.5 15.4167V32.56C7.5 32.79 7.68667 32.9767 7.91667 32.9767H12L10.5 37.4767Z" fill="#200000"/>
<path d="M40.0833 37.4767H36L37.5 32.9767H40.0833C40.3133 32.9767 40.5 32.79 40.5 32.56V15.4167C40.5 15.1867 40.3133 15 40.0833 15H36L37.5 10.5H40.0833C42.795 10.5 45 12.705 45 15.4167V32.56C45 35.2717 42.795 37.4767 40.0833 37.4767Z" fill="#200000"/>
</g>
</g>
<defs>
<clipPath id="clip0_4_6006">
<rect width="48" height="48" fill="white"/>
</clipPath>
</defs>
</svg>
