<svg width="48" height="48" viewBox="0 0 48 48" fill="none" xmlns="http://www.w3.org/2000/svg">
<g clip-path="url(#clip0_4_6004)">
<mask id="mask0_4_6004" style="mask-type:luminance" maskUnits="userSpaceOnUse" x="0" y="0" width="48" height="48">
<path d="M48 0H0V48H48V0Z" fill="white"/>
</mask>
<g mask="url(#mask0_4_6004)">
<path d="M39.5883 19.5L36.7867 12.1633C36.0633 10.2717 34.2183 9.00167 32.1933 9.00167H27.5L28.5 6H21L20 9.00167H15.8083C13.7833 9.00167 11.9383 10.2717 11.215 12.1633L8.41166 19.5H4.495L2.995 24H6V31.0833C6 32.4683 6.57666 33.72 7.5 34.6133V40.5H12V36H36V40.5H40.5V34.6133C41.4233 33.7183 42 32.4667 42 31.0833V24H43.5L45 19.5H39.5883ZM15.4183 13.77C15.48 13.6067 15.6333 13.5017 15.8083 13.5017H32.1933C32.365 13.5017 32.5217 13.61 32.5833 13.77L34.7717 19.5H13.23L15.4183 13.77ZM37.5 31.0833C37.5 31.3133 37.3133 31.5 37.0833 31.5H10.9167C10.6867 31.5 10.5 31.3133 10.5 31.0833V24H37.5V31.0833Z" fill="#200000"/>
<path d="M36 25.5H30L28.5 30H34.5L36 25.5Z" fill="#200000"/>
<path d="M19.5 30L18 25.5H12L13.5 30H19.5Z" fill="#200000"/>
</g>
</g>
<defs>
<clipPath id="clip0_4_6004">
<rect width="48" height="48" fill="white"/>
</clipPath>
</defs>
</svg>
