<svg width="48" height="48" viewBox="0 0 48 48" fill="none" xmlns="http://www.w3.org/2000/svg">
<path fill-rule="evenodd" clip-rule="evenodd" d="M18.1724 5.18772C18.4934 4.46547 19.2096 4 20 4H31.8261C32.4837 4 33.0993 4.3233 33.4726 4.86472C33.8459 5.40614 33.9292 6.09648 33.6954 6.71115L29.5094 17.7143H36C36.8066 17.7143 37.5342 18.1988 37.8453 18.943C38.1563 19.6871 37.99 20.5453 37.4233 21.1193L15.4233 43.4051C14.7792 44.0575 13.7739 44.1885 12.9842 43.7228C12.1944 43.2571 11.8224 42.3141 12.0816 41.4347L16.6299 26H12C11.323 26 10.6919 25.6575 10.323 25.0898C9.95411 24.5222 9.89742 23.8064 10.1724 23.1877L18.1724 5.18772ZM21.2998 8L15.0775 22H19.3044C19.9348 22 20.5284 22.2973 20.906 22.8022C21.2836 23.3071 21.401 23.9606 21.2228 24.5653L18.1682 34.9308L31.2153 21.7143H26.6087C25.9511 21.7143 25.3354 21.391 24.9621 20.8496C24.5888 20.3081 24.5056 19.6178 24.7394 19.0031L28.9254 8H21.2998Z" fill="#200000"/>
</svg>
