<svg width="48" height="48" viewBox="0 0 48 48" fill="none" xmlns="http://www.w3.org/2000/svg">
<g clip-path="url(#clip0_4_6150)">
<path d="M9.50418 34.673C11.1518 31.3573 12.0066 27.7043 12.0012 24.0018C11.9995 22.2026 12.4031 20.4261 13.1821 18.8043C13.9612 17.1825 15.0956 15.757 16.5011 14.6338" stroke="#200000" stroke-width="1.71429" stroke-linecap="round" stroke-linejoin="round"/>
<path d="M24.0011 24.0015C24.0105 30.1006 22.4632 36.1012 19.5056 41.4353" stroke="#200000" stroke-width="1.71429" stroke-linecap="round" stroke-linejoin="round"/>
<path d="M18.0012 24.0015C18.0012 22.4102 18.6333 20.884 19.7585 19.7588C20.8838 18.6336 22.4099 18.0015 24.0012 18.0015C25.5925 18.0015 27.1186 18.6336 28.2438 19.7588C29.369 20.884 30.0012 22.4102 30.0012 24.0015C30.01 30.1859 28.6476 36.2954 26.0121 41.8902" stroke="#200000" stroke-width="1.71429" stroke-linecap="round" stroke-linejoin="round"/>
<path d="M40.9809 34.5015C41.6612 31.0429 42.0029 27.5263 42.0011 24.0015C42.0011 19.2276 40.1047 14.6492 36.729 11.2735C33.3534 7.89789 28.775 6.00146 24.0011 6.00146C19.2272 6.00146 14.6489 7.89789 11.2732 11.2735C7.89754 14.6492 6.00112 19.2276 6.00112 24.0015C6.00336 26.0452 5.65697 28.0743 4.97687 30.0015" stroke="#200000" stroke-width="1.71429" stroke-linecap="round" stroke-linejoin="round"/>
<path d="M17.4011 30.0015C16.7607 33.1555 15.6137 36.1851 14.0045 38.9724" stroke="#200000" stroke-width="1.71429" stroke-linecap="round" stroke-linejoin="round"/>
<path d="M22.5012 12.0943C24.1902 11.8831 25.9048 12.0333 27.5313 12.535C29.1578 13.0366 30.6591 13.8783 31.9357 15.0043C33.2122 16.1302 34.2349 17.5146 34.9358 19.0658C35.6367 20.6169 35.9998 22.2993 36.0012 24.0015C36.0017 26.0072 35.8776 28.011 35.6298 30.0014" stroke="#200000" stroke-width="1.71429" stroke-linecap="round" stroke-linejoin="round"/>
<path d="M34.489 36.0015C34.2034 37.1113 33.8796 38.205 33.5175 39.2827" stroke="#200000" stroke-width="1.71429" stroke-linecap="round" stroke-linejoin="round"/>
</g>
<defs>
<clipPath id="clip0_4_6150">
<rect width="48" height="48" fill="white"/>
</clipPath>
</defs>
</svg>
