<svg width="48" height="48" viewBox="0 0 48 48" fill="none" xmlns="http://www.w3.org/2000/svg">
<g clip-path="url(#clip0_4_5991)">
<mask id="mask0_4_5991" style="mask-type:luminance" maskUnits="userSpaceOnUse" x="0" y="0" width="48" height="48">
<path d="M48 0H0V48H48V0Z" fill="white"/>
</mask>
<g mask="url(#mask0_4_5991)">
<path d="M43.0467 10.9067L36.84 6.21834C35.6883 5.34834 34.2183 5.02834 32.81 5.34168L26.2933 6.79001C24.0267 7.29334 22.4433 9.26668 22.4433 11.59V21.7483H19.5V17.765C19.5 16.51 18.9017 15.3083 17.9 14.5517L13.765 11.4283C12.8217 10.715 11.6183 10.4533 10.465 10.7117L6.12501 11.6767C4.26835 12.09 2.97168 13.705 2.97168 15.6067V31.385C2.97168 33.3217 4.36001 34.94 6.27501 35.2333L15.0133 36.5767C15.2117 36.6067 15.41 36.6217 15.6067 36.6217C16.53 36.6217 17.43 36.2933 18.1417 35.6833C19.005 34.9433 19.5 33.8667 19.5 32.7283V26.2483H31.83L29.3933 28.685L32.575 31.8667L37.8783 26.5633C38.665 25.7767 39.0983 24.73 39.0983 23.6183C39.0983 22.5067 38.665 21.46 37.8783 20.6733L32.575 15.37L29.3933 18.5517L32.59 21.7483H26.9433V11.59C26.9433 11.3933 27.0767 11.2267 27.27 11.1833L33.7867 9.73501C33.9067 9.70834 34.03 9.73501 34.1283 9.81001L40.335 14.4983C40.4383 14.5767 40.5 14.7017 40.5 14.8317V37.295C40.5 37.32 40.5 37.3933 40.425 37.4583C40.3483 37.5233 40.2717 37.5133 40.2483 37.5083L27.13 35.4917C27.0233 35.475 26.945 35.385 26.945 35.275V29.25H22.445V35.275C22.445 37.6217 24.1283 39.5833 26.4467 39.9383L39.565 41.955C39.805 41.9917 40.045 42.01 40.285 42.01C41.405 42.01 42.495 41.6117 43.3567 40.8717C44.4017 39.975 45.0017 38.67 45.0017 37.2933V14.83C45.0017 13.2967 44.2717 11.83 43.0483 10.9067H43.0467ZM15 32.0217L7.47168 30.865V15.9867L11.2283 15.1517L15 18.0017V21.75H9.75001L11.25 26.25H15V32.0233V32.0217Z" fill="#200000"/>
</g>
</g>
<defs>
<clipPath id="clip0_4_5991">
<rect width="48" height="48" fill="white"/>
</clipPath>
</defs>
</svg>
