<svg width="48" height="48" viewBox="0 0 48 48" fill="none" xmlns="http://www.w3.org/2000/svg">
<g clip-path="url(#clip0_4_6132)">
<mask id="mask0_4_6132" style="mask-type:luminance" maskUnits="userSpaceOnUse" x="0" y="0" width="48" height="48">
<path d="M48 0H0V48H48V0Z" fill="white"/>
</mask>
<g mask="url(#mask0_4_6132)">
<path d="M30 23.1669L33.4 20.2002L27.3666 14.1669C25.4833 12.2836 22.4333 12.2836 20.55 14.1669L14.6 20.1169L18 23.0836L21.75 19.3336V43.5002L26.25 45.0002V19.4169L30 23.1669Z" fill="#200000"/>
<path d="M36.9 13.1333C36.25 10.6 34.8833 8.3 32.9167 6.51667C30.4333 4.25 27.2 3 23.8333 3C18.6333 3 13.9333 5.96667 11.7 10.55C6.81667 11.0833 3 15.2333 3 20.25C3 25.6333 7.36667 30 12.75 30H18L19.5 25.5H12.75C9.85 25.5 7.5 23.15 7.5 20.25C7.5 17.35 9.85 15 12.75 15H14.8167L15.35 13.5C16.6 9.9 20.0167 7.5 23.8333 7.5C28.4833 7.5 32.3167 10.9833 32.7833 15.6L32.9833 17.6333H36.5667C38.7333 17.6333 40.5 19.4 40.5 21.5667C40.5 23.7333 38.7333 25.5 36.5667 25.5H30L28.5 30H36.5667C41.2167 30 45 26.2167 45 21.5667C45 16.9167 41.4 13.3167 36.9 13.1333Z" fill="#200000"/>
</g>
</g>
<defs>
<clipPath id="clip0_4_6132">
<rect width="48" height="48" fill="white"/>
</clipPath>
</defs>
</svg>
