<svg width="48" height="48" viewBox="0 0 48 48" fill="none" xmlns="http://www.w3.org/2000/svg">
<g clip-path="url(#clip0_4_6045)">
<mask id="mask0_4_6045" style="mask-type:luminance" maskUnits="userSpaceOnUse" x="0" y="0" width="48" height="48">
<path d="M48 0H0V48H48V0Z" fill="white"/>
</mask>
<g mask="url(#mask0_4_6045)">
<path d="M37.0833 45H10.9167C8.205 45 6 42.795 6 40.0833V33H10.5V40.0833C10.5 40.3083 10.6917 40.5 10.9167 40.5H37.0833C37.3083 40.5 37.5 40.3083 37.5 40.0833V33H42V40.0833C42 42.795 39.795 45 37.0833 45Z" fill="#200000"/>
<path d="M34.5917 17.9167L26.25 9.575V36L21.75 34.5V9.57333L13.4084 17.915L10.2267 14.7333L20.5267 4.43333C21.4517 3.50834 22.685 3 24.0017 3C25.3184 3 26.5517 3.51 27.4767 4.43333L37.7767 14.7333L34.595 17.915L34.5917 17.9167Z" fill="#200000"/>
</g>
</g>
<defs>
<clipPath id="clip0_4_6045">
<rect width="48" height="48" fill="white"/>
</clipPath>
</defs>
</svg>
