<svg width="48" height="48" viewBox="0 0 48 48" fill="none" xmlns="http://www.w3.org/2000/svg">
<mask id="mask0_4_5961" style="mask-type:alpha" maskUnits="userSpaceOnUse" x="0" y="0" width="48" height="48">
<rect width="48" height="48" fill="#D9D9D9"/>
</mask>
<g mask="url(#mask0_4_5961)">
<path fill-rule="evenodd" clip-rule="evenodd" d="M27 1.69995H24.7V23.2999H46.3V21C46.3 18.4654 45.8008 15.9557 44.8309 13.6142C43.861 11.2726 42.4393 9.14496 40.6472 7.35279C38.855 5.56062 36.7274 4.13899 34.3858 3.16908C32.0442 2.19916 29.5345 1.69995 27 1.69995ZM29.3 18.7V6.481C30.4389 6.66141 31.5552 6.97562 32.6255 7.41892C34.4089 8.15767 36.0295 9.24046 37.3945 10.6055C38.7595 11.9705 39.8423 13.591 40.581 15.3745C41.0243 16.4447 41.3386 17.5611 41.519 18.7H29.3Z" fill="#200000"/>
<path d="M4 27.1165C4 17.1356 11.6532 8.91025 21.4 7.99995V12.9094C14.3508 13.7975 8.88051 19.8304 8.88051 27.1165C8.88051 35.0123 15.3045 41.4363 23.2002 41.4363C31.096 41.4363 37.52 35.0123 37.52 27.1165C37.52 26.848 37.5126 26.5812 37.4979 26.3163L42.384 27.1165C42.395 27.3819 42.4005 26.8485 42.4005 27.1165C42.4005 37.7045 33.7882 46.3168 23.2002 46.3168C12.6123 46.3168 4 37.7045 4 27.1165Z" fill="#200000"/>
</g>
</svg>
