<svg width="48" height="48" viewBox="0 0 48 48" fill="none" xmlns="http://www.w3.org/2000/svg">
<mask id="mask0_4_6017" style="mask-type:alpha" maskUnits="userSpaceOnUse" x="0" y="0" width="48" height="48">
<rect width="48" height="48" fill="#D9D9D9"/>
</mask>
<g mask="url(#mask0_4_6017)">
<path d="M26 22.5H20L21.5 18H27.5L26 22.5Z" fill="#200000"/>
<path fill-rule="evenodd" clip-rule="evenodd" d="M3.2925 40.6781C4.15417 41.5594 5.19 42 6.4 42H32.8C34.01 42 35.0458 41.5594 35.9075 40.6781C36.7692 39.7969 37.2 38.7375 37.2 37.5V27.375L46 36.375V11.625L37.2 20.625V10.5C37.2 9.2625 36.7692 8.20312 35.9075 7.32188C35.0458 6.44063 34.01 6 32.8 6L6.4 10.5C5.19 10.5 4.15417 10.9406 3.2925 11.8219C2.43083 12.7031 2 13.7625 2 15V37.5C2 38.7375 2.43083 39.7969 3.2925 40.6781ZM6.4 37.5V15L32.8 10.5V37.5H6.4Z" fill="#200000"/>
</g>
</svg>
