<svg width="48" height="48" viewBox="0 0 48 48" fill="none" xmlns="http://www.w3.org/2000/svg">
<mask id="mask0_4_5929" style="mask-type:alpha" maskUnits="userSpaceOnUse" x="0" y="0" width="48" height="48">
<rect width="48" height="48" fill="#D9D9D9"/>
</mask>
<g mask="url(#mask0_4_5929)">
<path d="M44.0233 24.155C43.6633 23.6583 35.065 12 24 12C12.935 12 4.33667 23.6583 3.97667 24.155L3 25.5L3.97667 26.845C4.33667 27.3417 12.935 39 24 39C35.065 39 43.6633 27.34 44.0233 26.845L45 25.5L44.0233 24.155ZM24 34.5C17.115 34.5 10.9983 28.3 8.58667 25.5C11 22.6983 17.1167 16.5 24 16.5C30.8833 16.5 37 22.6983 39.4133 25.5C37 28.3017 30.8833 34.5 24 34.5Z" fill="#200000"/>
<path d="M24 18C21.5767 18 19.2933 19.1717 17.89 21.1367C16.9933 22.375 16.5 23.925 16.5 25.5C16.5 29.635 19.865 33 24 33C28.135 33 31.5 29.635 31.5 25.5C31.5 21.365 28.135 18 24 18Z" fill="#200000"/>
</g>
</svg>
