<svg width="48" height="48" viewBox="0 0 48 48" fill="none" xmlns="http://www.w3.org/2000/svg">
<g clip-path="url(#clip0_4_6075)">
<mask id="mask0_4_6075" style="mask-type:luminance" maskUnits="userSpaceOnUse" x="0" y="0" width="48" height="48">
<path d="M48 0H0V48H48V0Z" fill="white"/>
</mask>
<g mask="url(#mask0_4_6075)">
<path d="M21.75 28.3333L26.25 27.05V16.5L21.75 17.7833V28.3333Z" fill="#200000"/>
<path d="M21.75 34.5L26.25 33V29.25L21.75 30.75V34.5Z" fill="#200000"/>
<path d="M44.3484 34.0866L28.465 5.63658L28.4467 5.60492C27.4984 3.96825 25.8417 2.99658 24.0084 2.99658C23.9917 2.99658 23.975 2.99658 23.9584 2.99658C22.13 3.01325 20.495 4.00158 19.585 5.63658L3.70503 34.0816C2.77003 35.7449 2.78837 37.8033 3.75337 39.4516C4.6867 41.0483 6.32503 42.0016 8.13337 42.0016H39.9167C41.715 42.0016 43.345 41.0566 44.2784 39.4716C45.2484 37.8249 45.2767 35.7649 44.3467 34.0882L44.3484 34.0866ZM40.4034 37.1849C40.28 37.3932 40.1167 37.4999 39.9184 37.4999H8.13337C7.87837 37.4999 7.72337 37.3249 7.6367 37.1783C7.57503 37.0732 7.39503 36.7016 7.63003 36.2799L23.515 7.82992L23.5184 7.82492C23.6384 7.60825 23.8017 7.49825 24.0017 7.49658H24.0067C24.1334 7.49658 24.365 7.54492 24.5467 7.85158L40.415 36.2749C40.6517 36.7016 40.465 37.0816 40.4017 37.1866L40.4034 37.1849Z" fill="#200000"/>
</g>
</g>
<defs>
<clipPath id="clip0_4_6075">
<rect width="48" height="48" fill="white"/>
</clipPath>
</defs>
</svg>
