<svg width="48" height="48" viewBox="0 0 48 48" fill="none" xmlns="http://www.w3.org/2000/svg">
<g clip-path="url(#clip0_4_6115)">
<mask id="mask0_4_6115" style="mask-type:luminance" maskUnits="userSpaceOnUse" x="0" y="0" width="48" height="48">
<path d="M48 0H0V48H48V0Z" fill="white"/>
</mask>
<g mask="url(#mask0_4_6115)">
<path d="M41.0033 24.8367C37.5417 18.66 31.185 14.9733 24 14.9733C16.815 14.9733 10.4583 18.66 6.99667 24.8367L3 22.6817C7.275 15.055 15.125 10.5 24 10.5C32.875 10.5 40.725 15.0533 45 22.6817L41.0033 24.8367Z" fill="#200000"/>
<path d="M34.6683 30.8016C32.4966 26.9266 28.5083 24.6132 24 24.6132C19.4916 24.6132 15.5033 26.9266 13.3316 30.8016L9.33496 28.6466C12.32 23.3199 17.8033 20.1399 24 20.1399C30.1966 20.1399 35.68 23.3199 38.665 28.6466L34.6683 30.8016Z" fill="#200000"/>
<path d="M27.5417 36.02C26.82 34.7334 25.4967 33.965 24 33.965C22.5033 33.965 21.1783 34.7334 20.4583 36.02L16.4617 33.865C17.9967 31.1267 20.815 29.4917 24 29.4917C27.185 29.4917 30.005 31.1267 31.5383 33.865L27.5417 36.02Z" fill="#200000"/>
</g>
</g>
<defs>
<clipPath id="clip0_4_6115">
<rect width="48" height="48" fill="white"/>
</clipPath>
</defs>
</svg>
