<svg width="48" height="48" viewBox="0 0 48 48" fill="none" xmlns="http://www.w3.org/2000/svg">
<g clip-path="url(#clip0_4_6116)">
<mask id="mask0_4_6116" style="mask-type:luminance" maskUnits="userSpaceOnUse" x="0" y="0" width="48" height="48">
<path d="M48 0H0V48H48V0Z" fill="white"/>
</mask>
<g mask="url(#mask0_4_6116)">
<path d="M27.3367 25.8051L29.7983 21.8784L32.4817 17.5968L34.8867 13.7601L39.035 7.14342L35.2217 4.75342L30.5983 12.1301C28.495 11.5534 26.2817 11.2501 24 11.2501C15.125 11.2501 7.275 15.8034 3 23.4318L6.99667 25.5868C10.4583 19.4101 16.815 15.7234 24 15.7234C25.4 15.7234 26.7667 15.8651 28.0867 16.1368L25.085 20.9268C24.725 20.9051 24.365 20.8901 24 20.8901C17.8033 20.8901 12.32 24.0701 9.335 29.3968L13.3317 31.5518C15.2133 28.1934 18.46 26.0101 22.2283 25.4868L17.2017 33.5068C16.93 33.8534 16.6833 34.2234 16.4617 34.6168L16.495 34.6351L12.4733 41.0518L16.2867 43.4417L20.72 36.3701C20.72 36.3701 20.7217 36.3668 20.7233 36.3651L24.55 30.2618L27.3417 25.8084L27.3367 25.8051Z" fill="#200000"/>
<path d="M38.705 16.1418L36.2933 19.9902C38.1683 21.5052 39.77 23.3868 41.0033 25.5868L45 23.4318C43.3733 20.5285 41.2267 18.0735 38.705 16.1418Z" fill="#200000"/>
<path d="M33.8034 23.9617L31.4 27.795C32.7117 28.7833 33.8267 30.05 34.6684 31.55L38.665 29.395C37.43 27.1917 35.7667 25.3567 33.8034 23.9617Z" fill="#200000"/>
<path d="M28.9267 31.7437L26.525 35.577C26.9317 35.897 27.2784 36.2987 27.5434 36.772L31.54 34.617C30.8817 33.442 29.9867 32.472 28.9284 31.7453L28.9267 31.7437Z" fill="#200000"/>
</g>
</g>
<defs>
<clipPath id="clip0_4_6116">
<rect width="48" height="48" fill="white"/>
</clipPath>
</defs>
</svg>
